<svg width="380" height="244" viewBox="0 0 380 244" fill="none" xmlns="http://www.w3.org/2000/svg">
<path d="M1.2998 1.40039H378.6V241.7H1.3998L1.2998 1.40039Z" fill="white"/>
<path d="M377.3 135C377.3 135 274.2 207.7 85.3999 240.3H377.3V135Z" fill="#F48120"/>
<path d="M378.6 0H0V243H380V0H378.6ZM377.3 2.8C377.3 5.5 377.3 237.6 377.3 240.3C374.6 240.3 5.5 240.3 2.8 240.3C2.8 237.6 2.8 5.5 2.8 2.8C5.5 2.8 374.5 2.8 377.3 2.8Z" fill="#231F20"/>
<path d="M33.2 74.4004H17.5V129.4H33.2C41.5 129.4 47.5 127.4 52.8 123.1C59.1 117.9 62.8 110.1 62.8 102C62.7 85.7004 50.6 74.4004 33.2 74.4004ZM45.8 115.7C42.4 118.7 38.1 120.1 31.1 120.1H28.2V83.7004H31.1C38 83.7004 42.2 84.9004 45.8 88.1004C49.5 91.4004 51.7 96.5004 51.7 101.8C51.7 107.1 49.5 112.4 45.8 115.7Z" fill="#231F20"/>
<path d="M78.4002 74.4004H67.7002V129.4H78.4002V74.4004Z" fill="#231F20"/>
<path d="M104.6 95.5006C98.1998 93.1006 96.2998 91.5006 96.2998 88.6006C96.2998 85.1006 99.6998 82.5006 104.3 82.5006C107.5 82.5006 110.2 83.8006 112.9 87.0006L118.5 79.7006C113.9 75.7006 108.4 73.6006 102.3 73.6006C92.5998 73.6006 85.0998 80.4006 85.0998 89.4006C85.0998 97.0006 88.5998 100.901 98.5998 104.501C102.8 106.001 104.9 107.001 106 107.601C108.1 109.001 109.2 111.001 109.2 113.301C109.2 117.801 105.7 121.101 100.9 121.101C95.7998 121.101 91.6998 118.501 89.1998 113.801L82.2998 120.501C87.1998 127.801 93.1998 131.001 101.3 131.001C112.4 131.001 120.3 123.601 120.3 112.901C120.5 103.901 116.8 99.9006 104.6 95.5006Z" fill="#231F20"/>
<path d="M123.8 101.901C123.8 118.101 136.5 130.601 152.8 130.601C157.4 130.601 161.4 129.701 166.2 127.401V114.801C161.9 119.101 158.1 120.801 153.3 120.801C142.5 120.801 134.8 113.001 134.8 101.801C134.8 91.2006 142.7 82.9006 152.8 82.9006C157.9 82.9006 161.8 84.7006 166.2 89.1006V76.5006C161.5 74.1006 157.6 73.1006 153 73.1006C136.9 73.1006 123.8 85.9006 123.8 101.901Z" fill="#231F20"/>
<path d="M251.4 111.3L236.7 74.4004H225L248.3 130.8H254.1L277.8 74.4004H266.2L251.4 111.3Z" fill="#231F20"/>
<path d="M282.7 129.4H313.1V120.1H293.4V105.2H312.4V95.9004H293.4V83.7004H313.1V74.4004H282.7V129.4Z" fill="#231F20"/>
<path d="M355.6 90.6004C355.6 80.3004 348.5 74.4004 336.1 74.4004H320.2V129.4H330.9V107.3H332.3L347.1 129.4H360.3L343 106.2C351.1 104.6 355.6 99.0004 355.6 90.6004ZM334 99.7004H330.9V83.0004H334.2C340.9 83.0004 344.5 85.8004 344.5 91.2004C344.5 96.7004 340.9 99.7004 334 99.7004Z" fill="#231F20"/>
<path d="M199.1 131.401C215.282 131.401 228.4 118.283 228.4 102.101C228.4 85.9188 215.282 72.8008 199.1 72.8008C182.918 72.8008 169.8 85.9188 169.8 102.101C169.8 118.283 182.918 131.401 199.1 131.401Z" fill="url(#paint0_linear)"/>
<mask id="mask0" mask-type="alpha" maskUnits="userSpaceOnUse" x="169" y="72" width="60" height="60">
<path d="M199.1 131.401C215.282 131.401 228.4 118.283 228.4 102.101C228.4 85.9188 215.282 72.8008 199.1 72.8008C182.918 72.8008 169.8 85.9188 169.8 102.101C169.8 118.283 182.918 131.401 199.1 131.401Z" fill="url(#paint1_linear)"/>
</mask>
<g mask="url(#mask0)">
<path opacity="0.65" d="M199.1 131.401C215.282 131.401 228.4 118.283 228.4 102.101C228.4 85.9188 215.282 72.8008 199.1 72.8008C182.918 72.8008 169.8 85.9188 169.8 102.101C169.8 118.283 182.918 131.401 199.1 131.401Z" fill="url(#paint2_linear)"/>
</g>
<g opacity="0.5">
<g opacity="0.5">
<path opacity="0.5" d="M199.2 132C215.658 132 229 118.658 229 102.2C229 85.7423 215.658 72.4004 199.2 72.4004C182.742 72.4004 169.4 85.7423 169.4 102.2C169.4 118.658 182.742 132 199.2 132Z" fill="#231F20"/>
<path opacity="0.5" d="M199.2 132C215.658 132 229 118.658 229 102.2C229 85.7423 215.658 72.4004 199.2 72.4004C182.742 72.4004 169.4 85.7423 169.4 102.2C169.4 118.658 182.742 132 199.2 132Z" fill="#242021"/>
<path opacity="0.5" d="M199.2 132C215.658 132 229 118.658 229 102.2C229 85.7423 215.658 72.4004 199.2 72.4004C182.742 72.4004 169.4 85.7423 169.4 102.2C169.4 118.658 182.742 132 199.2 132Z" fill="#252122"/>
<path opacity="0.5" d="M199.2 132C215.658 132 229 118.658 229 102.2C229 85.7423 215.658 72.4004 199.2 72.4004C182.742 72.4004 169.4 85.7423 169.4 102.2C169.4 118.658 182.742 132 199.2 132Z" fill="#252223"/>
<path opacity="0.5" d="M199.2 132C215.658 132 229 118.658 229 102.2C229 85.7423 215.658 72.4004 199.2 72.4004C182.742 72.4004 169.4 85.7423 169.4 102.2C169.4 118.658 182.742 132 199.2 132Z" fill="#262223"/>
<path opacity="0.5" d="M199.2 132.1C215.658 132.1 229 118.758 229 102.3C229 85.8419 215.658 72.5 199.2 72.5C182.742 72.5 169.4 85.8419 169.4 102.3C169.4 118.758 182.742 132.1 199.2 132.1Z" fill="#272324"/>
<path opacity="0.5" d="M199.2 132.1C215.658 132.1 229 118.758 229 102.3C229 85.8419 215.658 72.5 199.2 72.5C182.742 72.5 169.4 85.8419 169.4 102.3C169.4 118.758 182.742 132.1 199.2 132.1Z" fill="#282425"/>
<path opacity="0.5" d="M199.3 132.1C215.758 132.1 229.1 118.758 229.1 102.3C229.1 85.8419 215.758 72.5 199.3 72.5C182.842 72.5 169.5 85.8419 169.5 102.3C169.5 118.758 182.842 132.1 199.3 132.1Z" fill="#292526"/>
<path opacity="0.5" d="M199.3 132.1C215.758 132.1 229.1 118.758 229.1 102.3C229.1 85.8419 215.758 72.5 199.3 72.5C182.842 72.5 169.5 85.8419 169.5 102.3C169.5 118.758 182.842 132.1 199.3 132.1Z" fill="#292627"/>
<path opacity="0.5" d="M199.3 132.1C215.758 132.1 229.1 118.758 229.1 102.3C229.1 85.8419 215.758 72.5 199.3 72.5C182.842 72.5 169.5 85.8419 169.5 102.3C169.5 118.758 182.842 132.1 199.3 132.1Z" fill="#2A2728"/>
<path opacity="0.5" d="M199.3 132.1C215.758 132.1 229.1 118.758 229.1 102.3C229.1 85.8419 215.758 72.5 199.3 72.5C182.842 72.5 169.5 85.8419 169.5 102.3C169.5 118.758 182.842 132.1 199.3 132.1Z" fill="#2B2728"/>
<path opacity="0.5" d="M199.3 132.201C215.758 132.201 229.1 118.859 229.1 102.401C229.1 85.9425 215.758 72.6006 199.3 72.6006C182.842 72.6006 169.5 85.9425 169.5 102.401C169.5 118.859 182.842 132.201 199.3 132.201Z" fill="#2C2829"/>
<path opacity="0.5" d="M199.3 132.201C215.758 132.201 229.1 118.859 229.1 102.401C229.1 85.9425 215.758 72.6006 199.3 72.6006C182.842 72.6006 169.5 85.9425 169.5 102.401C169.5 118.859 182.842 132.201 199.3 132.201Z" fill="#2D292A"/>
<path opacity="0.5" d="M199.4 132.201C215.858 132.201 229.2 118.859 229.2 102.401C229.2 85.9425 215.858 72.6006 199.4 72.6006C182.942 72.6006 169.6 85.9425 169.6 102.401C169.6 118.859 182.942 132.201 199.4 132.201Z" fill="#2D2A2B"/>
<path opacity="0.5" d="M199.4 132.201C215.858 132.201 229.2 118.859 229.2 102.401C229.2 85.9425 215.858 72.6006 199.4 72.6006C182.942 72.6006 169.6 85.9425 169.6 102.401C169.6 118.859 182.942 132.201 199.4 132.201Z" fill="#2E2B2C"/>
<path opacity="0.5" d="M199.4 132.201C215.858 132.201 229.2 118.859 229.2 102.401C229.2 85.9425 215.858 72.6006 199.4 72.6006C182.942 72.6006 169.6 85.9425 169.6 102.401C169.6 118.859 182.942 132.201 199.4 132.201Z" fill="#2F2C2D"/>
<path opacity="0.5" d="M199.4 132.3C215.858 132.3 229.2 118.958 229.2 102.5C229.2 86.0421 215.858 72.7002 199.4 72.7002C182.942 72.7002 169.6 86.0421 169.6 102.5C169.6 118.958 182.942 132.3 199.4 132.3Z" fill="#302C2D"/>
<path opacity="0.5" d="M199.4 132.3C215.858 132.3 229.2 118.958 229.2 102.5C229.2 86.0421 215.858 72.7002 199.4 72.7002C182.942 72.7002 169.6 86.0421 169.6 102.5C169.6 118.958 182.942 132.3 199.4 132.3Z" fill="#312D2E"/>
<path opacity="0.5" d="M199.4 132.3C215.858 132.3 229.2 118.958 229.2 102.5C229.2 86.0421 215.858 72.7002 199.4 72.7002C182.942 72.7002 169.6 86.0421 169.6 102.5C169.6 118.958 182.942 132.3 199.4 132.3Z" fill="#322E2F"/>
<path opacity="0.5" d="M199.5 132.3C215.958 132.3 229.3 118.958 229.3 102.5C229.3 86.0421 215.958 72.7002 199.5 72.7002C183.042 72.7002 169.7 86.0421 169.7 102.5C169.7 118.958 183.042 132.3 199.5 132.3Z" fill="#322F30"/>
<path opacity="0.5" d="M199.5 132.3C215.958 132.3 229.3 118.958 229.3 102.5C229.3 86.0421 215.958 72.7002 199.5 72.7002C183.042 72.7002 169.7 86.0421 169.7 102.5C169.7 118.958 183.042 132.3 199.5 132.3Z" fill="#333031"/>
<path opacity="0.5" d="M199.5 132.3C215.958 132.3 229.3 118.958 229.3 102.5C229.3 86.0421 215.958 72.7002 199.5 72.7002C183.042 72.7002 169.7 86.0421 169.7 102.5C169.7 118.958 183.042 132.3 199.5 132.3Z" fill="#343132"/>
<path opacity="0.5" d="M199.5 132.401C215.958 132.401 229.3 119.059 229.3 102.601C229.3 86.1427 215.958 72.8008 199.5 72.8008C183.042 72.8008 169.7 86.1427 169.7 102.601C169.7 119.059 183.042 132.401 199.5 132.401Z" fill="#353132"/>
<path opacity="0.5" d="M199.5 132.401C215.958 132.401 229.3 119.059 229.3 102.601C229.3 86.1427 215.958 72.8008 199.5 72.8008C183.042 72.8008 169.7 86.1427 169.7 102.601C169.7 119.059 183.042 132.401 199.5 132.401Z" fill="#363233"/>
<path opacity="0.5" d="M199.5 132.401C215.958 132.401 229.3 119.059 229.3 102.601C229.3 86.1427 215.958 72.8008 199.5 72.8008C183.042 72.8008 169.7 86.1427 169.7 102.601C169.7 119.059 183.042 132.401 199.5 132.401Z" fill="#363334"/>
<path opacity="0.5" d="M199.6 132.401C216.058 132.401 229.4 119.059 229.4 102.601C229.4 86.1427 216.058 72.8008 199.6 72.8008C183.142 72.8008 169.8 86.1427 169.8 102.601C169.8 119.059 183.142 132.401 199.6 132.401Z" fill="#373435"/>
<path opacity="0.5" d="M199.6 132.401C216.058 132.401 229.4 119.059 229.4 102.601C229.4 86.1427 216.058 72.8008 199.6 72.8008C183.142 72.8008 169.8 86.1427 169.8 102.601C169.8 119.059 183.142 132.401 199.6 132.401Z" fill="#383536"/>
<path opacity="0.5" d="M199.6 132.5C216.058 132.5 229.4 119.158 229.4 102.7C229.4 86.2423 216.058 72.9004 199.6 72.9004C183.142 72.9004 169.8 86.2423 169.8 102.7C169.8 119.158 183.142 132.5 199.6 132.5Z" fill="#393637"/>
<path opacity="0.5" d="M199.6 132.5C216.058 132.5 229.4 119.158 229.4 102.7C229.4 86.2423 216.058 72.9004 199.6 72.9004C183.142 72.9004 169.8 86.2423 169.8 102.7C169.8 119.158 183.142 132.5 199.6 132.5Z" fill="#3A3638"/>
<path opacity="0.5" d="M199.6 132.5C216.058 132.5 229.4 119.158 229.4 102.7C229.4 86.2423 216.058 72.9004 199.6 72.9004C183.142 72.9004 169.8 86.2423 169.8 102.7C169.8 119.158 183.142 132.5 199.6 132.5Z" fill="#3A3738"/>
<path opacity="0.5" d="M199.6 132.5C216.058 132.5 229.4 119.158 229.4 102.7C229.4 86.2423 216.058 72.9004 199.6 72.9004C183.142 72.9004 169.8 86.2423 169.8 102.7C169.8 119.158 183.142 132.5 199.6 132.5Z" fill="#3B3839"/>
<path opacity="0.5" d="M199.7 132.5C216.158 132.5 229.5 119.158 229.5 102.7C229.5 86.2423 216.158 72.9004 199.7 72.9004C183.242 72.9004 169.9 86.2423 169.9 102.7C169.9 119.158 183.242 132.5 199.7 132.5Z" fill="#3C393A"/>
<path opacity="0.5" d="M199.7 132.501C216.103 132.501 229.4 119.203 229.4 102.801C229.4 86.3977 216.103 73.1006 199.7 73.1006C183.297 73.1006 170 86.3977 170 102.801C170 119.203 183.297 132.501 199.7 132.501Z" fill="#3D3A3B"/>
<path opacity="0.5" d="M199.7 132.501C216.103 132.501 229.4 119.203 229.4 102.801C229.4 86.3977 216.103 73.1006 199.7 73.1006C183.297 73.1006 170 86.3977 170 102.801C170 119.203 183.297 132.501 199.7 132.501Z" fill="#3E3B3C"/>
<path opacity="0.5" d="M199.7 132.501C216.103 132.501 229.4 119.203 229.4 102.801C229.4 86.3977 216.103 73.1006 199.7 73.1006C183.297 73.1006 170 86.3977 170 102.801C170 119.203 183.297 132.501 199.7 132.501Z" fill="#3E3B3D"/>
<path opacity="0.5" d="M199.7 132.501C216.103 132.501 229.4 119.203 229.4 102.801C229.4 86.3977 216.103 73.1006 199.7 73.1006C183.297 73.1006 170 86.3977 170 102.801C170 119.203 183.297 132.501 199.7 132.501Z" fill="#3F3C3D"/>
<path opacity="0.5" d="M199.7 132.501C216.103 132.501 229.4 119.203 229.4 102.801C229.4 86.3977 216.103 73.1006 199.7 73.1006C183.297 73.1006 170 86.3977 170 102.801C170 119.203 183.297 132.501 199.7 132.501Z" fill="#403D3E"/>
<path opacity="0.5" d="M199.8 132.501C216.203 132.501 229.5 119.203 229.5 102.801C229.5 86.3977 216.203 73.1006 199.8 73.1006C183.397 73.1006 170.1 86.3977 170.1 102.801C170.1 119.203 183.397 132.501 199.8 132.501Z" fill="#413E3F"/>
<path opacity="0.5" d="M199.8 132.6C216.203 132.6 229.5 119.303 229.5 102.9C229.5 86.4973 216.203 73.2002 199.8 73.2002C183.397 73.2002 170.1 86.4973 170.1 102.9C170.1 119.303 183.397 132.6 199.8 132.6Z" fill="#423F40"/>
<path opacity="0.5" d="M199.8 132.6C216.203 132.6 229.5 119.303 229.5 102.9C229.5 86.4973 216.203 73.2002 199.8 73.2002C183.397 73.2002 170.1 86.4973 170.1 102.9C170.1 119.303 183.397 132.6 199.8 132.6Z" fill="#424041"/>
<path opacity="0.5" d="M199.8 132.6C216.203 132.6 229.5 119.303 229.5 102.9C229.5 86.4973 216.203 73.2002 199.8 73.2002C183.397 73.2002 170.1 86.4973 170.1 102.9C170.1 119.303 183.397 132.6 199.8 132.6Z" fill="#434042"/>
<path opacity="0.5" d="M199.8 132.6C216.203 132.6 229.5 119.303 229.5 102.9C229.5 86.4973 216.203 73.2002 199.8 73.2002C183.397 73.2002 170.1 86.4973 170.1 102.9C170.1 119.303 183.397 132.6 199.8 132.6Z" fill="#444142"/>
<path opacity="0.5" d="M199.8 132.6C216.203 132.6 229.5 119.303 229.5 102.9C229.5 86.4973 216.203 73.2002 199.8 73.2002C183.397 73.2002 170.1 86.4973 170.1 102.9C170.1 119.303 183.397 132.6 199.8 132.6Z" fill="#454243"/>
<path opacity="0.5" d="M199.8 132.701C216.203 132.701 229.5 119.404 229.5 103.001C229.5 86.5979 216.203 73.3008 199.8 73.3008C183.397 73.3008 170.1 86.5979 170.1 103.001C170.1 119.404 183.397 132.701 199.8 132.701Z" fill="#464344"/>
<path opacity="0.5" d="M199.9 132.701C216.303 132.701 229.6 119.404 229.6 103.001C229.6 86.5979 216.303 73.3008 199.9 73.3008C183.497 73.3008 170.2 86.5979 170.2 103.001C170.2 119.404 183.497 132.701 199.9 132.701Z" fill="#464445"/>
<path opacity="0.5" d="M199.9 132.701C216.303 132.701 229.6 119.404 229.6 103.001C229.6 86.5979 216.303 73.3008 199.9 73.3008C183.497 73.3008 170.2 86.5979 170.2 103.001C170.2 119.404 183.497 132.701 199.9 132.701Z" fill="#474546"/>
<path opacity="0.5" d="M199.9 132.701C216.303 132.701 229.6 119.404 229.6 103.001C229.6 86.5979 216.303 73.3008 199.9 73.3008C183.497 73.3008 170.2 86.5979 170.2 103.001C170.2 119.404 183.497 132.701 199.9 132.701Z" fill="#484547"/>
<path opacity="0.5" d="M199.9 132.701C216.303 132.701 229.6 119.404 229.6 103.001C229.6 86.5979 216.303 73.3008 199.9 73.3008C183.497 73.3008 170.2 86.5979 170.2 103.001C170.2 119.404 183.497 132.701 199.9 132.701Z" fill="#494648"/>
<path opacity="0.5" d="M199.9 132.8C216.303 132.8 229.6 119.503 229.6 103.1C229.6 86.6975 216.303 73.4004 199.9 73.4004C183.497 73.4004 170.2 86.6975 170.2 103.1C170.2 119.503 183.497 132.8 199.9 132.8Z" fill="#4A4748"/>
<path opacity="0.5" d="M199.9 132.8C216.303 132.8 229.6 119.503 229.6 103.1C229.6 86.6975 216.303 73.4004 199.9 73.4004C183.497 73.4004 170.2 86.6975 170.2 103.1C170.2 119.503 183.497 132.8 199.9 132.8Z" fill="#4A4849"/>
<path opacity="0.5" d="M200 132.8C216.403 132.8 229.7 119.503 229.7 103.1C229.7 86.6975 216.403 73.4004 200 73.4004C183.597 73.4004 170.3 86.6975 170.3 103.1C170.3 119.503 183.597 132.8 200 132.8Z" fill="#4B494A"/>
<path opacity="0.5" d="M200 132.8C216.403 132.8 229.7 119.503 229.7 103.1C229.7 86.6975 216.403 73.4004 200 73.4004C183.597 73.4004 170.3 86.6975 170.3 103.1C170.3 119.503 183.597 132.8 200 132.8Z" fill="#4C4A4B"/>
<path opacity="0.5" d="M200 132.8C216.403 132.8 229.7 119.503 229.7 103.1C229.7 86.6975 216.403 73.4004 200 73.4004C183.597 73.4004 170.3 86.6975 170.3 103.1C170.3 119.503 183.597 132.8 200 132.8Z" fill="#4D4A4C"/>
<path opacity="0.5" d="M200 132.8C216.403 132.8 229.7 119.503 229.7 103.1C229.7 86.6975 216.403 73.4004 200 73.4004C183.597 73.4004 170.3 86.6975 170.3 103.1C170.3 119.503 183.597 132.8 200 132.8Z" fill="#4E4B4D"/>
<path opacity="0.5" d="M200 132.9C216.403 132.9 229.7 119.603 229.7 103.2C229.7 86.7971 216.403 73.5 200 73.5C183.597 73.5 170.3 86.7971 170.3 103.2C170.3 119.603 183.597 132.9 200 132.9Z" fill="#4F4C4D"/>
<path opacity="0.5" d="M200 132.9C216.403 132.9 229.7 119.603 229.7 103.2C229.7 86.7971 216.403 73.5 200 73.5C183.597 73.5 170.3 86.7971 170.3 103.2C170.3 119.603 183.597 132.9 200 132.9Z" fill="#4F4D4E"/>
<path opacity="0.5" d="M200.1 132.9C216.503 132.9 229.8 119.603 229.8 103.2C229.8 86.7971 216.503 73.5 200.1 73.5C183.697 73.5 170.4 86.7971 170.4 103.2C170.4 119.603 183.697 132.9 200.1 132.9Z" fill="#504E4F"/>
<path opacity="0.5" d="M200.1 132.9C216.503 132.9 229.8 119.603 229.8 103.2C229.8 86.7971 216.503 73.5 200.1 73.5C183.697 73.5 170.4 86.7971 170.4 103.2C170.4 119.603 183.697 132.9 200.1 132.9Z" fill="#514F50"/>
<path opacity="0.5" d="M200.1 132.9C216.503 132.9 229.8 119.603 229.8 103.2C229.8 86.7971 216.503 73.5 200.1 73.5C183.697 73.5 170.4 86.7971 170.4 103.2C170.4 119.603 183.697 132.9 200.1 132.9Z" fill="#524F51"/>
<path opacity="0.5" d="M200.1 133.001C216.503 133.001 229.8 119.703 229.8 103.301C229.8 86.8977 216.503 73.6006 200.1 73.6006C183.697 73.6006 170.4 86.8977 170.4 103.301C170.4 119.703 183.697 133.001 200.1 133.001Z" fill="#535052"/>
<path opacity="0.5" d="M200.1 133.001C216.503 133.001 229.8 119.703 229.8 103.301C229.8 86.8977 216.503 73.6006 200.1 73.6006C183.697 73.6006 170.4 86.8977 170.4 103.301C170.4 119.703 183.697 133.001 200.1 133.001Z" fill="#535152"/>
<path opacity="0.5" d="M200.1 133.001C216.503 133.001 229.8 119.703 229.8 103.301C229.8 86.8977 216.503 73.6006 200.1 73.6006C183.697 73.6006 170.4 86.8977 170.4 103.301C170.4 119.703 183.697 133.001 200.1 133.001Z" fill="#545253"/>
<path opacity="0.5" d="M200.2 133.001C216.603 133.001 229.9 119.703 229.9 103.301C229.9 86.8977 216.603 73.6006 200.2 73.6006C183.797 73.6006 170.5 86.8977 170.5 103.301C170.5 119.703 183.797 133.001 200.2 133.001Z" fill="#555354"/>
<path opacity="0.5" d="M200.2 133.001C216.603 133.001 229.9 119.703 229.9 103.301C229.9 86.8977 216.603 73.6006 200.2 73.6006C183.797 73.6006 170.5 86.8977 170.5 103.301C170.5 119.703 183.797 133.001 200.2 133.001Z" fill="#565455"/>
<path opacity="0.5" d="M200.2 133.001C216.603 133.001 229.9 119.703 229.9 103.301C229.9 86.8977 216.603 73.6006 200.2 73.6006C183.797 73.6006 170.5 86.8977 170.5 103.301C170.5 119.703 183.797 133.001 200.2 133.001Z" fill="#575456"/>
<path opacity="0.5" d="M200.2 133.1C216.603 133.1 229.9 119.803 229.9 103.4C229.9 86.9973 216.603 73.7002 200.2 73.7002C183.797 73.7002 170.5 86.9973 170.5 103.4C170.5 119.803 183.797 133.1 200.2 133.1Z" fill="#575557"/>
<path opacity="0.5" d="M200.2 133.001C216.548 133.001 229.8 119.748 229.8 103.401C229.8 87.0532 216.548 73.8008 200.2 73.8008C183.852 73.8008 170.6 87.0532 170.6 103.401C170.6 119.748 183.852 133.001 200.2 133.001Z" fill="#585657"/>
<path opacity="0.5" d="M200.2 133.001C216.548 133.001 229.8 119.748 229.8 103.401C229.8 87.0532 216.548 73.8008 200.2 73.8008C183.852 73.8008 170.6 87.0532 170.6 103.401C170.6 119.748 183.852 133.001 200.2 133.001Z" fill="#595758"/>
<path opacity="0.5" d="M200.3 133.001C216.647 133.001 229.9 119.748 229.9 103.401C229.9 87.0532 216.647 73.8008 200.3 73.8008C183.952 73.8008 170.7 87.0532 170.7 103.401C170.7 119.748 183.952 133.001 200.3 133.001Z" fill="#5A5859"/>
<path opacity="0.5" d="M200.3 133.001C216.647 133.001 229.9 119.748 229.9 103.401C229.9 87.0532 216.647 73.8008 200.3 73.8008C183.952 73.8008 170.7 87.0532 170.7 103.401C170.7 119.748 183.952 133.001 200.3 133.001Z" fill="#5B595A"/>
<path opacity="0.5" d="M200.3 133.1C216.647 133.1 229.9 119.848 229.9 103.5C229.9 87.1528 216.647 73.9004 200.3 73.9004C183.952 73.9004 170.7 87.1528 170.7 103.5C170.7 119.848 183.952 133.1 200.3 133.1Z" fill="#5B5A5B"/>
<path opacity="0.5" d="M200.3 133.1C216.647 133.1 229.9 119.848 229.9 103.5C229.9 87.1528 216.647 73.9004 200.3 73.9004C183.952 73.9004 170.7 87.1528 170.7 103.5C170.7 119.848 183.952 133.1 200.3 133.1Z" fill="#5C5A5C"/>
<path opacity="0.5" d="M200.3 133.1C216.647 133.1 229.9 119.848 229.9 103.5C229.9 87.1528 216.647 73.9004 200.3 73.9004C183.952 73.9004 170.7 87.1528 170.7 103.5C170.7 119.848 183.952 133.1 200.3 133.1Z" fill="#5D5B5D"/>
<path opacity="0.5" d="M200.3 133.1C216.647 133.1 229.9 119.848 229.9 103.5C229.9 87.1528 216.647 73.9004 200.3 73.9004C183.952 73.9004 170.7 87.1528 170.7 103.5C170.7 119.848 183.952 133.1 200.3 133.1Z" fill="#5E5C5D"/>
<path opacity="0.5" d="M200.3 133.1C216.647 133.1 229.9 119.848 229.9 103.5C229.9 87.1528 216.647 73.9004 200.3 73.9004C183.952 73.9004 170.7 87.1528 170.7 103.5C170.7 119.848 183.952 133.1 200.3 133.1Z" fill="#5F5D5E"/>
<path opacity="0.5" d="M200.4 133.2C216.747 133.2 230 119.948 230 103.6C230 87.2524 216.747 74 200.4 74C184.052 74 170.8 87.2524 170.8 103.6C170.8 119.948 184.052 133.2 200.4 133.2Z" fill="#5F5E5F"/>
<path opacity="0.5" d="M200.4 133.2C216.747 133.2 230 119.948 230 103.6C230 87.2524 216.747 74 200.4 74C184.052 74 170.8 87.2524 170.8 103.6C170.8 119.948 184.052 133.2 200.4 133.2Z" fill="#605F60"/>
<path opacity="0.5" d="M200.4 133.2C216.747 133.2 230 119.948 230 103.6C230 87.2524 216.747 74 200.4 74C184.052 74 170.8 87.2524 170.8 103.6C170.8 119.948 184.052 133.2 200.4 133.2Z" fill="#615F61"/>
<path opacity="0.5" d="M200.4 133.2C216.747 133.2 230 119.948 230 103.6C230 87.2524 216.747 74 200.4 74C184.052 74 170.8 87.2524 170.8 103.6C170.8 119.948 184.052 133.2 200.4 133.2Z" fill="#626062"/>
<path opacity="0.5" d="M200.4 133.2C216.747 133.2 230 119.948 230 103.6C230 87.2524 216.747 74 200.4 74C184.052 74 170.8 87.2524 170.8 103.6C170.8 119.948 184.052 133.2 200.4 133.2Z" fill="#636162"/>
<path opacity="0.5" d="M200.4 133.2C216.747 133.2 230 119.948 230 103.6C230 87.2524 216.747 74 200.4 74C184.052 74 170.8 87.2524 170.8 103.6C170.8 119.948 184.052 133.2 200.4 133.2Z" fill="#636263"/>
<path opacity="0.5" d="M200.5 133.301C216.848 133.301 230.1 120.048 230.1 103.701C230.1 87.353 216.848 74.1006 200.5 74.1006C184.152 74.1006 170.9 87.353 170.9 103.701C170.9 120.048 184.152 133.301 200.5 133.301Z" fill="#646364"/>
<path opacity="0.5" d="M200.5 133.301C216.848 133.301 230.1 120.048 230.1 103.701C230.1 87.353 216.848 74.1006 200.5 74.1006C184.152 74.1006 170.9 87.353 170.9 103.701C170.9 120.048 184.152 133.301 200.5 133.301Z" fill="#656465"/>
<path opacity="0.5" d="M200.5 133.301C216.848 133.301 230.1 120.048 230.1 103.701C230.1 87.353 216.848 74.1006 200.5 74.1006C184.152 74.1006 170.9 87.353 170.9 103.701C170.9 120.048 184.152 133.301 200.5 133.301Z" fill="#666466"/>
<path opacity="0.5" d="M200.5 133.301C216.848 133.301 230.1 120.048 230.1 103.701C230.1 87.353 216.848 74.1006 200.5 74.1006C184.152 74.1006 170.9 87.353 170.9 103.701C170.9 120.048 184.152 133.301 200.5 133.301Z" fill="#676567"/>
<path opacity="0.5" d="M200.5 133.301C216.848 133.301 230.1 120.048 230.1 103.701C230.1 87.353 216.848 74.1006 200.5 74.1006C184.152 74.1006 170.9 87.353 170.9 103.701C170.9 120.048 184.152 133.301 200.5 133.301Z" fill="#686667"/>
<path opacity="0.5" d="M200.5 133.4C216.848 133.4 230.1 120.148 230.1 103.8C230.1 87.4526 216.848 74.2002 200.5 74.2002C184.152 74.2002 170.9 87.4526 170.9 103.8C170.9 120.148 184.152 133.4 200.5 133.4Z" fill="#686768"/>
<path opacity="0.5" d="M200.6 133.4C216.948 133.4 230.2 120.148 230.2 103.8C230.2 87.4526 216.948 74.2002 200.6 74.2002C184.252 74.2002 171 87.4526 171 103.8C171 120.148 184.252 133.4 200.6 133.4Z" fill="#696869"/>
<path opacity="0.5" d="M200.6 133.4C216.948 133.4 230.2 120.148 230.2 103.8C230.2 87.4526 216.948 74.2002 200.6 74.2002C184.252 74.2002 171 87.4526 171 103.8C171 120.148 184.252 133.4 200.6 133.4Z" fill="#6A696A"/>
<path opacity="0.5" d="M200.6 133.4C216.948 133.4 230.2 120.148 230.2 103.8C230.2 87.4526 216.948 74.2002 200.6 74.2002C184.252 74.2002 171 87.4526 171 103.8C171 120.148 184.252 133.4 200.6 133.4Z" fill="#6B696B"/>
<path opacity="0.5" d="M200.6 133.4C216.948 133.4 230.2 120.148 230.2 103.8C230.2 87.4526 216.948 74.2002 200.6 74.2002C184.252 74.2002 171 87.4526 171 103.8C171 120.148 184.252 133.4 200.6 133.4Z" fill="#6C6A6C"/>
<path opacity="0.5" d="M200.6 133.501C216.948 133.501 230.2 120.248 230.2 103.901C230.2 87.5532 216.948 74.3008 200.6 74.3008C184.252 74.3008 171 87.5532 171 103.901C171 120.248 184.252 133.501 200.6 133.501Z" fill="#6C6B6D"/>
<path opacity="0.5" d="M200.6 133.501C216.948 133.501 230.2 120.248 230.2 103.901C230.2 87.5532 216.948 74.3008 200.6 74.3008C184.252 74.3008 171 87.5532 171 103.901C171 120.248 184.252 133.501 200.6 133.501Z" fill="#6D6C6D"/>
<path opacity="0.5" d="M200.7 133.501C217.048 133.501 230.3 120.248 230.3 103.901C230.3 87.5532 217.048 74.3008 200.7 74.3008C184.352 74.3008 171.1 87.5532 171.1 103.901C171.1 120.248 184.352 133.501 200.7 133.501Z" fill="#6E6D6E"/>
<path opacity="0.5" d="M200.7 133.501C217.048 133.501 230.3 120.248 230.3 103.901C230.3 87.5532 217.048 74.3008 200.7 74.3008C184.352 74.3008 171.1 87.5532 171.1 103.901C171.1 120.248 184.352 133.501 200.7 133.501Z" fill="#6F6E6F"/>
<path opacity="0.5" d="M200.7 133.501C217.048 133.501 230.3 120.248 230.3 103.901C230.3 87.5532 217.048 74.3008 200.7 74.3008C184.352 74.3008 171.1 87.5532 171.1 103.901C171.1 120.248 184.352 133.501 200.7 133.501Z" fill="#706E70"/>
<path opacity="0.5" d="M200.7 133.501C217.048 133.501 230.3 120.248 230.3 103.901C230.3 87.5532 217.048 74.3008 200.7 74.3008C184.352 74.3008 171.1 87.5532 171.1 103.901C171.1 120.248 184.352 133.501 200.7 133.501Z" fill="#706F71"/>
<path opacity="0.5" d="M200.7 133.6C217.048 133.6 230.3 120.348 230.3 104C230.3 87.6528 217.048 74.4004 200.7 74.4004C184.352 74.4004 171.1 87.6528 171.1 104C171.1 120.348 184.352 133.6 200.7 133.6Z" fill="#717072"/>
<path opacity="0.5" d="M200.7 133.6C217.048 133.6 230.3 120.348 230.3 104C230.3 87.6528 217.048 74.4004 200.7 74.4004C184.352 74.4004 171.1 87.6528 171.1 104C171.1 120.348 184.352 133.6 200.7 133.6Z" fill="#727172"/>
<path opacity="0.5" d="M200.8 133.6C217.147 133.6 230.4 120.348 230.4 104C230.4 87.6528 217.147 74.4004 200.8 74.4004C184.452 74.4004 171.2 87.6528 171.2 104C171.2 120.348 184.452 133.6 200.8 133.6Z" fill="#737273"/>
<path opacity="0.5" d="M200.8 133.5C217.092 133.5 230.3 120.292 230.3 104C230.3 87.7076 217.092 74.5 200.8 74.5C184.507 74.5 171.3 87.7076 171.3 104C171.3 120.292 184.507 133.5 200.8 133.5Z" fill="#747374"/>
<path opacity="0.5" d="M200.8 133.5C217.092 133.5 230.3 120.292 230.3 104C230.3 87.7076 217.092 74.5 200.8 74.5C184.507 74.5 171.3 87.7076 171.3 104C171.3 120.292 184.507 133.5 200.8 133.5Z" fill="#747375"/>
<path opacity="0.5" d="M200.8 133.601C217.092 133.601 230.3 120.393 230.3 104.101C230.3 87.8082 217.092 74.6006 200.8 74.6006C184.507 74.6006 171.3 87.8082 171.3 104.101C171.3 120.393 184.507 133.601 200.8 133.601Z" fill="#757476"/>
<path opacity="0.5" d="M200.8 133.601C217.092 133.601 230.3 120.393 230.3 104.101C230.3 87.8082 217.092 74.6006 200.8 74.6006C184.507 74.6006 171.3 87.8082 171.3 104.101C171.3 120.393 184.507 133.601 200.8 133.601Z" fill="#767577"/>
<path opacity="0.5" d="M200.8 133.601C217.092 133.601 230.3 120.393 230.3 104.101C230.3 87.8082 217.092 74.6006 200.8 74.6006C184.507 74.6006 171.3 87.8082 171.3 104.101C171.3 120.393 184.507 133.601 200.8 133.601Z" fill="#777677"/>
<path opacity="0.5" d="M200.8 133.601C217.092 133.601 230.3 120.393 230.3 104.101C230.3 87.8082 217.092 74.6006 200.8 74.6006C184.507 74.6006 171.3 87.8082 171.3 104.101C171.3 120.393 184.507 133.601 200.8 133.601Z" fill="#787778"/>
<path opacity="0.5" d="M200.9 133.601C217.192 133.601 230.4 120.393 230.4 104.101C230.4 87.8082 217.192 74.6006 200.9 74.6006C184.608 74.6006 171.4 87.8082 171.4 104.101C171.4 120.393 184.608 133.601 200.9 133.601Z" fill="#787879"/>
<path opacity="0.5" d="M200.9 133.7C217.192 133.7 230.4 120.493 230.4 104.2C230.4 87.9078 217.192 74.7002 200.9 74.7002C184.608 74.7002 171.4 87.9078 171.4 104.2C171.4 120.493 184.608 133.7 200.9 133.7Z" fill="#79787A"/>
<path opacity="0.5" d="M200.9 133.7C217.192 133.7 230.4 120.493 230.4 104.2C230.4 87.9078 217.192 74.7002 200.9 74.7002C184.608 74.7002 171.4 87.9078 171.4 104.2C171.4 120.493 184.608 133.7 200.9 133.7Z" fill="#7A797B"/>
<path opacity="0.5" d="M200.9 133.7C217.192 133.7 230.4 120.493 230.4 104.2C230.4 87.9078 217.192 74.7002 200.9 74.7002C184.608 74.7002 171.4 87.9078 171.4 104.2C171.4 120.493 184.608 133.7 200.9 133.7Z" fill="#7B7A7C"/>
<path opacity="0.5" d="M200.9 133.7C217.192 133.7 230.4 120.493 230.4 104.2C230.4 87.9078 217.192 74.7002 200.9 74.7002C184.608 74.7002 171.4 87.9078 171.4 104.2C171.4 120.493 184.608 133.7 200.9 133.7Z" fill="#7C7B7C"/>
<path opacity="0.5" d="M200.9 133.7C217.192 133.7 230.4 120.493 230.4 104.2C230.4 87.9078 217.192 74.7002 200.9 74.7002C184.608 74.7002 171.4 87.9078 171.4 104.2C171.4 120.493 184.608 133.7 200.9 133.7Z" fill="#7C7C7D"/>
<path opacity="0.5" d="M201 133.7C217.292 133.7 230.5 120.493 230.5 104.2C230.5 87.9078 217.292 74.7002 201 74.7002C184.708 74.7002 171.5 87.9078 171.5 104.2C171.5 120.493 184.708 133.7 201 133.7Z" fill="#7D7D7E"/>
<path opacity="0.5" d="M201 133.801C217.292 133.801 230.5 120.593 230.5 104.301C230.5 88.0084 217.292 74.8008 201 74.8008C184.708 74.8008 171.5 88.0084 171.5 104.301C171.5 120.593 184.708 133.801 201 133.801Z" fill="#7E7D7F"/>
<path opacity="0.5" d="M201 133.801C217.292 133.801 230.5 120.593 230.5 104.301C230.5 88.0084 217.292 74.8008 201 74.8008C184.708 74.8008 171.5 88.0084 171.5 104.301C171.5 120.593 184.708 133.801 201 133.801Z" fill="#7F7E80"/>
<path opacity="0.5" d="M201 133.801C217.292 133.801 230.5 120.593 230.5 104.301C230.5 88.0084 217.292 74.8008 201 74.8008C184.708 74.8008 171.5 88.0084 171.5 104.301C171.5 120.593 184.708 133.801 201 133.801Z" fill="#807F81"/>
<path opacity="0.5" d="M201 133.801C217.292 133.801 230.5 120.593 230.5 104.301C230.5 88.0084 217.292 74.8008 201 74.8008C184.708 74.8008 171.5 88.0084 171.5 104.301C171.5 120.593 184.708 133.801 201 133.801Z" fill="#808082"/>
<path opacity="0.5" d="M201 133.801C217.292 133.801 230.5 120.593 230.5 104.301C230.5 88.0084 217.292 74.8008 201 74.8008C184.708 74.8008 171.5 88.0084 171.5 104.301C171.5 120.593 184.708 133.801 201 133.801Z" fill="#818182"/>
<path opacity="0.5" d="M201.1 133.9C217.392 133.9 230.6 120.693 230.6 104.4C230.6 88.108 217.392 74.9004 201.1 74.9004C184.808 74.9004 171.6 88.108 171.6 104.4C171.6 120.693 184.808 133.9 201.1 133.9Z" fill="#828283"/>
<path opacity="0.5" d="M201.1 133.9C217.392 133.9 230.6 120.693 230.6 104.4C230.6 88.108 217.392 74.9004 201.1 74.9004C184.808 74.9004 171.6 88.108 171.6 104.4C171.6 120.693 184.808 133.9 201.1 133.9Z" fill="#838284"/>
<path opacity="0.5" d="M201.1 133.9C217.392 133.9 230.6 120.693 230.6 104.4C230.6 88.108 217.392 74.9004 201.1 74.9004C184.808 74.9004 171.6 88.108 171.6 104.4C171.6 120.693 184.808 133.9 201.1 133.9Z" fill="#848385"/>
<path opacity="0.5" d="M201.1 133.9C217.392 133.9 230.6 120.693 230.6 104.4C230.6 88.108 217.392 74.9004 201.1 74.9004C184.808 74.9004 171.6 88.108 171.6 104.4C171.6 120.693 184.808 133.9 201.1 133.9Z" fill="#858486"/>
<path opacity="0.5" d="M201.1 133.9C217.392 133.9 230.6 120.693 230.6 104.4C230.6 88.108 217.392 74.9004 201.1 74.9004C184.808 74.9004 171.6 88.108 171.6 104.4C171.6 120.693 184.808 133.9 201.1 133.9Z" fill="#858587"/>
<path opacity="0.5" d="M201.1 133.9C217.392 133.9 230.6 120.693 230.6 104.4C230.6 88.108 217.392 74.9004 201.1 74.9004C184.808 74.9004 171.6 88.108 171.6 104.4C171.6 120.693 184.808 133.9 201.1 133.9Z" fill="#868687"/>
<path opacity="0.5" d="M201.2 134C217.492 134 230.7 120.792 230.7 104.5C230.7 88.2076 217.492 75 201.2 75C184.907 75 171.7 88.2076 171.7 104.5C171.7 120.792 184.907 134 201.2 134Z" fill="#878788"/>
<path opacity="0.5" d="M201.2 134C217.492 134 230.7 120.792 230.7 104.5C230.7 88.2076 217.492 75 201.2 75C184.907 75 171.7 88.2076 171.7 104.5C171.7 120.792 184.907 134 201.2 134Z" fill="#888789"/>
<path opacity="0.5" d="M201.2 134C217.492 134 230.7 120.792 230.7 104.5C230.7 88.2076 217.492 75 201.2 75C184.907 75 171.7 88.2076 171.7 104.5C171.7 120.792 184.907 134 201.2 134Z" fill="#89888A"/>
<path opacity="0.5" d="M201.2 134C217.492 134 230.7 120.792 230.7 104.5C230.7 88.2076 217.492 75 201.2 75C184.907 75 171.7 88.2076 171.7 104.5C171.7 120.792 184.907 134 201.2 134Z" fill="#89898B"/>
<path opacity="0.5" d="M201.2 134C217.492 134 230.7 120.792 230.7 104.5C230.7 88.2076 217.492 75 201.2 75C184.907 75 171.7 88.2076 171.7 104.5C171.7 120.792 184.907 134 201.2 134Z" fill="#8A8A8C"/>
<path opacity="0.5" d="M201.2 134.101C217.492 134.101 230.7 120.893 230.7 104.601C230.7 88.3082 217.492 75.1006 201.2 75.1006C184.907 75.1006 171.7 88.3082 171.7 104.601C171.7 120.893 184.907 134.101 201.2 134.101Z" fill="#8B8B8C"/>
<path opacity="0.5" d="M201.3 134.101C217.592 134.101 230.8 120.893 230.8 104.601C230.8 88.3082 217.592 75.1006 201.3 75.1006C185.007 75.1006 171.8 88.3082 171.8 104.601C171.8 120.893 185.007 134.101 201.3 134.101Z" fill="#8C8C8D"/>
<path opacity="0.5" d="M201.3 134.101C217.592 134.101 230.8 120.893 230.8 104.601C230.8 88.3082 217.592 75.1006 201.3 75.1006C185.007 75.1006 171.8 88.3082 171.8 104.601C171.8 120.893 185.007 134.101 201.3 134.101Z" fill="#8D8C8E"/>
<path opacity="0.5" d="M201.3 134.101C217.592 134.101 230.8 120.893 230.8 104.601C230.8 88.3082 217.592 75.1006 201.3 75.1006C185.007 75.1006 171.8 88.3082 171.8 104.601C171.8 120.893 185.007 134.101 201.3 134.101Z" fill="#8D8D8F"/>
<path opacity="0.5" d="M201.3 134.101C217.592 134.101 230.8 120.893 230.8 104.601C230.8 88.3082 217.592 75.1006 201.3 75.1006C185.007 75.1006 171.8 88.3082 171.8 104.601C171.8 120.893 185.007 134.101 201.3 134.101Z" fill="#8E8E90"/>
<path opacity="0.5" d="M201.3 134.2C217.592 134.2 230.8 120.993 230.8 104.7C230.8 88.4078 217.592 75.2002 201.3 75.2002C185.007 75.2002 171.8 88.4078 171.8 104.7C171.8 120.993 185.007 134.2 201.3 134.2Z" fill="#8F8F91"/>
<path opacity="0.5" d="M201.3 134.101C217.537 134.101 230.7 120.938 230.7 104.701C230.7 88.4636 217.537 75.3008 201.3 75.3008C185.063 75.3008 171.9 88.4636 171.9 104.701C171.9 120.938 185.063 134.101 201.3 134.101Z" fill="#909092"/>
<path opacity="0.5" d="M201.4 134.101C217.637 134.101 230.8 120.938 230.8 104.701C230.8 88.4636 217.637 75.3008 201.4 75.3008C185.163 75.3008 172 88.4636 172 104.701C172 120.938 185.163 134.101 201.4 134.101Z" fill="#919192"/>
<path opacity="0.5" d="M201.4 134.101C217.637 134.101 230.8 120.938 230.8 104.701C230.8 88.4636 217.637 75.3008 201.4 75.3008C185.163 75.3008 172 88.4636 172 104.701C172 120.938 185.163 134.101 201.4 134.101Z" fill="#919293"/>
<path opacity="0.5" d="M201.4 134.101C217.637 134.101 230.8 120.938 230.8 104.701C230.8 88.4636 217.637 75.3008 201.4 75.3008C185.163 75.3008 172 88.4636 172 104.701C172 120.938 185.163 134.101 201.4 134.101Z" fill="#929294"/>
<path opacity="0.5" d="M201.4 134.101C217.637 134.101 230.8 120.938 230.8 104.701C230.8 88.4636 217.637 75.3008 201.4 75.3008C185.163 75.3008 172 88.4636 172 104.701C172 120.938 185.163 134.101 201.4 134.101Z" fill="#939395"/>
<path opacity="0.5" d="M201.4 134.2C217.637 134.2 230.8 121.038 230.8 104.8C230.8 88.5632 217.637 75.4004 201.4 75.4004C185.163 75.4004 172 88.5632 172 104.8C172 121.038 185.163 134.2 201.4 134.2Z" fill="#949496"/>
<path opacity="0.5" d="M201.4 134.2C217.637 134.2 230.8 121.038 230.8 104.8C230.8 88.5632 217.637 75.4004 201.4 75.4004C185.163 75.4004 172 88.5632 172 104.8C172 121.038 185.163 134.2 201.4 134.2Z" fill="#959597"/>
<path opacity="0.5" d="M201.4 134.2C217.637 134.2 230.8 121.038 230.8 104.8C230.8 88.5632 217.637 75.4004 201.4 75.4004C185.163 75.4004 172 88.5632 172 104.8C172 121.038 185.163 134.2 201.4 134.2Z" fill="#959697"/>
<path opacity="0.5" d="M201.5 134.2C217.737 134.2 230.9 121.038 230.9 104.8C230.9 88.5632 217.737 75.4004 201.5 75.4004C185.263 75.4004 172.1 88.5632 172.1 104.8C172.1 121.038 185.263 134.2 201.5 134.2Z" fill="#969798"/>
<path opacity="0.5" d="M201.5 134.2C217.737 134.2 230.9 121.038 230.9 104.8C230.9 88.5632 217.737 75.4004 201.5 75.4004C185.263 75.4004 172.1 88.5632 172.1 104.8C172.1 121.038 185.263 134.2 201.5 134.2Z" fill="#979799"/>
<path opacity="0.5" d="M201.5 134.3C217.737 134.3 230.9 121.137 230.9 104.9C230.9 88.6628 217.737 75.5 201.5 75.5C185.263 75.5 172.1 88.6628 172.1 104.9C172.1 121.137 185.263 134.3 201.5 134.3Z" fill="#98989A"/>
<path opacity="0.5" d="M201.5 134.3C217.737 134.3 230.9 121.137 230.9 104.9C230.9 88.6628 217.737 75.5 201.5 75.5C185.263 75.5 172.1 88.6628 172.1 104.9C172.1 121.137 185.263 134.3 201.5 134.3Z" fill="#99999B"/>
<path opacity="0.5" d="M201.5 134.3C217.737 134.3 230.9 121.137 230.9 104.9C230.9 88.6628 217.737 75.5 201.5 75.5C185.263 75.5 172.1 88.6628 172.1 104.9C172.1 121.137 185.263 134.3 201.5 134.3Z" fill="#999A9C"/>
<path opacity="0.5" d="M201.5 134.3C217.737 134.3 230.9 121.137 230.9 104.9C230.9 88.6628 217.737 75.5 201.5 75.5C185.263 75.5 172.1 88.6628 172.1 104.9C172.1 121.137 185.263 134.3 201.5 134.3Z" fill="#9A9B9C"/>
<path opacity="0.5" d="M201.6 134.3C217.837 134.3 231 121.137 231 104.9C231 88.6628 217.837 75.5 201.6 75.5C185.363 75.5 172.2 88.6628 172.2 104.9C172.2 121.137 185.363 134.3 201.6 134.3Z" fill="#9B9C9D"/>
<path opacity="0.5" d="M201.6 134.401C217.837 134.401 231 121.238 231 105.001C231 88.7634 217.837 75.6006 201.6 75.6006C185.363 75.6006 172.2 88.7634 172.2 105.001C172.2 121.238 185.363 134.401 201.6 134.401Z" fill="#9C9C9E"/>
<path opacity="0.5" d="M201.6 134.401C217.837 134.401 231 121.238 231 105.001C231 88.7634 217.837 75.6006 201.6 75.6006C185.363 75.6006 172.2 88.7634 172.2 105.001C172.2 121.238 185.363 134.401 201.6 134.401Z" fill="#9D9D9F"/>
<path opacity="0.5" d="M201.6 134.401C217.837 134.401 231 121.238 231 105.001C231 88.7634 217.837 75.6006 201.6 75.6006C185.363 75.6006 172.2 88.7634 172.2 105.001C172.2 121.238 185.363 134.401 201.6 134.401Z" fill="#9E9EA0"/>
<path opacity="0.5" d="M201.6 134.401C217.837 134.401 231 121.238 231 105.001C231 88.7634 217.837 75.6006 201.6 75.6006C185.363 75.6006 172.2 88.7634 172.2 105.001C172.2 121.238 185.363 134.401 201.6 134.401Z" fill="#9E9FA1"/>
<path opacity="0.5" d="M201.6 134.401C217.837 134.401 231 121.238 231 105.001C231 88.7634 217.837 75.6006 201.6 75.6006C185.363 75.6006 172.2 88.7634 172.2 105.001C172.2 121.238 185.363 134.401 201.6 134.401Z" fill="#9FA0A1"/>
<path opacity="0.5" d="M201.7 134.401C217.937 134.401 231.1 121.238 231.1 105.001C231.1 88.7634 217.937 75.6006 201.7 75.6006C185.463 75.6006 172.3 88.7634 172.3 105.001C172.3 121.238 185.463 134.401 201.7 134.401Z" fill="#A0A1A2"/>
<path opacity="0.5" d="M201.7 134.5C217.937 134.5 231.1 121.337 231.1 105.1C231.1 88.863 217.937 75.7002 201.7 75.7002C185.463 75.7002 172.3 88.863 172.3 105.1C172.3 121.337 185.463 134.5 201.7 134.5Z" fill="#A1A1A3"/>
<path opacity="0.5" d="M201.7 134.5C217.937 134.5 231.1 121.337 231.1 105.1C231.1 88.863 217.937 75.7002 201.7 75.7002C185.463 75.7002 172.3 88.863 172.3 105.1C172.3 121.337 185.463 134.5 201.7 134.5Z" fill="#A2A2A4"/>
<path opacity="0.5" d="M201.7 134.5C217.937 134.5 231.1 121.337 231.1 105.1C231.1 88.863 217.937 75.7002 201.7 75.7002C185.463 75.7002 172.3 88.863 172.3 105.1C172.3 121.337 185.463 134.5 201.7 134.5Z" fill="#A2A3A5"/>
<path opacity="0.5" d="M201.7 134.5C217.937 134.5 231.1 121.337 231.1 105.1C231.1 88.863 217.937 75.7002 201.7 75.7002C185.463 75.7002 172.3 88.863 172.3 105.1C172.3 121.337 185.463 134.5 201.7 134.5Z" fill="#A3A4A6"/>
<path opacity="0.5" d="M201.7 134.5C217.937 134.5 231.1 121.337 231.1 105.1C231.1 88.863 217.937 75.7002 201.7 75.7002C185.463 75.7002 172.3 88.863 172.3 105.1C172.3 121.337 185.463 134.5 201.7 134.5Z" fill="#A4A5A7"/>
<path opacity="0.5" d="M201.8 134.601C218.037 134.601 231.2 121.438 231.2 105.201C231.2 88.9636 218.037 75.8008 201.8 75.8008C185.563 75.8008 172.4 88.9636 172.4 105.201C172.4 121.438 185.563 134.601 201.8 134.601Z" fill="#A5A6A7"/>
<path opacity="0.5" d="M201.8 134.601C218.037 134.601 231.2 121.438 231.2 105.201C231.2 88.9636 218.037 75.8008 201.8 75.8008C185.563 75.8008 172.4 88.9636 172.4 105.201C172.4 121.438 185.563 134.601 201.8 134.601Z" fill="#A6A6A8"/>
<path opacity="0.5" d="M201.8 134.601C218.037 134.601 231.2 121.438 231.2 105.201C231.2 88.9636 218.037 75.8008 201.8 75.8008C185.563 75.8008 172.4 88.9636 172.4 105.201C172.4 121.438 185.563 134.601 201.8 134.601Z" fill="#A6A7A9"/>
<path opacity="0.5" d="M201.8 134.601C218.037 134.601 231.2 121.438 231.2 105.201C231.2 88.9636 218.037 75.8008 201.8 75.8008C185.563 75.8008 172.4 88.9636 172.4 105.201C172.4 121.438 185.563 134.601 201.8 134.601Z" fill="#A7A8AA"/>
<path opacity="0.5" d="M201.8 134.601C218.037 134.601 231.2 121.438 231.2 105.201C231.2 88.9636 218.037 75.8008 201.8 75.8008C185.563 75.8008 172.4 88.9636 172.4 105.201C172.4 121.438 185.563 134.601 201.8 134.601Z" fill="#A8A9AB"/>
<path opacity="0.5" d="M201.8 134.7C218.037 134.7 231.2 121.538 231.2 105.3C231.2 89.0632 218.037 75.9004 201.8 75.9004C185.563 75.9004 172.4 89.0632 172.4 105.3C172.4 121.538 185.563 134.7 201.8 134.7Z" fill="#A9AAAC"/>
<path opacity="0.5" d="M201.9 134.7C218.137 134.7 231.3 121.538 231.3 105.3C231.3 89.0632 218.137 75.9004 201.9 75.9004C185.663 75.9004 172.5 89.0632 172.5 105.3C172.5 121.538 185.663 134.7 201.9 134.7Z" fill="#AAABAC"/>
<path opacity="0.5" d="M201.9 134.7C218.137 134.7 231.3 121.538 231.3 105.3C231.3 89.0632 218.137 75.9004 201.9 75.9004C185.663 75.9004 172.5 89.0632 172.5 105.3C172.5 121.538 185.663 134.7 201.9 134.7Z" fill="#AAABAD"/>
<path opacity="0.5" d="M201.9 134.6C218.082 134.6 231.2 121.482 231.2 105.3C231.2 89.1181 218.082 76 201.9 76C185.718 76 172.6 89.1181 172.6 105.3C172.6 121.482 185.718 134.6 201.9 134.6Z" fill="#ABACAE"/>
<path opacity="0.5" d="M201.9 134.6C218.082 134.6 231.2 121.482 231.2 105.3C231.2 89.1181 218.082 76 201.9 76C185.718 76 172.6 89.1181 172.6 105.3C172.6 121.482 185.718 134.6 201.9 134.6Z" fill="#ACADAF"/>
<path opacity="0.5" d="M201.9 134.6C218.082 134.6 231.2 121.482 231.2 105.3C231.2 89.1181 218.082 76 201.9 76C185.718 76 172.6 89.1181 172.6 105.3C172.6 121.482 185.718 134.6 201.9 134.6Z" fill="#ADAEB0"/>
<path opacity="0.5" d="M201.9 134.701C218.082 134.701 231.2 121.583 231.2 105.401C231.2 89.2186 218.082 76.1006 201.9 76.1006C185.718 76.1006 172.6 89.2186 172.6 105.401C172.6 121.583 185.718 134.701 201.9 134.701Z" fill="#AEAFB1"/>
<path opacity="0.5" d="M201.9 134.701C218.082 134.701 231.2 121.583 231.2 105.401C231.2 89.2186 218.082 76.1006 201.9 76.1006C185.718 76.1006 172.6 89.2186 172.6 105.401C172.6 121.583 185.718 134.701 201.9 134.701Z" fill="#AEB0B1"/>
<path opacity="0.5" d="M202 134.701C218.182 134.701 231.3 121.583 231.3 105.401C231.3 89.2186 218.182 76.1006 202 76.1006C185.818 76.1006 172.7 89.2186 172.7 105.401C172.7 121.583 185.818 134.701 202 134.701Z" fill="#AFB0B2"/>
<path opacity="0.5" d="M202 134.701C218.182 134.701 231.3 121.583 231.3 105.401C231.3 89.2186 218.182 76.1006 202 76.1006C185.818 76.1006 172.7 89.2186 172.7 105.401C172.7 121.583 185.818 134.701 202 134.701Z" fill="#B0B1B3"/>
<path opacity="0.5" d="M202 134.701C218.182 134.701 231.3 121.583 231.3 105.401C231.3 89.2186 218.182 76.1006 202 76.1006C185.818 76.1006 172.7 89.2186 172.7 105.401C172.7 121.583 185.818 134.701 202 134.701Z" fill="#B1B2B4"/>
<path opacity="0.5" d="M202 134.8C218.182 134.8 231.3 121.682 231.3 105.5C231.3 89.3183 218.182 76.2002 202 76.2002C185.818 76.2002 172.7 89.3183 172.7 105.5C172.7 121.682 185.818 134.8 202 134.8Z" fill="#B2B3B5"/>
<path opacity="0.5" d="M202 134.8C218.182 134.8 231.3 121.682 231.3 105.5C231.3 89.3183 218.182 76.2002 202 76.2002C185.818 76.2002 172.7 89.3183 172.7 105.5C172.7 121.682 185.818 134.8 202 134.8Z" fill="#B2B4B6"/>
<path opacity="0.5" d="M202 134.8C218.182 134.8 231.3 121.682 231.3 105.5C231.3 89.3183 218.182 76.2002 202 76.2002C185.818 76.2002 172.7 89.3183 172.7 105.5C172.7 121.682 185.818 134.8 202 134.8Z" fill="#B3B5B7"/>
<path opacity="0.5" d="M202.1 134.8C218.282 134.8 231.4 121.682 231.4 105.5C231.4 89.3183 218.282 76.2002 202.1 76.2002C185.918 76.2002 172.8 89.3183 172.8 105.5C172.8 121.682 185.918 134.8 202.1 134.8Z" fill="#B4B5B7"/>
<path opacity="0.5" d="M202.1 134.8C218.282 134.8 231.4 121.682 231.4 105.5C231.4 89.3183 218.282 76.2002 202.1 76.2002C185.918 76.2002 172.8 89.3183 172.8 105.5C172.8 121.682 185.918 134.8 202.1 134.8Z" fill="#B5B6B8"/>
<path opacity="0.5" d="M202.1 134.8C218.282 134.8 231.4 121.682 231.4 105.5C231.4 89.3183 218.282 76.2002 202.1 76.2002C185.918 76.2002 172.8 89.3183 172.8 105.5C172.8 121.682 185.918 134.8 202.1 134.8Z" fill="#B6B7B9"/>
<path opacity="0.5" d="M202.1 134.901C218.282 134.901 231.4 121.783 231.4 105.601C231.4 89.4188 218.282 76.3008 202.1 76.3008C185.918 76.3008 172.8 89.4188 172.8 105.601C172.8 121.783 185.918 134.901 202.1 134.901Z" fill="#B6B8BA"/>
<path opacity="0.5" d="M202.1 134.901C218.282 134.901 231.4 121.783 231.4 105.601C231.4 89.4188 218.282 76.3008 202.1 76.3008C185.918 76.3008 172.8 89.4188 172.8 105.601C172.8 121.783 185.918 134.901 202.1 134.901Z" fill="#B7B9BB"/>
<path opacity="0.5" d="M202.1 134.901C218.282 134.901 231.4 121.783 231.4 105.601C231.4 89.4188 218.282 76.3008 202.1 76.3008C185.918 76.3008 172.8 89.4188 172.8 105.601C172.8 121.783 185.918 134.901 202.1 134.901Z" fill="#B8BABC"/>
<path opacity="0.5" d="M202.2 134.901C218.382 134.901 231.5 121.783 231.5 105.601C231.5 89.4188 218.382 76.3008 202.2 76.3008C186.018 76.3008 172.9 89.4188 172.9 105.601C172.9 121.783 186.018 134.901 202.2 134.901Z" fill="#B9BABC"/>
<path opacity="0.5" d="M202.2 134.901C218.382 134.901 231.5 121.783 231.5 105.601C231.5 89.4188 218.382 76.3008 202.2 76.3008C186.018 76.3008 172.9 89.4188 172.9 105.601C172.9 121.783 186.018 134.901 202.2 134.901Z" fill="#BABBBD"/>
<path opacity="0.5" d="M202.2 135C218.382 135 231.5 121.882 231.5 105.7C231.5 89.5184 218.382 76.4004 202.2 76.4004C186.018 76.4004 172.9 89.5184 172.9 105.7C172.9 121.882 186.018 135 202.2 135Z" fill="#BBBCBE"/>
<path opacity="0.5" d="M202.2 135C218.382 135 231.5 121.882 231.5 105.7C231.5 89.5184 218.382 76.4004 202.2 76.4004C186.018 76.4004 172.9 89.5184 172.9 105.7C172.9 121.882 186.018 135 202.2 135Z" fill="#BBBDBF"/>
<path opacity="0.5" d="M202.2 135C218.382 135 231.5 121.882 231.5 105.7C231.5 89.5184 218.382 76.4004 202.2 76.4004C186.018 76.4004 172.9 89.5184 172.9 105.7C172.9 121.882 186.018 135 202.2 135Z" fill="#BCBEC0"/>
<path opacity="0.5" d="M202.2 135C218.382 135 231.5 121.882 231.5 105.7C231.5 89.5184 218.382 76.4004 202.2 76.4004C186.018 76.4004 172.9 89.5184 172.9 105.7C172.9 121.882 186.018 135 202.2 135Z" fill="#BDBFC1"/>
<path opacity="0.5" d="M202.3 135C218.482 135 231.6 121.882 231.6 105.7C231.6 89.5184 218.482 76.4004 202.3 76.4004C186.118 76.4004 173 89.5184 173 105.7C173 121.882 186.118 135 202.3 135Z" fill="#BEBFC1"/>
<path opacity="0.5" d="M202.3 135.1C218.482 135.1 231.6 121.982 231.6 105.8C231.6 89.6181 218.482 76.5 202.3 76.5C186.118 76.5 173 89.6181 173 105.8C173 121.982 186.118 135.1 202.3 135.1Z" fill="#BFC0C2"/>
<path opacity="0.5" d="M202.3 135.1C218.482 135.1 231.6 121.982 231.6 105.8C231.6 89.6181 218.482 76.5 202.3 76.5C186.118 76.5 173 89.6181 173 105.8C173 121.982 186.118 135.1 202.3 135.1Z" fill="#BFC1C3"/>
<path opacity="0.5" d="M202.3 135.1C218.482 135.1 231.6 121.982 231.6 105.8C231.6 89.6181 218.482 76.5 202.3 76.5C186.118 76.5 173 89.6181 173 105.8C173 121.982 186.118 135.1 202.3 135.1Z" fill="#C0C2C4"/>
<path opacity="0.5" d="M202.3 135.1C218.482 135.1 231.6 121.982 231.6 105.8C231.6 89.6181 218.482 76.5 202.3 76.5C186.118 76.5 173 89.6181 173 105.8C173 121.982 186.118 135.1 202.3 135.1Z" fill="#C1C3C5"/>
<path opacity="0.5" d="M202.3 135.1C218.482 135.1 231.6 121.982 231.6 105.8C231.6 89.6181 218.482 76.5 202.3 76.5C186.118 76.5 173 89.6181 173 105.8C173 121.982 186.118 135.1 202.3 135.1Z" fill="#C2C4C6"/>
<path opacity="0.5" d="M202.4 135.1C218.582 135.1 231.7 121.982 231.7 105.8C231.7 89.6181 218.582 76.5 202.4 76.5C186.218 76.5 173.1 89.6181 173.1 105.8C173.1 121.982 186.218 135.1 202.4 135.1Z" fill="#C3C4C6"/>
<path opacity="0.5" d="M202.4 135.201C218.582 135.201 231.7 122.083 231.7 105.901C231.7 89.7186 218.582 76.6006 202.4 76.6006C186.218 76.6006 173.1 89.7186 173.1 105.901C173.1 122.083 186.218 135.201 202.4 135.201Z" fill="#C3C5C7"/>
<path opacity="0.5" d="M202.4 135.201C218.582 135.201 231.7 122.083 231.7 105.901C231.7 89.7186 218.582 76.6006 202.4 76.6006C186.218 76.6006 173.1 89.7186 173.1 105.901C173.1 122.083 186.218 135.201 202.4 135.201Z" fill="#C4C6C8"/>
<path opacity="0.5" d="M202.4 135.201C218.582 135.201 231.7 122.083 231.7 105.901C231.7 89.7186 218.582 76.6006 202.4 76.6006C186.218 76.6006 173.1 89.7186 173.1 105.901C173.1 122.083 186.218 135.201 202.4 135.201Z" fill="#C5C7C9"/>
<path opacity="0.995" d="M202.4 135.201C218.582 135.201 231.7 122.083 231.7 105.901C231.7 89.7186 218.582 76.6006 202.4 76.6006C186.218 76.6006 173.1 89.7186 173.1 105.901C173.1 122.083 186.218 135.201 202.4 135.201Z" fill="#C5C7C9"/>
<path opacity="0.9901" d="M202.4 135.201C218.582 135.201 231.7 122.083 231.7 105.901C231.7 89.7186 218.582 76.6006 202.4 76.6006C186.218 76.6006 173.1 89.7186 173.1 105.901C173.1 122.083 186.218 135.201 202.4 135.201Z" fill="#C6C8CA"/>
<path opacity="0.9851" d="M202.4 135.3C218.582 135.3 231.7 122.182 231.7 106C231.7 89.8183 218.582 76.7002 202.4 76.7002C186.218 76.7002 173.1 89.8183 173.1 106C173.1 122.182 186.218 135.3 202.4 135.3Z" fill="#C6C8CA"/>
<path opacity="0.9801" d="M202.5 135.3C218.682 135.3 231.8 122.182 231.8 106C231.8 89.8183 218.682 76.7002 202.5 76.7002C186.318 76.7002 173.2 89.8183 173.2 106C173.2 122.182 186.318 135.3 202.5 135.3Z" fill="#C6C8CA"/>
<path opacity="0.9751" d="M202.5 135.3C218.682 135.3 231.8 122.182 231.8 106C231.8 89.8183 218.682 76.7002 202.5 76.7002C186.318 76.7002 173.2 89.8183 173.2 106C173.2 122.182 186.318 135.3 202.5 135.3Z" fill="#C6C8CA"/>
<path opacity="0.9701" d="M202.5 135.3C218.682 135.3 231.8 122.182 231.8 106C231.8 89.8183 218.682 76.7002 202.5 76.7002C186.318 76.7002 173.2 89.8183 173.2 106C173.2 122.182 186.318 135.3 202.5 135.3Z" fill="#C7C9CB"/>
<path opacity="0.9652" d="M202.5 135.3C218.682 135.3 231.8 122.182 231.8 106C231.8 89.8183 218.682 76.7002 202.5 76.7002C186.318 76.7002 173.2 89.8183 173.2 106C173.2 122.182 186.318 135.3 202.5 135.3Z" fill="#C7C9CB"/>
<path opacity="0.9602" d="M202.5 135.3C218.682 135.3 231.8 122.182 231.8 106C231.8 89.8183 218.682 76.7002 202.5 76.7002C186.318 76.7002 173.2 89.8183 173.2 106C173.2 122.182 186.318 135.3 202.5 135.3Z" fill="#C7C9CB"/>
<path opacity="0.9552" d="M202.5 135.401C218.682 135.401 231.8 122.283 231.8 106.101C231.8 89.9188 218.682 76.8008 202.5 76.8008C186.318 76.8008 173.2 89.9188 173.2 106.101C173.2 122.283 186.318 135.401 202.5 135.401Z" fill="#C8CACB"/>
<path opacity="0.9502" d="M202.5 135.401C218.682 135.401 231.8 122.283 231.8 106.101C231.8 89.9188 218.682 76.8008 202.5 76.8008C186.318 76.8008 173.2 89.9188 173.2 106.101C173.2 122.283 186.318 135.401 202.5 135.401Z" fill="#C8CACC"/>
<path opacity="0.9453" d="M202.6 135.401C218.782 135.401 231.9 122.283 231.9 106.101C231.9 89.9188 218.782 76.8008 202.6 76.8008C186.418 76.8008 173.3 89.9188 173.3 106.101C173.3 122.283 186.418 135.401 202.6 135.401Z" fill="#C8CACC"/>
<path opacity="0.9403" d="M202.6 135.401C218.782 135.401 231.9 122.283 231.9 106.101C231.9 89.9188 218.782 76.8008 202.6 76.8008C186.418 76.8008 173.3 89.9188 173.3 106.101C173.3 122.283 186.418 135.401 202.6 135.401Z" fill="#C8CACC"/>
<path opacity="0.9353" d="M202.6 135.401C218.782 135.401 231.9 122.283 231.9 106.101C231.9 89.9188 218.782 76.8008 202.6 76.8008C186.418 76.8008 173.3 89.9188 173.3 106.101C173.3 122.283 186.418 135.401 202.6 135.401Z" fill="#C9CBCC"/>
<path opacity="0.9303" d="M202.6 135.401C218.782 135.401 231.9 122.283 231.9 106.101C231.9 89.9188 218.782 76.8008 202.6 76.8008C186.418 76.8008 173.3 89.9188 173.3 106.101C173.3 122.283 186.418 135.401 202.6 135.401Z" fill="#C9CBCD"/>
<path opacity="0.9254" d="M202.6 135.5C218.782 135.5 231.9 122.382 231.9 106.2C231.9 90.0184 218.782 76.9004 202.6 76.9004C186.418 76.9004 173.3 90.0184 173.3 106.2C173.3 122.382 186.418 135.5 202.6 135.5Z" fill="#C9CBCD"/>
<path opacity="0.9204" d="M202.6 135.5C218.782 135.5 231.9 122.382 231.9 106.2C231.9 90.0184 218.782 76.9004 202.6 76.9004C186.418 76.9004 173.3 90.0184 173.3 106.2C173.3 122.382 186.418 135.5 202.6 135.5Z" fill="#CACBCD"/>
<path opacity="0.9154" d="M202.6 135.5C218.782 135.5 231.9 122.382 231.9 106.2C231.9 90.0184 218.782 76.9004 202.6 76.9004C186.418 76.9004 173.3 90.0184 173.3 106.2C173.3 122.382 186.418 135.5 202.6 135.5Z" fill="#CACCCE"/>
<path opacity="0.9104" d="M202.7 135.5C218.882 135.5 232 122.382 232 106.2C232 90.0184 218.882 76.9004 202.7 76.9004C186.518 76.9004 173.4 90.0184 173.4 106.2C173.4 122.382 186.518 135.5 202.7 135.5Z" fill="#CACCCE"/>
<path opacity="0.9055" d="M202.7 135.5C218.882 135.5 232 122.382 232 106.2C232 90.0184 218.882 76.9004 202.7 76.9004C186.518 76.9004 173.4 90.0184 173.4 106.2C173.4 122.382 186.518 135.5 202.7 135.5Z" fill="#CACCCE"/>
<path opacity="0.9005" d="M202.7 135.5C218.882 135.5 232 122.382 232 106.2C232 90.0184 218.882 76.9004 202.7 76.9004C186.518 76.9004 173.4 90.0184 173.4 106.2C173.4 122.382 186.518 135.5 202.7 135.5Z" fill="#CBCDCE"/>
<path opacity="0.8955" d="M202.7 135.6C218.882 135.6 232 122.482 232 106.3C232 90.1181 218.882 77 202.7 77C186.518 77 173.4 90.1181 173.4 106.3C173.4 122.482 186.518 135.6 202.7 135.6Z" fill="#CBCDCF"/>
<path opacity="0.8905" d="M202.7 135.6C218.882 135.6 232 122.482 232 106.3C232 90.1181 218.882 77 202.7 77C186.518 77 173.4 90.1181 173.4 106.3C173.4 122.482 186.518 135.6 202.7 135.6Z" fill="#CBCDCF"/>
<path opacity="0.8856" d="M202.7 135.6C218.882 135.6 232 122.482 232 106.3C232 90.1181 218.882 77 202.7 77C186.518 77 173.4 90.1181 173.4 106.3C173.4 122.482 186.518 135.6 202.7 135.6Z" fill="#CCCDCF"/>
<path opacity="0.8806" d="M202.7 135.6C218.882 135.6 232 122.482 232 106.3C232 90.1181 218.882 77 202.7 77C186.518 77 173.4 90.1181 173.4 106.3C173.4 122.482 186.518 135.6 202.7 135.6Z" fill="#CCCECF"/>
<path opacity="0.8756" d="M202.8 135.6C218.982 135.6 232.1 122.482 232.1 106.3C232.1 90.1181 218.982 77 202.8 77C186.618 77 173.5 90.1181 173.5 106.3C173.5 122.482 186.618 135.6 202.8 135.6Z" fill="#CCCED0"/>
<path opacity="0.8706" d="M202.8 135.6C218.982 135.6 232.1 122.482 232.1 106.3C232.1 90.1181 218.982 77 202.8 77C186.618 77 173.5 90.1181 173.5 106.3C173.5 122.482 186.618 135.6 202.8 135.6Z" fill="#CDCED0"/>
<path opacity="0.8657" d="M202.8 135.701C218.982 135.701 232.1 122.583 232.1 106.401C232.1 90.2186 218.982 77.1006 202.8 77.1006C186.618 77.1006 173.5 90.2186 173.5 106.401C173.5 122.583 186.618 135.701 202.8 135.701Z" fill="#CDCFD0"/>
<path opacity="0.8607" d="M202.8 135.701C218.982 135.701 232.1 122.583 232.1 106.401C232.1 90.2186 218.982 77.1006 202.8 77.1006C186.618 77.1006 173.5 90.2186 173.5 106.401C173.5 122.583 186.618 135.701 202.8 135.701Z" fill="#CDCFD1"/>
<path opacity="0.8557" d="M202.8 135.701C218.982 135.701 232.1 122.583 232.1 106.401C232.1 90.2186 218.982 77.1006 202.8 77.1006C186.618 77.1006 173.5 90.2186 173.5 106.401C173.5 122.583 186.618 135.701 202.8 135.701Z" fill="#CDCFD1"/>
<path opacity="0.8507" d="M202.8 135.701C218.982 135.701 232.1 122.583 232.1 106.401C232.1 90.2186 218.982 77.1006 202.8 77.1006C186.618 77.1006 173.5 90.2186 173.5 106.401C173.5 122.583 186.618 135.701 202.8 135.701Z" fill="#CECFD1"/>
<path opacity="0.8458" d="M202.8 135.701C218.982 135.701 232.1 122.583 232.1 106.401C232.1 90.2186 218.982 77.1006 202.8 77.1006C186.618 77.1006 173.5 90.2186 173.5 106.401C173.5 122.583 186.618 135.701 202.8 135.701Z" fill="#CED0D1"/>
<path opacity="0.8408" d="M202.8 135.701C218.982 135.701 232.1 122.583 232.1 106.401C232.1 90.2186 218.982 77.1006 202.8 77.1006C186.618 77.1006 173.5 90.2186 173.5 106.401C173.5 122.583 186.618 135.701 202.8 135.701Z" fill="#CED0D2"/>
<path opacity="0.8358" d="M202.9 135.8C219.082 135.8 232.2 122.682 232.2 106.5C232.2 90.3183 219.082 77.2002 202.9 77.2002C186.718 77.2002 173.6 90.3183 173.6 106.5C173.6 122.682 186.718 135.8 202.9 135.8Z" fill="#CFD0D2"/>
<path opacity="0.8308" d="M202.9 135.8C219.082 135.8 232.2 122.682 232.2 106.5C232.2 90.3183 219.082 77.2002 202.9 77.2002C186.718 77.2002 173.6 90.3183 173.6 106.5C173.6 122.682 186.718 135.8 202.9 135.8Z" fill="#CFD0D2"/>
<path opacity="0.8259" d="M202.9 135.8C219.082 135.8 232.2 122.682 232.2 106.5C232.2 90.3183 219.082 77.2002 202.9 77.2002C186.718 77.2002 173.6 90.3183 173.6 106.5C173.6 122.682 186.718 135.8 202.9 135.8Z" fill="#CFD1D2"/>
<path opacity="0.8209" d="M202.9 135.8C219.082 135.8 232.2 122.682 232.2 106.5C232.2 90.3183 219.082 77.2002 202.9 77.2002C186.718 77.2002 173.6 90.3183 173.6 106.5C173.6 122.682 186.718 135.8 202.9 135.8Z" fill="#CFD1D3"/>
<path opacity="0.8159" d="M202.9 135.8C219.082 135.8 232.2 122.682 232.2 106.5C232.2 90.3183 219.082 77.2002 202.9 77.2002C186.718 77.2002 173.6 90.3183 173.6 106.5C173.6 122.682 186.718 135.8 202.9 135.8Z" fill="#D0D1D3"/>
<path opacity="0.8109" d="M202.9 135.8C219.082 135.8 232.2 122.682 232.2 106.5C232.2 90.3183 219.082 77.2002 202.9 77.2002C186.718 77.2002 173.6 90.3183 173.6 106.5C173.6 122.682 186.718 135.8 202.9 135.8Z" fill="#D0D2D3"/>
<path opacity="0.806" d="M202.9 135.901C219.082 135.901 232.2 122.783 232.2 106.601C232.2 90.4188 219.082 77.3008 202.9 77.3008C186.718 77.3008 173.6 90.4188 173.6 106.601C173.6 122.783 186.718 135.901 202.9 135.901Z" fill="#D0D2D3"/>
<path opacity="0.801" d="M203 135.901C219.182 135.901 232.3 122.783 232.3 106.601C232.3 90.4188 219.182 77.3008 203 77.3008C186.818 77.3008 173.7 90.4188 173.7 106.601C173.7 122.783 186.818 135.901 203 135.901Z" fill="#D1D2D4"/>
<path opacity="0.796" d="M203 135.901C219.182 135.901 232.3 122.783 232.3 106.601C232.3 90.4188 219.182 77.3008 203 77.3008C186.818 77.3008 173.7 90.4188 173.7 106.601C173.7 122.783 186.818 135.901 203 135.901Z" fill="#D1D2D4"/>
<path opacity="0.791" d="M203 135.901C219.182 135.901 232.3 122.783 232.3 106.601C232.3 90.4188 219.182 77.3008 203 77.3008C186.818 77.3008 173.7 90.4188 173.7 106.601C173.7 122.783 186.818 135.901 203 135.901Z" fill="#D1D3D4"/>
<path opacity="0.7861" d="M203 135.901C219.182 135.901 232.3 122.783 232.3 106.601C232.3 90.4188 219.182 77.3008 203 77.3008C186.818 77.3008 173.7 90.4188 173.7 106.601C173.7 122.783 186.818 135.901 203 135.901Z" fill="#D1D3D5"/>
<path opacity="0.7811" d="M203 135.901C219.182 135.901 232.3 122.783 232.3 106.601C232.3 90.4188 219.182 77.3008 203 77.3008C186.818 77.3008 173.7 90.4188 173.7 106.601C173.7 122.783 186.818 135.901 203 135.901Z" fill="#D2D3D5"/>
<path opacity="0.7761" d="M203 136C219.182 136 232.3 122.882 232.3 106.7C232.3 90.5184 219.182 77.4004 203 77.4004C186.818 77.4004 173.7 90.5184 173.7 106.7C173.7 122.882 186.818 136 203 136Z" fill="#D2D4D5"/>
<path opacity="0.7711" d="M203 136C219.182 136 232.3 122.882 232.3 106.7C232.3 90.5184 219.182 77.4004 203 77.4004C186.818 77.4004 173.7 90.5184 173.7 106.7C173.7 122.882 186.818 136 203 136Z" fill="#D2D4D5"/>
<path opacity="0.7662" d="M203.1 136C219.282 136 232.4 122.882 232.4 106.7C232.4 90.5184 219.282 77.4004 203.1 77.4004C186.918 77.4004 173.8 90.5184 173.8 106.7C173.8 122.882 186.918 136 203.1 136Z" fill="#D3D4D6"/>
<path opacity="0.7612" d="M203.1 136C219.282 136 232.4 122.882 232.4 106.7C232.4 90.5184 219.282 77.4004 203.1 77.4004C186.918 77.4004 173.8 90.5184 173.8 106.7C173.8 122.882 186.918 136 203.1 136Z" fill="#D3D4D6"/>
<path opacity="0.7562" d="M203.1 136C219.282 136 232.4 122.882 232.4 106.7C232.4 90.5184 219.282 77.4004 203.1 77.4004C186.918 77.4004 173.8 90.5184 173.8 106.7C173.8 122.882 186.918 136 203.1 136Z" fill="#D3D5D6"/>
<path opacity="0.7512" d="M203.1 136C219.282 136 232.4 122.882 232.4 106.7C232.4 90.5184 219.282 77.4004 203.1 77.4004C186.918 77.4004 173.8 90.5184 173.8 106.7C173.8 122.882 186.918 136 203.1 136Z" fill="#D3D5D6"/>
<path opacity="0.7463" d="M203.1 136.1C219.282 136.1 232.4 122.982 232.4 106.8C232.4 90.6181 219.282 77.5 203.1 77.5C186.918 77.5 173.8 90.6181 173.8 106.8C173.8 122.982 186.918 136.1 203.1 136.1Z" fill="#D4D5D7"/>
<path opacity="0.7413" d="M203.1 136.1C219.282 136.1 232.4 122.982 232.4 106.8C232.4 90.6181 219.282 77.5 203.1 77.5C186.918 77.5 173.8 90.6181 173.8 106.8C173.8 122.982 186.918 136.1 203.1 136.1Z" fill="#D4D5D7"/>
<path opacity="0.7363" d="M203.1 136.1C219.282 136.1 232.4 122.982 232.4 106.8C232.4 90.6181 219.282 77.5 203.1 77.5C186.918 77.5 173.8 90.6181 173.8 106.8C173.8 122.982 186.918 136.1 203.1 136.1Z" fill="#D4D6D7"/>
<path opacity="0.7313" d="M203.2 136.1C219.382 136.1 232.5 122.982 232.5 106.8C232.5 90.6181 219.382 77.5 203.2 77.5C187.018 77.5 173.9 90.6181 173.9 106.8C173.9 122.982 187.018 136.1 203.2 136.1Z" fill="#D5D6D8"/>
<path opacity="0.7264" d="M203.2 136.1C219.382 136.1 232.5 122.982 232.5 106.8C232.5 90.6181 219.382 77.5 203.2 77.5C187.018 77.5 173.9 90.6181 173.9 106.8C173.9 122.982 187.018 136.1 203.2 136.1Z" fill="#D5D6D8"/>
<path opacity="0.7214" d="M203.2 136.1C219.382 136.1 232.5 122.982 232.5 106.8C232.5 90.6181 219.382 77.5 203.2 77.5C187.018 77.5 173.9 90.6181 173.9 106.8C173.9 122.982 187.018 136.1 203.2 136.1Z" fill="#D5D7D8"/>
<path opacity="0.7164" d="M203.2 136.201C219.382 136.201 232.5 123.083 232.5 106.901C232.5 90.7186 219.382 77.6006 203.2 77.6006C187.018 77.6006 173.9 90.7186 173.9 106.901C173.9 123.083 187.018 136.201 203.2 136.201Z" fill="#D5D7D8"/>
<path opacity="0.7114" d="M203.2 136.201C219.382 136.201 232.5 123.083 232.5 106.901C232.5 90.7186 219.382 77.6006 203.2 77.6006C187.018 77.6006 173.9 90.7186 173.9 106.901C173.9 123.083 187.018 136.201 203.2 136.201Z" fill="#D6D7D9"/>
<path opacity="0.7065" d="M203.2 136.201C219.382 136.201 232.5 123.083 232.5 106.901C232.5 90.7186 219.382 77.6006 203.2 77.6006C187.018 77.6006 173.9 90.7186 173.9 106.901C173.9 123.083 187.018 136.201 203.2 136.201Z" fill="#D6D7D9"/>
<path opacity="0.7015" d="M203.2 136.201C219.382 136.201 232.5 123.083 232.5 106.901C232.5 90.7186 219.382 77.6006 203.2 77.6006C187.018 77.6006 173.9 90.7186 173.9 106.901C173.9 123.083 187.018 136.201 203.2 136.201Z" fill="#D6D8D9"/>
<path opacity="0.6965" d="M203.3 136.201C219.482 136.201 232.6 123.083 232.6 106.901C232.6 90.7186 219.482 77.6006 203.3 77.6006C187.118 77.6006 174 90.7186 174 106.901C174 123.083 187.118 136.201 203.3 136.201Z" fill="#D7D8D9"/>
<path opacity="0.6915" d="M203.3 136.201C219.482 136.201 232.6 123.083 232.6 106.901C232.6 90.7186 219.482 77.6006 203.3 77.6006C187.118 77.6006 174 90.7186 174 106.901C174 123.083 187.118 136.201 203.3 136.201Z" fill="#D7D8DA"/>
<path opacity="0.6866" d="M203.3 136.3C219.482 136.3 232.6 123.182 232.6 107C232.6 90.8183 219.482 77.7002 203.3 77.7002C187.118 77.7002 174 90.8183 174 107C174 123.182 187.118 136.3 203.3 136.3Z" fill="#D7D9DA"/>
<path opacity="0.6816" d="M203.3 136.3C219.482 136.3 232.6 123.182 232.6 107C232.6 90.8183 219.482 77.7002 203.3 77.7002C187.118 77.7002 174 90.8183 174 107C174 123.182 187.118 136.3 203.3 136.3Z" fill="#D7D9DA"/>
<path opacity="0.6766" d="M203.3 136.3C219.482 136.3 232.6 123.182 232.6 107C232.6 90.8183 219.482 77.7002 203.3 77.7002C187.118 77.7002 174 90.8183 174 107C174 123.182 187.118 136.3 203.3 136.3Z" fill="#D8D9DA"/>
<path opacity="0.6716" d="M203.3 136.3C219.482 136.3 232.6 123.182 232.6 107C232.6 90.8183 219.482 77.7002 203.3 77.7002C187.118 77.7002 174 90.8183 174 107C174 123.182 187.118 136.3 203.3 136.3Z" fill="#D8D9DB"/>
<path opacity="0.6667" d="M203.3 136.3C219.482 136.3 232.6 123.182 232.6 107C232.6 90.8183 219.482 77.7002 203.3 77.7002C187.118 77.7002 174 90.8183 174 107C174 123.182 187.118 136.3 203.3 136.3Z" fill="#D8DADB"/>
<path opacity="0.6617" d="M203.4 136.3C219.582 136.3 232.7 123.182 232.7 107C232.7 90.8183 219.582 77.7002 203.4 77.7002C187.218 77.7002 174.1 90.8183 174.1 107C174.1 123.182 187.218 136.3 203.4 136.3Z" fill="#D9DADB"/>
<path opacity="0.6567" d="M203.4 136.401C219.582 136.401 232.7 123.283 232.7 107.101C232.7 90.9188 219.582 77.8008 203.4 77.8008C187.218 77.8008 174.1 90.9188 174.1 107.101C174.1 123.283 187.218 136.401 203.4 136.401Z" fill="#D9DADC"/>
<path opacity="0.6517" d="M203.4 136.401C219.582 136.401 232.7 123.283 232.7 107.101C232.7 90.9188 219.582 77.8008 203.4 77.8008C187.218 77.8008 174.1 90.9188 174.1 107.101C174.1 123.283 187.218 136.401 203.4 136.401Z" fill="#D9DBDC"/>
<path opacity="0.6468" d="M203.4 136.401C219.582 136.401 232.7 123.283 232.7 107.101C232.7 90.9188 219.582 77.8008 203.4 77.8008C187.218 77.8008 174.1 90.9188 174.1 107.101C174.1 123.283 187.218 136.401 203.4 136.401Z" fill="#D9DBDC"/>
<path opacity="0.6418" d="M203.4 136.401C219.582 136.401 232.7 123.283 232.7 107.101C232.7 90.9188 219.582 77.8008 203.4 77.8008C187.218 77.8008 174.1 90.9188 174.1 107.101C174.1 123.283 187.218 136.401 203.4 136.401Z" fill="#DADBDC"/>
<path opacity="0.6368" d="M203.4 136.401C219.582 136.401 232.7 123.283 232.7 107.101C232.7 90.9188 219.582 77.8008 203.4 77.8008C187.218 77.8008 174.1 90.9188 174.1 107.101C174.1 123.283 187.218 136.401 203.4 136.401Z" fill="#DADBDD"/>
<path opacity="0.6318" d="M203.4 136.401C219.582 136.401 232.7 123.283 232.7 107.101C232.7 90.9188 219.582 77.8008 203.4 77.8008C187.218 77.8008 174.1 90.9188 174.1 107.101C174.1 123.283 187.218 136.401 203.4 136.401Z" fill="#DADCDD"/>
<path opacity="0.6269" d="M203.4 136.5C219.582 136.5 232.7 123.382 232.7 107.2C232.7 91.0184 219.582 77.9004 203.4 77.9004C187.218 77.9004 174.1 91.0184 174.1 107.2C174.1 123.382 187.218 136.5 203.4 136.5Z" fill="#DBDCDD"/>
<path opacity="0.6219" d="M203.5 136.5C219.682 136.5 232.8 123.382 232.8 107.2C232.8 91.0184 219.682 77.9004 203.5 77.9004C187.318 77.9004 174.2 91.0184 174.2 107.2C174.2 123.382 187.318 136.5 203.5 136.5Z" fill="#DBDCDD"/>
<path opacity="0.6169" d="M203.5 136.5C219.682 136.5 232.8 123.382 232.8 107.2C232.8 91.0184 219.682 77.9004 203.5 77.9004C187.318 77.9004 174.2 91.0184 174.2 107.2C174.2 123.382 187.318 136.5 203.5 136.5Z" fill="#DBDCDE"/>
<path opacity="0.6119" d="M203.5 136.5C219.682 136.5 232.8 123.382 232.8 107.2C232.8 91.0184 219.682 77.9004 203.5 77.9004C187.318 77.9004 174.2 91.0184 174.2 107.2C174.2 123.382 187.318 136.5 203.5 136.5Z" fill="#DCDDDE"/>
<path opacity="0.607" d="M203.5 136.5C219.682 136.5 232.8 123.382 232.8 107.2C232.8 91.0184 219.682 77.9004 203.5 77.9004C187.318 77.9004 174.2 91.0184 174.2 107.2C174.2 123.382 187.318 136.5 203.5 136.5Z" fill="#DCDDDE"/>
<path opacity="0.602" d="M203.5 136.6C219.682 136.6 232.8 123.482 232.8 107.3C232.8 91.1181 219.682 78 203.5 78C187.318 78 174.2 91.1181 174.2 107.3C174.2 123.482 187.318 136.6 203.5 136.6Z" fill="#DCDDDE"/>
<path opacity="0.597" d="M203.5 136.6C219.682 136.6 232.8 123.482 232.8 107.3C232.8 91.1181 219.682 78 203.5 78C187.318 78 174.2 91.1181 174.2 107.3C174.2 123.482 187.318 136.6 203.5 136.6Z" fill="#DCDEDF"/>
<path opacity="0.592" d="M203.5 136.6C219.682 136.6 232.8 123.482 232.8 107.3C232.8 91.1181 219.682 78 203.5 78C187.318 78 174.2 91.1181 174.2 107.3C174.2 123.482 187.318 136.6 203.5 136.6Z" fill="#DDDEDF"/>
<path opacity="0.5871" d="M203.6 136.6C219.782 136.6 232.9 123.482 232.9 107.3C232.9 91.1181 219.782 78 203.6 78C187.418 78 174.3 91.1181 174.3 107.3C174.3 123.482 187.418 136.6 203.6 136.6Z" fill="#DDDEDF"/>
<path opacity="0.5821" d="M203.6 136.6C219.782 136.6 232.9 123.482 232.9 107.3C232.9 91.1181 219.782 78 203.6 78C187.418 78 174.3 91.1181 174.3 107.3C174.3 123.482 187.418 136.6 203.6 136.6Z" fill="#DDDEE0"/>
<path opacity="0.5771" d="M203.6 136.6C219.782 136.6 232.9 123.482 232.9 107.3C232.9 91.1181 219.782 78 203.6 78C187.418 78 174.3 91.1181 174.3 107.3C174.3 123.482 187.418 136.6 203.6 136.6Z" fill="#DEDFE0"/>
<path opacity="0.5721" d="M203.6 136.701C219.782 136.701 232.9 123.583 232.9 107.401C232.9 91.2186 219.782 78.1006 203.6 78.1006C187.418 78.1006 174.3 91.2186 174.3 107.401C174.3 123.583 187.418 136.701 203.6 136.701Z" fill="#DEDFE0"/>
<path opacity="0.5672" d="M203.6 136.701C219.782 136.701 232.9 123.583 232.9 107.401C232.9 91.2186 219.782 78.1006 203.6 78.1006C187.418 78.1006 174.3 91.2186 174.3 107.401C174.3 123.583 187.418 136.701 203.6 136.701Z" fill="#DEDFE0"/>
<path opacity="0.5622" d="M203.6 136.701C219.782 136.701 232.9 123.583 232.9 107.401C232.9 91.2186 219.782 78.1006 203.6 78.1006C187.418 78.1006 174.3 91.2186 174.3 107.401C174.3 123.583 187.418 136.701 203.6 136.701Z" fill="#DEE0E1"/>
<path opacity="0.5572" d="M203.6 136.701C219.782 136.701 232.9 123.583 232.9 107.401C232.9 91.2186 219.782 78.1006 203.6 78.1006C187.418 78.1006 174.3 91.2186 174.3 107.401C174.3 123.583 187.418 136.701 203.6 136.701Z" fill="#DFE0E1"/>
<path opacity="0.5522" d="M203.7 136.701C219.882 136.701 233 123.583 233 107.401C233 91.2186 219.882 78.1006 203.7 78.1006C187.518 78.1006 174.4 91.2186 174.4 107.401C174.4 123.583 187.518 136.701 203.7 136.701Z" fill="#DFE0E1"/>
<path opacity="0.5473" d="M203.7 136.701C219.882 136.701 233 123.583 233 107.401C233 91.2186 219.882 78.1006 203.7 78.1006C187.518 78.1006 174.4 91.2186 174.4 107.401C174.4 123.583 187.518 136.701 203.7 136.701Z" fill="#DFE0E1"/>
<path opacity="0.5423" d="M203.7 136.8C219.882 136.8 233 123.682 233 107.5C233 91.3183 219.882 78.2002 203.7 78.2002C187.518 78.2002 174.4 91.3183 174.4 107.5C174.4 123.682 187.518 136.8 203.7 136.8Z" fill="#E0E1E2"/>
<path opacity="0.5373" d="M203.7 136.8C219.882 136.8 233 123.682 233 107.5C233 91.3183 219.882 78.2002 203.7 78.2002C187.518 78.2002 174.4 91.3183 174.4 107.5C174.4 123.682 187.518 136.8 203.7 136.8Z" fill="#E0E1E2"/>
<path opacity="0.5323" d="M203.7 136.8C219.882 136.8 233 123.682 233 107.5C233 91.3183 219.882 78.2002 203.7 78.2002C187.518 78.2002 174.4 91.3183 174.4 107.5C174.4 123.682 187.518 136.8 203.7 136.8Z" fill="#E0E1E2"/>
<path opacity="0.5274" d="M203.7 136.8C219.882 136.8 233 123.682 233 107.5C233 91.3183 219.882 78.2002 203.7 78.2002C187.518 78.2002 174.4 91.3183 174.4 107.5C174.4 123.682 187.518 136.8 203.7 136.8Z" fill="#E0E1E3"/>
<path opacity="0.5224" d="M203.7 136.8C219.882 136.8 233 123.682 233 107.5C233 91.3183 219.882 78.2002 203.7 78.2002C187.518 78.2002 174.4 91.3183 174.4 107.5C174.4 123.682 187.518 136.8 203.7 136.8Z" fill="#E1E2E3"/>
<path opacity="0.5174" d="M203.8 136.8C219.982 136.8 233.1 123.682 233.1 107.5C233.1 91.3183 219.982 78.2002 203.8 78.2002C187.618 78.2002 174.5 91.3183 174.5 107.5C174.5 123.682 187.618 136.8 203.8 136.8Z" fill="#E1E2E3"/>
<path opacity="0.5124" d="M203.8 136.901C219.982 136.901 233.1 123.783 233.1 107.601C233.1 91.4188 219.982 78.3008 203.8 78.3008C187.618 78.3008 174.5 91.4188 174.5 107.601C174.5 123.783 187.618 136.901 203.8 136.901Z" fill="#E1E2E3"/>
<path opacity="0.5075" d="M203.8 136.901C219.982 136.901 233.1 123.783 233.1 107.601C233.1 91.4188 219.982 78.3008 203.8 78.3008C187.618 78.3008 174.5 91.4188 174.5 107.601C174.5 123.783 187.618 136.901 203.8 136.901Z" fill="#E2E3E4"/>
<path opacity="0.5025" d="M203.8 136.901C219.982 136.901 233.1 123.783 233.1 107.601C233.1 91.4188 219.982 78.3008 203.8 78.3008C187.618 78.3008 174.5 91.4188 174.5 107.601C174.5 123.783 187.618 136.901 203.8 136.901Z" fill="#E2E3E4"/>
<path opacity="0.4975" d="M203.8 136.901C219.982 136.901 233.1 123.783 233.1 107.601C233.1 91.4188 219.982 78.3008 203.8 78.3008C187.618 78.3008 174.5 91.4188 174.5 107.601C174.5 123.783 187.618 136.901 203.8 136.901Z" fill="#E2E3E4"/>
<path opacity="0.4925" d="M203.8 136.901C219.982 136.901 233.1 123.783 233.1 107.601C233.1 91.4188 219.982 78.3008 203.8 78.3008C187.618 78.3008 174.5 91.4188 174.5 107.601C174.5 123.783 187.618 136.901 203.8 136.901Z" fill="#E2E3E4"/>
<path opacity="0.4876" d="M203.8 136.901C219.982 136.901 233.1 123.783 233.1 107.601C233.1 91.4188 219.982 78.3008 203.8 78.3008C187.618 78.3008 174.5 91.4188 174.5 107.601C174.5 123.783 187.618 136.901 203.8 136.901Z" fill="#E3E4E5"/>
<path opacity="0.4826" d="M203.9 137C220.082 137 233.2 123.882 233.2 107.7C233.2 91.5184 220.082 78.4004 203.9 78.4004C187.718 78.4004 174.6 91.5184 174.6 107.7C174.6 123.882 187.718 137 203.9 137Z" fill="#E3E4E5"/>
<path opacity="0.4776" d="M203.9 137C220.082 137 233.2 123.882 233.2 107.7C233.2 91.5184 220.082 78.4004 203.9 78.4004C187.718 78.4004 174.6 91.5184 174.6 107.7C174.6 123.882 187.718 137 203.9 137Z" fill="#E3E4E5"/>
<path opacity="0.4726" d="M203.9 137C220.082 137 233.2 123.882 233.2 107.7C233.2 91.5184 220.082 78.4004 203.9 78.4004C187.718 78.4004 174.6 91.5184 174.6 107.7C174.6 123.882 187.718 137 203.9 137Z" fill="#E4E5E5"/>
<path opacity="0.4677" d="M203.9 137C220.082 137 233.2 123.882 233.2 107.7C233.2 91.5184 220.082 78.4004 203.9 78.4004C187.718 78.4004 174.6 91.5184 174.6 107.7C174.6 123.882 187.718 137 203.9 137Z" fill="#E4E5E6"/>
<path opacity="0.4627" d="M203.9 137C220.082 137 233.2 123.882 233.2 107.7C233.2 91.5184 220.082 78.4004 203.9 78.4004C187.718 78.4004 174.6 91.5184 174.6 107.7C174.6 123.882 187.718 137 203.9 137Z" fill="#E4E5E6"/>
<path opacity="0.4577" d="M203.9 137C220.082 137 233.2 123.882 233.2 107.7C233.2 91.5184 220.082 78.4004 203.9 78.4004C187.718 78.4004 174.6 91.5184 174.6 107.7C174.6 123.882 187.718 137 203.9 137Z" fill="#E4E5E6"/>
<path opacity="0.4527" d="M203.9 137.1C220.082 137.1 233.2 123.982 233.2 107.8C233.2 91.6181 220.082 78.5 203.9 78.5C187.718 78.5 174.6 91.6181 174.6 107.8C174.6 123.982 187.718 137.1 203.9 137.1Z" fill="#E5E6E7"/>
<path opacity="0.4478" d="M204 137.1C220.182 137.1 233.3 123.982 233.3 107.8C233.3 91.6181 220.182 78.5 204 78.5C187.818 78.5 174.7 91.6181 174.7 107.8C174.7 123.982 187.818 137.1 204 137.1Z" fill="#E5E6E7"/>
<path opacity="0.4428" d="M204 137.1C220.182 137.1 233.3 123.982 233.3 107.8C233.3 91.6181 220.182 78.5 204 78.5C187.818 78.5 174.7 91.6181 174.7 107.8C174.7 123.982 187.818 137.1 204 137.1Z" fill="#E5E6E7"/>
<path opacity="0.4378" d="M204 137.1C220.182 137.1 233.3 123.982 233.3 107.8C233.3 91.6181 220.182 78.5 204 78.5C187.818 78.5 174.7 91.6181 174.7 107.8C174.7 123.982 187.818 137.1 204 137.1Z" fill="#E6E6E7"/>
<path opacity="0.4328" d="M204 137.1C220.182 137.1 233.3 123.982 233.3 107.8C233.3 91.6181 220.182 78.5 204 78.5C187.818 78.5 174.7 91.6181 174.7 107.8C174.7 123.982 187.818 137.1 204 137.1Z" fill="#E6E7E8"/>
<path opacity="0.4279" d="M204 137.1C220.182 137.1 233.3 123.982 233.3 107.8C233.3 91.6181 220.182 78.5 204 78.5C187.818 78.5 174.7 91.6181 174.7 107.8C174.7 123.982 187.818 137.1 204 137.1Z" fill="#E6E7E8"/>
<path opacity="0.4229" d="M204 137.201C220.182 137.201 233.3 124.083 233.3 107.901C233.3 91.7186 220.182 78.6006 204 78.6006C187.818 78.6006 174.7 91.7186 174.7 107.901C174.7 124.083 187.818 137.201 204 137.201Z" fill="#E6E7E8"/>
<path opacity="0.4179" d="M204 137.201C220.182 137.201 233.3 124.083 233.3 107.901C233.3 91.7186 220.182 78.6006 204 78.6006C187.818 78.6006 174.7 91.7186 174.7 107.901C174.7 124.083 187.818 137.201 204 137.201Z" fill="#E7E8E8"/>
<path opacity="0.4129" d="M204 137.201C220.182 137.201 233.3 124.083 233.3 107.901C233.3 91.7186 220.182 78.6006 204 78.6006C187.818 78.6006 174.7 91.7186 174.7 107.901C174.7 124.083 187.818 137.201 204 137.201Z" fill="#E7E8E9"/>
<path opacity="0.408" d="M204.1 137.201C220.282 137.201 233.4 124.083 233.4 107.901C233.4 91.7186 220.282 78.6006 204.1 78.6006C187.918 78.6006 174.8 91.7186 174.8 107.901C174.8 124.083 187.918 137.201 204.1 137.201Z" fill="#E7E8E9"/>
<path opacity="0.403" d="M204.1 137.201C220.282 137.201 233.4 124.083 233.4 107.901C233.4 91.7186 220.282 78.6006 204.1 78.6006C187.918 78.6006 174.8 91.7186 174.8 107.901C174.8 124.083 187.918 137.201 204.1 137.201Z" fill="#E8E8E9"/>
<path opacity="0.398" d="M204.1 137.201C220.282 137.201 233.4 124.083 233.4 107.901C233.4 91.7186 220.282 78.6006 204.1 78.6006C187.918 78.6006 174.8 91.7186 174.8 107.901C174.8 124.083 187.918 137.201 204.1 137.201Z" fill="#E8E9EA"/>
<path opacity="0.393" d="M204.1 137.3C220.282 137.3 233.4 124.182 233.4 108C233.4 91.8183 220.282 78.7002 204.1 78.7002C187.918 78.7002 174.8 91.8183 174.8 108C174.8 124.182 187.918 137.3 204.1 137.3Z" fill="#E8E9EA"/>
<path opacity="0.3881" d="M204.1 137.3C220.282 137.3 233.4 124.182 233.4 108C233.4 91.8183 220.282 78.7002 204.1 78.7002C187.918 78.7002 174.8 91.8183 174.8 108C174.8 124.182 187.918 137.3 204.1 137.3Z" fill="#E8E9EA"/>
<path opacity="0.3831" d="M204.1 137.3C220.282 137.3 233.4 124.182 233.4 108C233.4 91.8183 220.282 78.7002 204.1 78.7002C187.918 78.7002 174.8 91.8183 174.8 108C174.8 124.182 187.918 137.3 204.1 137.3Z" fill="#E9EAEA"/>
<path opacity="0.3781" d="M204.1 137.3C220.282 137.3 233.4 124.182 233.4 108C233.4 91.8183 220.282 78.7002 204.1 78.7002C187.918 78.7002 174.8 91.8183 174.8 108C174.8 124.182 187.918 137.3 204.1 137.3Z" fill="#E9EAEB"/>
<path opacity="0.3731" d="M204.2 137.3C220.382 137.3 233.5 124.182 233.5 108C233.5 91.8183 220.382 78.7002 204.2 78.7002C188.018 78.7002 174.9 91.8183 174.9 108C174.9 124.182 188.018 137.3 204.2 137.3Z" fill="#E9EAEB"/>
<path opacity="0.3682" d="M204.2 137.3C220.382 137.3 233.5 124.182 233.5 108C233.5 91.8183 220.382 78.7002 204.2 78.7002C188.018 78.7002 174.9 91.8183 174.9 108C174.9 124.182 188.018 137.3 204.2 137.3Z" fill="#EAEAEB"/>
<path opacity="0.3632" d="M204.2 137.401C220.382 137.401 233.5 124.283 233.5 108.101C233.5 91.9188 220.382 78.8008 204.2 78.8008C188.018 78.8008 174.9 91.9188 174.9 108.101C174.9 124.283 188.018 137.401 204.2 137.401Z" fill="#EAEBEB"/>
<path opacity="0.3582" d="M204.2 137.401C220.382 137.401 233.5 124.283 233.5 108.101C233.5 91.9188 220.382 78.8008 204.2 78.8008C188.018 78.8008 174.9 91.9188 174.9 108.101C174.9 124.283 188.018 137.401 204.2 137.401Z" fill="#EAEBEC"/>
<path opacity="0.3532" d="M204.2 137.401C220.382 137.401 233.5 124.283 233.5 108.101C233.5 91.9188 220.382 78.8008 204.2 78.8008C188.018 78.8008 174.9 91.9188 174.9 108.101C174.9 124.283 188.018 137.401 204.2 137.401Z" fill="#EBEBEC"/>
<path opacity="0.3483" d="M204.2 137.401C220.382 137.401 233.5 124.283 233.5 108.101C233.5 91.9188 220.382 78.8008 204.2 78.8008C188.018 78.8008 174.9 91.9188 174.9 108.101C174.9 124.283 188.018 137.401 204.2 137.401Z" fill="#EBEBEC"/>
<path opacity="0.3433" d="M204.2 137.401C220.382 137.401 233.5 124.283 233.5 108.101C233.5 91.9188 220.382 78.8008 204.2 78.8008C188.018 78.8008 174.9 91.9188 174.9 108.101C174.9 124.283 188.018 137.401 204.2 137.401Z" fill="#EBECEC"/>
<path opacity="0.3383" d="M204.3 137.401C220.482 137.401 233.6 124.283 233.6 108.101C233.6 91.9188 220.482 78.8008 204.3 78.8008C188.118 78.8008 175 91.9188 175 108.101C175 124.283 188.118 137.401 204.3 137.401Z" fill="#EBECED"/>
<path opacity="0.3333" d="M204.3 137.5C220.482 137.5 233.6 124.382 233.6 108.2C233.6 92.0184 220.482 78.9004 204.3 78.9004C188.118 78.9004 175 92.0184 175 108.2C175 124.382 188.118 137.5 204.3 137.5Z" fill="#ECECED"/>
<path opacity="0.3284" d="M204.3 137.5C220.482 137.5 233.6 124.382 233.6 108.2C233.6 92.0184 220.482 78.9004 204.3 78.9004C188.118 78.9004 175 92.0184 175 108.2C175 124.382 188.118 137.5 204.3 137.5Z" fill="#ECEDED"/>
<path opacity="0.3234" d="M204.3 137.5C220.482 137.5 233.6 124.382 233.6 108.2C233.6 92.0184 220.482 78.9004 204.3 78.9004C188.118 78.9004 175 92.0184 175 108.2C175 124.382 188.118 137.5 204.3 137.5Z" fill="#ECEDEE"/>
<path opacity="0.3184" d="M204.3 137.5C220.482 137.5 233.6 124.382 233.6 108.2C233.6 92.0184 220.482 78.9004 204.3 78.9004C188.118 78.9004 175 92.0184 175 108.2C175 124.382 188.118 137.5 204.3 137.5Z" fill="#EDEDEE"/>
<path opacity="0.3134" d="M204.3 137.5C220.482 137.5 233.6 124.382 233.6 108.2C233.6 92.0184 220.482 78.9004 204.3 78.9004C188.118 78.9004 175 92.0184 175 108.2C175 124.382 188.118 137.5 204.3 137.5Z" fill="#EDEDEE"/>
<path opacity="0.3085" d="M204.3 137.5C220.482 137.5 233.6 124.382 233.6 108.2C233.6 92.0184 220.482 78.9004 204.3 78.9004C188.118 78.9004 175 92.0184 175 108.2C175 124.382 188.118 137.5 204.3 137.5Z" fill="#EDEEEE"/>
<path opacity="0.3035" d="M204.4 137.6C220.582 137.6 233.7 124.482 233.7 108.3C233.7 92.1181 220.582 79 204.4 79C188.218 79 175.1 92.1181 175.1 108.3C175.1 124.482 188.218 137.6 204.4 137.6Z" fill="#EDEEEF"/>
<path opacity="0.2985" d="M204.4 137.6C220.582 137.6 233.7 124.482 233.7 108.3C233.7 92.1181 220.582 79 204.4 79C188.218 79 175.1 92.1181 175.1 108.3C175.1 124.482 188.218 137.6 204.4 137.6Z" fill="#EEEEEF"/>
<path opacity="0.2935" d="M204.4 137.6C220.582 137.6 233.7 124.482 233.7 108.3C233.7 92.1181 220.582 79 204.4 79C188.218 79 175.1 92.1181 175.1 108.3C175.1 124.482 188.218 137.6 204.4 137.6Z" fill="#EEEFEF"/>
<path opacity="0.2886" d="M204.4 137.6C220.582 137.6 233.7 124.482 233.7 108.3C233.7 92.1181 220.582 79 204.4 79C188.218 79 175.1 92.1181 175.1 108.3C175.1 124.482 188.218 137.6 204.4 137.6Z" fill="#EEEFEF"/>
<path opacity="0.2836" d="M204.4 137.6C220.582 137.6 233.7 124.482 233.7 108.3C233.7 92.1181 220.582 79 204.4 79C188.218 79 175.1 92.1181 175.1 108.3C175.1 124.482 188.218 137.6 204.4 137.6Z" fill="#EFEFF0"/>
<path opacity="0.2786" d="M204.4 137.6C220.582 137.6 233.7 124.482 233.7 108.3C233.7 92.1181 220.582 79 204.4 79C188.218 79 175.1 92.1181 175.1 108.3C175.1 124.482 188.218 137.6 204.4 137.6Z" fill="#EFEFF0"/>
<path opacity="0.2736" d="M204.4 137.701C220.582 137.701 233.7 124.583 233.7 108.401C233.7 92.2186 220.582 79.1006 204.4 79.1006C188.218 79.1006 175.1 92.2186 175.1 108.401C175.1 124.583 188.218 137.701 204.4 137.701Z" fill="#EFF0F0"/>
<path opacity="0.2687" d="M204.5 137.701C220.682 137.701 233.8 124.583 233.8 108.401C233.8 92.2186 220.682 79.1006 204.5 79.1006C188.318 79.1006 175.2 92.2186 175.2 108.401C175.2 124.583 188.318 137.701 204.5 137.701Z" fill="#EFF0F0"/>
<path opacity="0.2637" d="M204.5 137.701C220.682 137.701 233.8 124.583 233.8 108.401C233.8 92.2186 220.682 79.1006 204.5 79.1006C188.318 79.1006 175.2 92.2186 175.2 108.401C175.2 124.583 188.318 137.701 204.5 137.701Z" fill="#F0F0F1"/>
<path opacity="0.2587" d="M204.5 137.701C220.682 137.701 233.8 124.583 233.8 108.401C233.8 92.2186 220.682 79.1006 204.5 79.1006C188.318 79.1006 175.2 92.2186 175.2 108.401C175.2 124.583 188.318 137.701 204.5 137.701Z" fill="#F0F1F1"/>
<path opacity="0.2537" d="M204.5 137.701C220.682 137.701 233.8 124.583 233.8 108.401C233.8 92.2186 220.682 79.1006 204.5 79.1006C188.318 79.1006 175.2 92.2186 175.2 108.401C175.2 124.583 188.318 137.701 204.5 137.701Z" fill="#F0F1F1"/>
<path opacity="0.2488" d="M204.5 137.701C220.682 137.701 233.8 124.583 233.8 108.401C233.8 92.2186 220.682 79.1006 204.5 79.1006C188.318 79.1006 175.2 92.2186 175.2 108.401C175.2 124.583 188.318 137.701 204.5 137.701Z" fill="#F1F1F2"/>
<path opacity="0.2438" d="M204.5 137.8C220.682 137.8 233.8 124.682 233.8 108.5C233.8 92.3183 220.682 79.2002 204.5 79.2002C188.318 79.2002 175.2 92.3183 175.2 108.5C175.2 124.682 188.318 137.8 204.5 137.8Z" fill="#F1F1F2"/>
<path opacity="0.2388" d="M204.5 137.8C220.682 137.8 233.8 124.682 233.8 108.5C233.8 92.3183 220.682 79.2002 204.5 79.2002C188.318 79.2002 175.2 92.3183 175.2 108.5C175.2 124.682 188.318 137.8 204.5 137.8Z" fill="#F1F2F2"/>
<path opacity="0.2338" d="M204.6 137.8C220.782 137.8 233.9 124.682 233.9 108.5C233.9 92.3183 220.782 79.2002 204.6 79.2002C188.418 79.2002 175.3 92.3183 175.3 108.5C175.3 124.682 188.418 137.8 204.6 137.8Z" fill="#F1F2F2"/>
<path opacity="0.2289" d="M204.6 137.8C220.782 137.8 233.9 124.682 233.9 108.5C233.9 92.3183 220.782 79.2002 204.6 79.2002C188.418 79.2002 175.3 92.3183 175.3 108.5C175.3 124.682 188.418 137.8 204.6 137.8Z" fill="#F2F2F3"/>
<path opacity="0.2239" d="M204.6 137.8C220.782 137.8 233.9 124.682 233.9 108.5C233.9 92.3183 220.782 79.2002 204.6 79.2002C188.418 79.2002 175.3 92.3183 175.3 108.5C175.3 124.682 188.418 137.8 204.6 137.8Z" fill="#F2F2F3"/>
<path opacity="0.2189" d="M204.6 137.8C220.782 137.8 233.9 124.682 233.9 108.5C233.9 92.3183 220.782 79.2002 204.6 79.2002C188.418 79.2002 175.3 92.3183 175.3 108.5C175.3 124.682 188.418 137.8 204.6 137.8Z" fill="#F2F3F3"/>
<path opacity="0.2139" d="M204.6 137.901C220.782 137.901 233.9 124.783 233.9 108.601C233.9 92.4188 220.782 79.3008 204.6 79.3008C188.418 79.3008 175.3 92.4188 175.3 108.601C175.3 124.783 188.418 137.901 204.6 137.901Z" fill="#F3F3F3"/>
<path opacity="0.209" d="M204.6 137.901C220.782 137.901 233.9 124.783 233.9 108.601C233.9 92.4188 220.782 79.3008 204.6 79.3008C188.418 79.3008 175.3 92.4188 175.3 108.601C175.3 124.783 188.418 137.901 204.6 137.901Z" fill="#F3F3F4"/>
<path opacity="0.204" d="M204.6 137.901C220.782 137.901 233.9 124.783 233.9 108.601C233.9 92.4188 220.782 79.3008 204.6 79.3008C188.418 79.3008 175.3 92.4188 175.3 108.601C175.3 124.783 188.418 137.901 204.6 137.901Z" fill="#F3F4F4"/>
<path opacity="0.199" d="M204.6 137.901C220.782 137.901 233.9 124.783 233.9 108.601C233.9 92.4188 220.782 79.3008 204.6 79.3008C188.418 79.3008 175.3 92.4188 175.3 108.601C175.3 124.783 188.418 137.901 204.6 137.901Z" fill="#F3F4F4"/>
<path opacity="0.194" d="M204.7 137.901C220.882 137.901 234 124.783 234 108.601C234 92.4188 220.882 79.3008 204.7 79.3008C188.518 79.3008 175.4 92.4188 175.4 108.601C175.4 124.783 188.518 137.901 204.7 137.901Z" fill="#F4F4F5"/>
<path opacity="0.1891" d="M204.7 137.901C220.882 137.901 234 124.783 234 108.601C234 92.4188 220.882 79.3008 204.7 79.3008C188.518 79.3008 175.4 92.4188 175.4 108.601C175.4 124.783 188.518 137.901 204.7 137.901Z" fill="#F4F4F5"/>
<path opacity="0.1841" d="M204.7 138C220.882 138 234 124.882 234 108.7C234 92.5184 220.882 79.4004 204.7 79.4004C188.518 79.4004 175.4 92.5184 175.4 108.7C175.4 124.882 188.518 138 204.7 138Z" fill="#F4F5F5"/>
<path opacity="0.1791" d="M204.7 138C220.882 138 234 124.882 234 108.7C234 92.5184 220.882 79.4004 204.7 79.4004C188.518 79.4004 175.4 92.5184 175.4 108.7C175.4 124.882 188.518 138 204.7 138Z" fill="#F5F5F5"/>
<path opacity="0.1741" d="M204.7 138C220.882 138 234 124.882 234 108.7C234 92.5184 220.882 79.4004 204.7 79.4004C188.518 79.4004 175.4 92.5184 175.4 108.7C175.4 124.882 188.518 138 204.7 138Z" fill="#F5F5F6"/>
<path opacity="0.1692" d="M204.7 138C220.882 138 234 124.882 234 108.7C234 92.5184 220.882 79.4004 204.7 79.4004C188.518 79.4004 175.4 92.5184 175.4 108.7C175.4 124.882 188.518 138 204.7 138Z" fill="#F5F6F6"/>
<path opacity="0.1642" d="M204.7 138C220.882 138 234 124.882 234 108.7C234 92.5184 220.882 79.4004 204.7 79.4004C188.518 79.4004 175.4 92.5184 175.4 108.7C175.4 124.882 188.518 138 204.7 138Z" fill="#F5F6F6"/>
<path opacity="0.1592" d="M204.8 138C220.982 138 234.1 124.882 234.1 108.7C234.1 92.5184 220.982 79.4004 204.8 79.4004C188.618 79.4004 175.5 92.5184 175.5 108.7C175.5 124.882 188.618 138 204.8 138Z" fill="#F6F6F6"/>
<path opacity="0.1542" d="M204.8 138.1C220.982 138.1 234.1 124.982 234.1 108.8C234.1 92.6181 220.982 79.5 204.8 79.5C188.618 79.5 175.5 92.6181 175.5 108.8C175.5 124.982 188.618 138.1 204.8 138.1Z" fill="#F6F6F7"/>
<path opacity="0.1493" d="M204.8 138.1C220.982 138.1 234.1 124.982 234.1 108.8C234.1 92.6181 220.982 79.5 204.8 79.5C188.618 79.5 175.5 92.6181 175.5 108.8C175.5 124.982 188.618 138.1 204.8 138.1Z" fill="#F6F7F7"/>
<path opacity="0.1443" d="M204.8 138.1C220.982 138.1 234.1 124.982 234.1 108.8C234.1 92.6181 220.982 79.5 204.8 79.5C188.618 79.5 175.5 92.6181 175.5 108.8C175.5 124.982 188.618 138.1 204.8 138.1Z" fill="#F7F7F7"/>
<path opacity="0.1393" d="M204.8 138.1C220.982 138.1 234.1 124.982 234.1 108.8C234.1 92.6181 220.982 79.5 204.8 79.5C188.618 79.5 175.5 92.6181 175.5 108.8C175.5 124.982 188.618 138.1 204.8 138.1Z" fill="#F7F7F7"/>
<path opacity="0.1343" d="M204.8 138.1C220.982 138.1 234.1 124.982 234.1 108.8C234.1 92.6181 220.982 79.5 204.8 79.5C188.618 79.5 175.5 92.6181 175.5 108.8C175.5 124.982 188.618 138.1 204.8 138.1Z" fill="#F7F7F8"/>
<path opacity="0.1294" d="M204.8 138.1C220.982 138.1 234.1 124.982 234.1 108.8C234.1 92.6181 220.982 79.5 204.8 79.5C188.618 79.5 175.5 92.6181 175.5 108.8C175.5 124.982 188.618 138.1 204.8 138.1Z" fill="#F7F8F8"/>
<path opacity="0.1244" d="M204.9 138.201C221.082 138.201 234.2 125.083 234.2 108.901C234.2 92.7186 221.082 79.6006 204.9 79.6006C188.718 79.6006 175.6 92.7186 175.6 108.901C175.6 125.083 188.718 138.201 204.9 138.201Z" fill="#F8F8F8"/>
<path opacity="0.1194" d="M204.9 138.201C221.082 138.201 234.2 125.083 234.2 108.901C234.2 92.7186 221.082 79.6006 204.9 79.6006C188.718 79.6006 175.6 92.7186 175.6 108.901C175.6 125.083 188.718 138.201 204.9 138.201Z" fill="#F8F8F9"/>
<path opacity="0.1144" d="M204.9 138.201C221.082 138.201 234.2 125.083 234.2 108.901C234.2 92.7186 221.082 79.6006 204.9 79.6006C188.718 79.6006 175.6 92.7186 175.6 108.901C175.6 125.083 188.718 138.201 204.9 138.201Z" fill="#F8F9F9"/>
<path opacity="0.1095" d="M204.9 138.201C221.082 138.201 234.2 125.083 234.2 108.901C234.2 92.7186 221.082 79.6006 204.9 79.6006C188.718 79.6006 175.6 92.7186 175.6 108.901C175.6 125.083 188.718 138.201 204.9 138.201Z" fill="#F9F9F9"/>
<path opacity="0.1045" d="M204.9 138.201C221.082 138.201 234.2 125.083 234.2 108.901C234.2 92.7186 221.082 79.6006 204.9 79.6006C188.718 79.6006 175.6 92.7186 175.6 108.901C175.6 125.083 188.718 138.201 204.9 138.201Z" fill="#F9F9F9"/>
<path opacity="0.099502" d="M204.9 138.3C221.082 138.3 234.2 125.182 234.2 109C234.2 92.8183 221.082 79.7002 204.9 79.7002C188.718 79.7002 175.6 92.8183 175.6 109C175.6 125.182 188.718 138.3 204.9 138.3Z" fill="#F9F9FA"/>
<path opacity="0.094527" d="M204.9 138.3C221.082 138.3 234.2 125.182 234.2 109C234.2 92.8183 221.082 79.7002 204.9 79.7002C188.718 79.7002 175.6 92.8183 175.6 109C175.6 125.182 188.718 138.3 204.9 138.3Z" fill="#FAFAFA"/>
<path opacity="0.089552" d="M205 138.3C221.182 138.3 234.3 125.182 234.3 109C234.3 92.8183 221.182 79.7002 205 79.7002C188.818 79.7002 175.7 92.8183 175.7 109C175.7 125.182 188.818 138.3 205 138.3Z" fill="#FAFAFA"/>
<path opacity="0.084577" d="M205 138.3C221.182 138.3 234.3 125.182 234.3 109C234.3 92.8183 221.182 79.7002 205 79.7002C188.818 79.7002 175.7 92.8183 175.7 109C175.7 125.182 188.818 138.3 205 138.3Z" fill="#FAFAFA"/>
<path opacity="0.079602" d="M205 138.3C221.182 138.3 234.3 125.182 234.3 109C234.3 92.8183 221.182 79.7002 205 79.7002C188.818 79.7002 175.7 92.8183 175.7 109C175.7 125.182 188.818 138.3 205 138.3Z" fill="#FAFBFB"/>
<path opacity="0.074627" d="M205 138.3C221.182 138.3 234.3 125.182 234.3 109C234.3 92.8183 221.182 79.7002 205 79.7002C188.818 79.7002 175.7 92.8183 175.7 109C175.7 125.182 188.818 138.3 205 138.3Z" fill="#FBFBFB"/>
<path opacity="0.069652" d="M205 138.401C221.182 138.401 234.3 125.283 234.3 109.101C234.3 92.9188 221.182 79.8008 205 79.8008C188.818 79.8008 175.7 92.9188 175.7 109.101C175.7 125.283 188.818 138.401 205 138.401Z" fill="#FBFBFB"/>
<path opacity="0.064677" d="M205 138.401C221.182 138.401 234.3 125.283 234.3 109.101C234.3 92.9188 221.182 79.8008 205 79.8008C188.818 79.8008 175.7 92.9188 175.7 109.101C175.7 125.283 188.818 138.401 205 138.401Z" fill="#FBFBFC"/>
<path opacity="0.059701" d="M205 138.401C221.182 138.401 234.3 125.283 234.3 109.101C234.3 92.9188 221.182 79.8008 205 79.8008C188.818 79.8008 175.7 92.9188 175.7 109.101C175.7 125.283 188.818 138.401 205 138.401Z" fill="#FCFCFC"/>
<path opacity="0.054726" d="M205.1 138.401C221.282 138.401 234.4 125.283 234.4 109.101C234.4 92.9188 221.282 79.8008 205.1 79.8008C188.918 79.8008 175.8 92.9188 175.8 109.101C175.8 125.283 188.918 138.401 205.1 138.401Z" fill="#FCFCFC"/>
<path opacity="0.049751" d="M205.1 138.401C221.282 138.401 234.4 125.283 234.4 109.101C234.4 92.9188 221.282 79.8008 205.1 79.8008C188.918 79.8008 175.8 92.9188 175.8 109.101C175.8 125.283 188.918 138.401 205.1 138.401Z" fill="#FCFCFC"/>
<path opacity="0.044776" d="M205.1 138.401C221.282 138.401 234.4 125.283 234.4 109.101C234.4 92.9188 221.282 79.8008 205.1 79.8008C188.918 79.8008 175.8 92.9188 175.8 109.101C175.8 125.283 188.918 138.401 205.1 138.401Z" fill="#FCFCFD"/>
<path opacity="0.039801" d="M205.1 138.5C221.282 138.5 234.4 125.382 234.4 109.2C234.4 93.0184 221.282 79.9004 205.1 79.9004C188.918 79.9004 175.8 93.0184 175.8 109.2C175.8 125.382 188.918 138.5 205.1 138.5Z" fill="#FDFDFD"/>
<path opacity="0.034826" d="M205.1 138.5C221.282 138.5 234.4 125.382 234.4 109.2C234.4 93.0184 221.282 79.9004 205.1 79.9004C188.918 79.9004 175.8 93.0184 175.8 109.2C175.8 125.382 188.918 138.5 205.1 138.5Z" fill="#FDFDFD"/>
<path opacity="0.029851" d="M205.1 138.5C221.282 138.5 234.4 125.382 234.4 109.2C234.4 93.0184 221.282 79.9004 205.1 79.9004C188.918 79.9004 175.8 93.0184 175.8 109.2C175.8 125.382 188.918 138.5 205.1 138.5Z" fill="#FDFDFD"/>
<path opacity="0.024876" d="M205.1 138.5C221.282 138.5 234.4 125.382 234.4 109.2C234.4 93.0184 221.282 79.9004 205.1 79.9004C188.918 79.9004 175.8 93.0184 175.8 109.2C175.8 125.382 188.918 138.5 205.1 138.5Z" fill="#FEFEFE"/>
<path opacity="0.0199" d="M205.2 138.5C221.382 138.5 234.5 125.382 234.5 109.2C234.5 93.0184 221.382 79.9004 205.2 79.9004C189.018 79.9004 175.9 93.0184 175.9 109.2C175.9 125.382 189.018 138.5 205.2 138.5Z" fill="#FEFEFE"/>
<path opacity="0.014925" d="M205.2 138.5C221.382 138.5 234.5 125.382 234.5 109.2C234.5 93.0184 221.382 79.9004 205.2 79.9004C189.018 79.9004 175.9 93.0184 175.9 109.2C175.9 125.382 189.018 138.5 205.2 138.5Z" fill="#FEFEFE"/>
<path opacity="0.01" d="M205.2 138.6C221.382 138.6 234.5 125.482 234.5 109.3C234.5 93.1181 221.382 80 205.2 80C189.018 80 175.9 93.1181 175.9 109.3C175.9 125.482 189.018 138.6 205.2 138.6Z" fill="#FEFEFE"/>
<path opacity="0.01" d="M205.2 138.6C221.382 138.6 234.5 125.482 234.5 109.3C234.5 93.1181 221.382 80 205.2 80C189.018 80 175.9 93.1181 175.9 109.3C175.9 125.482 189.018 138.6 205.2 138.6Z" fill="white"/>
</g>
</g>
<path d="M362.4 76.4004C362.4 75.4004 361.7 74.9004 360.6 74.9004H359V79.7004H360.2V77.8004L361.6 79.7004H363L361.4 77.7004C362 77.6004 362.4 77.1004 362.4 76.4004ZM360.4 77.1004H360.2V75.8004H360.4C361 75.8004 361.3 76.0004 361.3 76.4004C361.3 76.9004 361 77.1004 360.4 77.1004Z" fill="#231F20"/>
<path d="M360.8 73.1006C358.5 73.1006 356.6 75.0006 356.6 77.3006C356.6 79.6006 358.5 81.5006 360.8 81.5006C363.1 81.5006 365 79.6006 365 77.3006C365 75.0006 363.1 73.1006 360.8 73.1006ZM360.8 80.8006C359 80.8006 357.4 79.3006 357.4 77.3006C357.4 75.4006 358.9 73.8006 360.8 73.8006C362.6 73.8006 364.1 75.4006 364.1 77.3006C364.1 79.3006 362.6 80.8006 360.8 80.8006Z" fill="#231F20"/>
<defs>
<linearGradient id="paint0_linear" x1="214.034" y1="125.503" x2="193.78" y2="93.7911" gradientUnits="userSpaceOnUse">
<stop stop-color="#F89F20"/>
<stop offset="0.2502" stop-color="#F79A20"/>
<stop offset="0.5331" stop-color="#F68D20"/>
<stop offset="0.6196" stop-color="#F58720"/>
<stop offset="0.7232" stop-color="#F48120"/>
<stop offset="1" stop-color="#F37521"/>
</linearGradient>
<linearGradient id="paint1_linear" x1="210.835" y1="125.072" x2="181.233" y2="67.2135" gradientUnits="userSpaceOnUse">
<stop/>
<stop offset="0.0264172" stop-color="#080808"/>
<stop offset="0.2097" stop-color="#3F3F3F"/>
<stop offset="0.3886" stop-color="#6C6C6C"/>
<stop offset="0.5591" stop-color="#8F8F8F"/>
<stop offset="0.7189" stop-color="#A8A8A8"/>
<stop offset="0.8642" stop-color="#B7B7B7"/>
<stop offset="0.9816" stop-color="#BDBDBD"/>
</linearGradient>
<linearGradient id="paint2_linear" x1="210.835" y1="125.072" x2="181.233" y2="67.2135" gradientUnits="userSpaceOnUse">
<stop stop-color="#F58720"/>
<stop offset="0.3587" stop-color="#E16F27"/>
<stop offset="0.703" stop-color="#D4602C"/>
<stop offset="0.9816" stop-color="#D05B2E"/>
</linearGradient>
</defs>
</svg>
