<svg width="300" height="232" viewBox="0 0 300 232" fill="none" xmlns="http://www.w3.org/2000/svg">
<path d="M299 184.245C299 209.746 278.235 230.511 252.734 230.511H1V47.2665C1 21.7653 21.7653 1 47.2665 1H299V184.245V184.245Z" fill="white"/>
<path d="M217.032 137.249H236.158C236.704 137.249 237.979 137.067 238.526 137.067C242.169 136.338 245.265 133.06 245.265 128.506C245.265 124.134 242.169 120.856 238.526 119.945C237.979 119.763 236.886 119.763 236.158 119.763H217.032V137.249Z" fill="url(#paint0_linear)"/>
<path d="M233.972 16.4824C215.757 16.4824 200.82 31.2367 200.82 49.634V84.0607H247.633C248.726 84.0607 250.001 84.0607 250.912 84.2428C261.477 84.7893 269.309 90.2538 269.309 99.7257C269.309 107.194 264.027 113.569 254.191 114.844V115.209C264.938 115.937 273.135 121.948 273.135 131.238C273.135 141.256 264.027 147.814 252.005 147.814H200.638V215.21H249.273C267.488 215.21 282.424 200.456 282.424 182.058V16.4824H233.972V16.4824Z" fill="url(#paint1_linear)"/>
<path d="M242.897 101.911C242.897 97.5395 239.801 94.6251 236.158 94.0786C235.793 94.0786 234.883 93.8965 234.336 93.8965H217.032V109.926H234.336C234.883 109.926 235.976 109.926 236.158 109.744C239.801 109.197 242.897 106.283 242.897 101.911V101.911Z" fill="url(#paint2_linear)"/>
<path d="M50.7273 16.4824C32.5121 16.4824 17.5757 31.2367 17.5757 49.634V131.42C26.8654 135.974 36.5195 138.888 46.1735 138.888C57.6491 138.888 63.8422 131.967 63.8422 122.495V83.8785H92.2579V122.312C92.2579 137.249 82.9681 149.453 51.4559 149.453C32.33 149.453 17.3936 145.264 17.3936 145.264V215.028H66.028C84.2432 215.028 99.1796 200.273 99.1796 181.876V16.4824H50.7273V16.4824Z" fill="url(#paint3_linear)"/>
<path d="M142.35 16.4824C124.135 16.4824 109.198 31.2367 109.198 49.634V92.9861C117.577 85.8822 132.149 81.3284 155.647 82.4213C168.215 82.9678 181.695 86.4286 181.695 86.4286V100.454C174.955 96.9934 166.94 93.8968 156.558 93.1682C138.707 91.8932 127.96 100.636 127.96 115.937C127.96 131.42 138.707 140.163 156.558 138.706C166.94 137.978 174.955 134.699 181.695 131.42V145.446C181.695 145.446 168.398 148.907 155.647 149.453C132.149 150.546 117.577 145.992 109.198 138.888V215.392H157.833C176.048 215.392 190.984 200.638 190.984 182.24V16.4824H142.35V16.4824Z" fill="url(#paint4_linear)"/>
<defs>
<linearGradient id="paint0_linear" x1="200.79" y1="128.528" x2="282.644" y2="128.528" gradientUnits="userSpaceOnUse">
<stop stop-color="#007940"/>
<stop offset="0.2285" stop-color="#00873F"/>
<stop offset="0.7433" stop-color="#40A737"/>
<stop offset="1" stop-color="#5CB531"/>
</linearGradient>
<linearGradient id="paint1_linear" x1="200.787" y1="115.767" x2="282.648" y2="115.767" gradientUnits="userSpaceOnUse">
<stop stop-color="#007940"/>
<stop offset="0.2285" stop-color="#00873F"/>
<stop offset="0.7433" stop-color="#40A737"/>
<stop offset="1" stop-color="#5CB531"/>
</linearGradient>
<linearGradient id="paint2_linear" x1="200.788" y1="101.888" x2="282.645" y2="101.888" gradientUnits="userSpaceOnUse">
<stop stop-color="#007940"/>
<stop offset="0.2285" stop-color="#00873F"/>
<stop offset="0.7433" stop-color="#40A737"/>
<stop offset="1" stop-color="#5CB531"/>
</linearGradient>
<linearGradient id="paint3_linear" x1="17.5371" y1="115.767" x2="100.658" y2="115.767" gradientUnits="userSpaceOnUse">
<stop stop-color="#1F286F"/>
<stop offset="0.4751" stop-color="#004E94"/>
<stop offset="0.8261" stop-color="#0066B1"/>
<stop offset="1" stop-color="#006FBC"/>
</linearGradient>
<linearGradient id="paint4_linear" x1="108.727" y1="115.767" x2="189.457" y2="115.767" gradientUnits="userSpaceOnUse">
<stop stop-color="#6C2C2F"/>
<stop offset="0.1735" stop-color="#882730"/>
<stop offset="0.5731" stop-color="#BE1833"/>
<stop offset="0.8585" stop-color="#DC0436"/>
<stop offset="1" stop-color="#E60039"/>
</linearGradient>
</defs>
</svg>
