<svg width="240" height="64" viewBox="0 0 240 64" fill="none" xmlns="http://www.w3.org/2000/svg">
<path d="M29.0519 39.1676C29.0519 41.631 28.5277 43.7799 27.4795 45.6143C26.4312 47.4356 24.9375 48.8442 22.9982 49.84C21.0721 50.8228 18.8053 51.3141 16.1978 51.3141C13.564 51.3141 11.271 50.8228 9.31864 49.84C7.36628 48.8442 5.85943 47.4356 4.79808 45.6143C3.73673 43.7799 3.20605 41.631 3.20605 39.1676V22.815H10.3603V39.1676C10.3603 41.0413 10.9041 42.5351 11.9917 43.6488C13.0792 44.7626 14.4944 45.3195 16.2371 45.3195C17.9536 45.3195 19.3294 44.7691 20.3645 43.6685C21.3997 42.5678 21.9172 41.0675 21.9172 39.1676V22.815H29.0519V39.1676Z" fill="#353C41"/>
<path d="M55.0832 50.9997L42.1112 33.6446V50.9997H35.3893V22.815H41.7181L54.7098 40.2093V22.815H61.3923V50.9997H55.0832Z" fill="#353C41"/>
<path d="M79.1491 39.9341L75.4147 44.0812V50.9997H68.2408V22.815H75.4147V35.0205L86.2051 22.815H94.4993L84.0234 34.4898L95.1676 50.9997H86.5982L79.1491 39.9341Z" fill="#353C41"/>
<path d="M119.214 50.9997L106.242 33.6446V50.9997H99.5199V22.815H105.849L118.84 40.2093V22.815H125.523V50.9997H119.214Z" fill="#353C41"/>
<path d="M145.737 22.5791C148.606 22.5791 151.201 23.208 153.52 24.4659C155.852 25.7107 157.68 27.4207 159.003 29.5958C160.327 31.7578 160.989 34.1819 160.989 36.868C160.989 39.5803 160.327 42.0372 159.003 44.2385C157.68 46.4398 155.852 48.1694 153.52 49.4273C151.201 50.6852 148.606 51.3141 145.737 51.3141C142.893 51.3141 140.312 50.6852 137.993 49.4273C135.673 48.1694 133.846 46.4398 132.509 44.2385C131.186 42.0372 130.524 39.5803 130.524 36.868C130.524 34.1557 131.186 31.7185 132.509 29.5565C133.846 27.3814 135.667 25.678 137.973 24.4463C140.279 23.2015 142.867 22.5791 145.737 22.5791ZM145.815 28.5738C144.4 28.5738 143.077 28.9406 141.845 29.6744C140.626 30.3951 139.657 31.3909 138.936 32.6619C138.215 33.9329 137.855 35.348 137.855 36.9073C137.855 38.4666 138.215 39.8948 138.936 41.192C139.657 42.4761 140.626 43.4851 141.845 44.2188C143.077 44.9526 144.4 45.3195 145.815 45.3195C147.243 45.3195 148.554 44.9526 149.746 44.2188C150.938 43.4851 151.882 42.4761 152.576 41.192C153.284 39.8948 153.638 38.4666 153.638 36.9073C153.638 35.348 153.284 33.9329 152.576 32.6619C151.882 31.3909 150.938 30.3951 149.746 29.6744C148.554 28.9406 147.243 28.5738 145.815 28.5738Z" fill="#353C41"/>
<path d="M189.889 50.9997L184.661 31.5219L179.355 50.9997H171.945L162.727 22.815H170.372L175.895 43.5506L181.281 22.815H188.278L193.801 43.5506L199.225 22.815H206.557L197.26 50.9997H189.889Z" fill="#353C41"/>
<path d="M229.993 50.9997L217.021 33.6446V50.9997H210.3V22.815H216.628L229.62 40.2093V22.815H236.303V50.9997H229.993Z" fill="#353C41"/>
</svg>
