<?xml version="1.0" encoding="utf-8"?>
<!-- Generator: Adobe Illustrator 22.1.0, SVG Export Plug-In . SVG Version: 6.00 Build 0)  -->
<svg version="1.1" id="Слой_1" xmlns="http://www.w3.org/2000/svg" xmlns:xlink="http://www.w3.org/1999/xlink" x="0px" y="0px"
	 viewBox="0 0 229 78" style="enable-background:new 0 0 229 78;" xml:space="preserve">
<style type="text/css">
	.st0{fill:#CBC52D;}
</style>
<path class="st0" d="M104,38.2c0.1,0,0.2,0,0.3,0c2.1,0.3,4.1,0.6,5.6,1.3c1.4,0.6,2.3,1.4,3,2.9c1.2,2.2,1.2,5.2,0.2,7.5
	c-0.8,1.7-2.5,3.1-4.1,3.9c-1.6,0.8-3.2,1.2-5.1,1.4c-3.2,0.4-6.7-0.3-9.6-1.7c-1.7-0.8-3.8-2.3-4.9-4.1c-0.8-1.4-0.8-3.1,0.2-4.4
	c1.5-2.1,4.8-2.5,7.2-2.4c1.9,0.1,5.2,0.6,7,1.3c0.5,0.2,2.3,0.9,2.6,1.2c0.2,0.2,0.4,0.5,0.3,0.8c-0.4,1.2-3.4,1.9-4.3,2
	c-2.3,0.4-3.5-0.5-6.2-1.6c-0.7-0.3-1.5-0.5-2.2-0.6c-1.2-0.1-2.6,0.2-2.9,1.5c-0.1,0.7,0.7,1.3,1.3,1.6c1.4,0.6,2.6,0.8,4,0.8
	c4.1,0.1,8.7-0.6,12.1-3c0.5-0.3,0.9-0.8,0.9-1.4c0-1.2-2.1-2-2.1-2c-2.3-0.9-6.4-1.4-8.6-1.6c-2.3-0.2-5.8-0.5-6.7-0.6
	c-0.9-0.1-1.8-0.3-2.6-0.6c-0.8-0.3-1.5-1.1-1.7-2c-0.4-1.5,0.1-3.4,1-4.7c2.2-3.2,7.5-4.4,11.4-4.9c3.8-0.5,10-0.5,13.7,1.5
	c0.6,0.3,0.9,0.6,0.8,1.2c-0.2,1.2-1.1,1.9-2.2,2.2c-1.1,0.4-3.4,0.5-4.4,0.6c-4.5,0.3-10,0.1-14.2,1.3c-0.3,0.1-0.9,0.3-1.1,0.5
	c-0.7,0.7,1.2,0.9,1.7,1c0.1,0,0.1,0,0.3,0L104,38.2z M77.2,18.1c0,0,0.7-1.1,1.3-1.9c1.1-1.5,3.1-3.6,4.7-4.9c0.5-0.4,1-0.8,1-0.8
	s-0.9,0.1-1.3,0.2c-1.2,0.2-2.9,1.3-3.7,2.1c-1.4,1.2-2.9,3.1-2.2,4.9C77,17.8,77.2,18.1,77.2,18.1z M85,20.2
	c2.2-0.2,4.3-0.8,6.2-1.9c1.9-1.1,4.7-3.1,4.4-5.5c-0.1-0.8-0.6-1.4-1.2-1.6c-0.8-0.4-1.3-0.3-2.4,0c-0.8,0.2-1.1,0.4-1.9,0.8
	c-2.2,1.3-5.2,3.9-6.9,6.1c-0.4,0.5-0.8,1.1-1.1,1.5c-0.2,0.2-0.3,0.5-0.3,0.5C81.8,20.3,84.1,20.3,85,20.2z M79.3,24.3
	c-0.2,0.2-0.5,0.8-0.7,1.2c-0.1,0.2-0.4,0.5-0.5,0.6c-0.6,0.4-1.1,0.4-1.6,0c-0.8-0.7-1.2-1.7-1.3-2.8c0-0.5,0.1-0.9,0-1.3
	c-0.1-0.6-0.8-1.3-1.1-1.9c-0.4-0.7-0.7-2-0.8-2.8c-0.1-2.5,1.2-4.9,2.9-6.7c1.8-1.9,4-3.4,6.5-4.5c2.4-1,5.8-1.7,8.4-0.8
	c0.8,0.3,2,1,2.6,1.8c0.1,0.2,0.2,0.3,0.4,0.4c0.1,0.1,0.4,0.1,0.7,0.1c0.8,0.1,2,0.8,2.5,1.2c1,0.8,1.5,1.6,1.8,2.8
	c0.5,2.3-0.9,4.9-2.4,6.5c-2.6,2.7-5.2,4.6-8.6,5.9c-1.5,0.6-3.8,1.1-5.5,1c-0.5,0-1.1-0.2-1.6-0.2c-0.3,0-1.2-0.3-1.3-0.3
	C79.5,24.4,79.4,24.3,79.3,24.3z M82.4,29.5c0.1,0,0.3,0.1,0.4,0.1c1.2,0.4,1.7,1.5,2,2.7c0.7,2.8,1,9,1.1,11.4
	c0.1,1.8,0.1,3.6,0.2,5.4c0.1,1.5,0.2,3.5-0.1,5c-0.1,0.5-0.5,1.1-0.9,1.4c-0.6,0.4-1.8,0.4-2.5,0.2c-1.7-0.4-2.3-1.5-2.5-3.2
	c-0.6-4.1-0.3-12.1,0-15.5c0.1-1.1,0.5-4.7,1.1-6.2C81.2,30.4,81.6,29.4,82.4,29.5z M29.6,36.3c0,0-2.6,0.2-4.4,0.4
	c-2.3,0.2-6.5,1-9,1.8c-0.7,0.3-2.2,0.9-2.4,1.6c-0.1,0.8,0.3,1.4,0.9,2c0.3,0.4,2.1,2.1,2.6,2.5c2.1,1.7,6.3,4.4,9.4,5.7
	c1.1,0.4,2.8,1.1,2.8,1.1s-0.1-5-0.1-10C29.6,38.9,29.6,36.3,29.6,36.3z M76.9,38.3c0.1,1.3-0.2,3.9-0.3,4.2
	c-0.1,0.8-0.7,2.6-0.8,2.8c-0.5,1.1-0.9,2-1.4,2.9c-0.8,1.5-2.9,3.9-4.1,5c-4.4,3.8-11.3,6-17.2,6.7c-4,0.5-8.6,0.4-12.8-0.4
	c-1.5-0.3-3.6-0.8-3.6-0.8s0,0.9-0.1,1.5c0,0.3-0.2,1-0.4,1.2c-0.3,0.6-0.8,1-1.6,1.1c-0.9,0.2-1.8,0.2-2.7-0.1
	c-1.3-0.6-1.8-1.8-2.1-3.3C29.8,58,29.6,56,29.6,56s-1-0.5-1.8-0.9c-2.6-1.3-5-2.8-7.2-4.4c-0.6-0.4-3.1-2.6-3.7-3.1
	c-1.6-1.5-3-3-4.1-4.9c-0.8-1.5-1.1-2.8-0.4-4.4c0.9-2.2,4.1-3.9,6.2-4.8c1.6-0.7,6.5-2.3,8.6-2.6c1-0.1,2.5-0.4,2.6-0.5
	c0,0,0.1-0.1,0.1-0.1c0-0.1,0.1-2.2,0.1-3c0-0.8,0.6-5.9,0.8-7c0.1-0.6,0.5-2.9,1-3.5c0.3-0.4,0.8-0.4,1.3-0.1
	c2.4,1.5,3.1,6.5,3.2,9.1c0.1,1.6,0.2,3.9,0.2,3.9s2.7-0.1,4.4,0c1.6,0,3.4,0.3,5.1,0.6c2.1,0.3,6.3,1.3,8.7,2.5
	c2,1,3.8,2.7,4.4,4.5c0.6,1.6,0.5,2.8-0.4,4.2c-1,1.7-2.8,2.9-4.6,3c-0.5,0-2.6-0.2-3.2-0.7c-0.2-0.2-0.2-0.5-0.1-0.8
	c0.1-0.1,1-0.6,1.6-0.9c0.3-0.2,0.5-0.3,0.7-0.5c0.5-0.4,0.9-0.9,0.8-1.4c-0.1-0.7-0.8-1.1-1.5-1.4c-3.3-1.3-9.8-2.4-13-2.6
	c-1.2-0.1-3-0.1-3-0.1l0.4,17.4c0,0,1.5,0.3,2.6,0.5c0.7,0.1,3.4,0.4,4.2,0.4c5.6,0.1,11.9-0.4,17.1-2.8c2.3-1.1,4.4-2.4,5.9-4.2
	c2.1-2.4,3.2-5.6,2.9-9c-0.3-3.7-2.9-8.1-5-10.8c-5.5-7.1-15-12.9-23.4-16.4c-8.5-3.5-16.9-5.5-26-5.8c-2.3-0.1-7.4,0-10,0.7
	C4.8,6.1,4.5,6.2,4.1,6.3C3.9,6.3,3.4,6.5,3.3,6.6C3.3,6.7,3.2,6.7,3.2,6.7s0.2,0.1,0.3,0.2c0.3,0.1,1.4,0.2,2,0.3
	C6,7.3,6.6,7.6,6.8,8c0.2,0.4,0.2,0.7,0,1C6.2,9.6,4,9.5,3.1,9.4C2.1,9.2,0.8,8.9,0.6,8c-0.3-1,0.2-2,0.8-3c1.1-1.9,2.6-2.8,4.8-3.4
	C9.3,0.8,13.3,0.1,16.3,0C23-0.2,29.4,1,35.9,2.9c3.7,1.1,8.6,3,12.2,4.7c2.6,1.2,6.6,3.5,8.9,5c0.7,0.5,4.9,3.6,5.6,4.1
	c1.4,1.1,3.1,2.7,4.4,4c2.5,2.5,5.6,6.3,7.1,9.3c0.4,0.7,0.6,1.4,1.1,2.3c0.2,0.3,0.9,2,1,2.5c0.1,0.5,0.3,1.2,0.3,1.2
	C76.6,36.3,77,37.7,76.9,38.3z M161.8,34.5c-3.2,0.7-11.5,1.1-11.5,1.1l-1,3.3c0,0,4.2-0.4,7.2,0c0,0,1-0.1,1.1,1.1
	c0,1.1-0.1,2.4-0.1,2.4s-0.1,0.7-1.1,0.9c-1.1,0.2-9,0.5-9,0.5l-1.3,4.3c0,0-0.5,1,0.6,0.7c1-0.3,9.2-1.8,10.2-1.6
	c1.1,0.3,2.4,1.8,2,3.2c-0.4,1.7-8.6,6.9-13.6,6.6c0,0-2.6,0.2-4.8-3.4c-2.1-3.4,0.8-9.7,0.8-9.7s-1.3-3-0.4-4c0,0,0.6-0.5,2.2-0.6
	l2-4.1c0,0-2.3,0.2-3.6-1.5c-1.3-1.6-1.4-2.3-0.4-2.8c1-0.5,10.5-2.2,17.1-2c0,0,2.3-0.2,4.2,3.7C162.5,32.5,163.4,34.1,161.8,34.5z
	 M137.2,50.4c-0.8,2-3.1,4.1-5.8,2.8c-2.7-1.3-7-10.1-7-10.1s-1.6-3.3-2-3.2c0,0-0.4-0.6-0.6,3c-0.2,3.6,0,10.6-1.4,11.7
	c-1.4,1.1-3,0.7-3.9-0.6c-0.8-1.3-1.1-4.3-0.7-9.6c0.5-5.3,1.7-11,3.3-12.7c1.6-1.7,2.8-0.5,3.3,0c0,0,2.1,1.9,5.6,7.5l0.6,1
	c0,0,3.2,5.3,3.5,5.3c0,0,0.3,0.2,0.5,0.1c0.3-0.1,0.2-1.8,0.2-1.8s-0.7-5.8-3.5-15.5c0,0-0.4-1.2-0.1-2.4c0.3-1.2,1.4-0.6,1.4-0.6
	s4.5,2.2,6.6,9.5C139.5,41.8,138.1,48.4,137.2,50.4z M185.3,46c-2,3.5-7.8,11-15.4,9.2c-2.5,6.1-4.6,12.3-5.8,21.5
	c0,0-0.3,1.8-1.8,1.2c-1.5-0.5-3.9-3-4.4-6.4c-0.5-4.5,1.5-12,5.5-20.7c-1.2-1.9-2-4.7-1.3-8.6c0,0,1-7.3,8.3-13.8
	c0,0,0.9-0.8,1.4-0.5c0.6,0.2,0.3,2.6-0.1,3.8c-0.5,1.1-3.7,6.8-3.7,6.8s-2,3.8-1.5,6.8c3.8-5.9,12.6-17.8,18-14
	c1.8,1.3,2.7,4.1,2.7,7.2C187.2,41,186.5,43.9,185.3,46z M183.7,36.7c0,0-0.3-2.3-2.6,0.2c-2,2.2-5.5,6.3-8.4,11.8
	c3-0.3,5.9-2,6.8-2.8C181,44.7,184.3,41.2,183.7,36.7z M227.4,36.1h-14c-0.3-4.7-0.9-9.4-1.8-14.1c-0.1-0.5-0.5-0.8-1-0.8h-3.2
	c-0.3,0-0.5,0.1-0.7,0.3c-0.2,0.2-0.3,0.5-0.2,0.8c0.9,4.6,1.5,9.1,1.8,13.8h-13.5c-0.6,0-1.1,0.5-1.1,1.1v2.9
	c0,0.6,0.5,1.1,1.1,1.1h13.6c0,0.7,0,1.4,0,2c0,4.2-0.2,7.6-0.6,11.5c0,0.3,0.1,0.6,0.3,0.8c0.2,0.2,0.5,0.3,0.8,0.3h3
	c0.6,0,1.1-0.4,1.1-1c0.4-3.9,0.6-7.4,0.6-11.7c0-0.6,0-1.2,0-2h13.8c0.6,0,1.1-0.5,1.1-1.1v-2.9C228.5,36.7,228,36.1,227.4,36.1z"
	/>
</svg>
