<?xml version="1.0" encoding="utf-8"?>
<!-- Generator: Adobe Illustrator 22.1.0, SVG Export Plug-In . SVG Version: 6.00 Build 0)  -->
<svg version="1.1" id="Слой_1" xmlns="http://www.w3.org/2000/svg" xmlns:xlink="http://www.w3.org/1999/xlink" x="0px" y="0px"
	 viewBox="0 0 216 59" style="enable-background:new 0 0 216 59;" xml:space="preserve">
<style type="text/css">
	.st0{fill:#D81F26;}
</style>
<path class="st0" d="M29.7,54.6c-3.2,0.6-6.6,0.7-10,1.2L9.3,25.5v31.7C6,57.5,3.1,57.9,0,58.4v-58h8.7l11.9,32.9V0.4h9.2V54.6z
	 M47.7,21.6c3.5,0,9-0.2,12.2-0.2v9.1c-4,0-8.8,0-12.2,0.2v13.5c5.4-0.3,10.7-0.8,16.1-1v8.7l-25.3,2V0.4h25.3v9.1H47.7V21.6z
	 M97.7,9.4h-9.5v41.7c-3.1,0-6.2,0-9.1,0.1V9.4h-9.5V0.4h28L97.7,9.4z M112.5,21H125v9.1h-12.5v20.6h-9V0.4h25.5v9.1h-16.5V21z
	 M143.9,42.7c5.2,0.1,10.4,0.5,15.5,0.8v8.9c-8.2-0.5-16.3-1-24.6-1.2V0.4h9.1V42.7z M167.1,53c2.9,0.2,6,0.3,8.9,0.7V0.4h-8.9V53z
	 M216,0.4L204.4,28L216,58.4c-3.4-0.5-6.8-1.1-10.3-1.6L199.2,40l-6.7,15.4c-3.3-0.6-6.5-0.7-9.8-1.2l11.7-26.6L183.8,0.4h9.8
	l6,15.2L206,0.4H216L216,0.4z"/>
</svg>
