<?xml version="1.0" encoding="utf-8"?>
<!-- Generator: Adobe Illustrator 22.1.0, SVG Export Plug-In . SVG Version: 6.00 Build 0)  -->
<svg version="1.1" id="Слой_1" xmlns="http://www.w3.org/2000/svg" xmlns:xlink="http://www.w3.org/1999/xlink" x="0px" y="0px"
	 viewBox="0 0 230 65" style="enable-background:new 0 0 230 65;" xml:space="preserve">
<style type="text/css">
	.st0{fill:#353C41;}
</style>
<path class="st0" d="M22.6,24.9C13.6,22.7,12,21.2,12,18.1c0-3,2.8-5,7-5c4.1,0,8.1,1.5,12.4,4.7c0.1,0.1,0.3,0.1,0.4,0.1
	c0.2,0,0.3-0.1,0.4-0.2l4.4-6.2c0.2-0.3,0.1-0.6-0.1-0.8c-5.1-4-10.7-6-17.4-6c-9.8,0-16.6,5.8-16.6,14.2c0,9,5.9,12.1,16.1,14.6
	c8.7,2,10.1,3.7,10.1,6.6c0,3.3-3,5.4-7.7,5.4c-5.3,0-9.6-1.8-14.4-5.9c-0.1-0.1-0.3-0.1-0.4-0.1c-0.2,0-0.3,0.1-0.4,0.2l-5,5.9
	c-0.2,0.2-0.2,0.6,0.1,0.8c5.6,5,12.5,7.6,20,7.6c10.5,0,17.3-5.7,17.3-14.6C38.2,31.7,33.7,27.6,22.6,24.9L22.6,24.9z M62,16
	c-4.6,0-8.3,1.8-11.4,5.5v-4.1c0-0.3-0.3-0.6-0.6-0.6h-8.1c-0.3,0-0.6,0.3-0.6,0.6v45.9c0,0.3,0.3,0.6,0.6,0.6H50
	c0.3,0,0.6-0.3,0.6-0.6V48.8c3.1,3.5,6.8,5.1,11.4,5.1c8.5,0,17.1-6.5,17.1-19C79.1,22.5,70.5,16,62,16L62,16z M69.6,35
	c0,6.3-3.9,10.8-9.5,10.8c-5.5,0-9.7-4.6-9.7-10.8c0-6.1,4.2-10.8,9.7-10.8C65.6,24.2,69.6,28.7,69.6,35z M101.1,16
	c-10.9,0-19.5,8.4-19.5,19.1C81.6,45.7,90.1,54,101,54c11,0,19.6-8.4,19.6-19C120.5,24.3,112,16,101.1,16L101.1,16z M101.1,45.8
	c-5.8,0-10.2-4.7-10.2-10.8c0-6.2,4.2-10.7,10.1-10.7c5.8,0,10.3,4.7,10.3,10.8C111.2,41.3,107,45.8,101.1,45.8z M143.9,16.7h-8.9
	V7.6c0-0.3-0.3-0.6-0.6-0.6h-8.1c-0.3,0-0.6,0.3-0.6,0.6v9.1h-3.9c-0.3,0-0.6,0.3-0.6,0.6v6.9c0,0.3,0.3,0.6,0.6,0.6h3.9v18
	c0,7.3,3.6,10.9,10.8,10.9c2.9,0,5.3-0.6,7.6-1.9c0.2-0.1,0.3-0.3,0.3-0.5v-6.6c0-0.2-0.1-0.4-0.3-0.5c-0.2-0.1-0.4-0.1-0.6,0
	c-1.6,0.8-3.1,1.1-4.8,1.1c-2.6,0-3.8-1.2-3.8-3.8V24.9h8.9c0.3,0,0.6-0.3,0.6-0.6v-6.9C144.5,17,144.2,16.7,143.9,16.7L143.9,16.7z
	 M174.9,16.8v-1.1c0-3.3,1.3-4.8,4.1-4.8c1.7,0,3.1,0.3,4.6,0.8c0.2,0.1,0.4,0,0.5-0.1c0.2-0.1,0.2-0.3,0.2-0.5V4.4
	c0-0.3-0.2-0.5-0.4-0.6c-1.6-0.5-3.7-1-6.7-1c-7.5,0-11.4,4.2-11.4,12.2v1.7h-3.9c-0.3,0-0.6,0.3-0.6,0.6v7c0,0.3,0.3,0.6,0.6,0.6
	h3.9v27.7c0,0.3,0.3,0.6,0.6,0.6h8.1c0.3,0,0.6-0.3,0.6-0.6V24.9h7.6l11.6,27.7c-1.3,2.9-2.6,3.5-4.4,3.5c-1.4,0-2.9-0.4-4.5-1.3
	c-0.1-0.1-0.3-0.1-0.5,0c-0.2,0.1-0.3,0.2-0.4,0.3l-2.7,6c-0.1,0.3,0,0.6,0.3,0.8c2.9,1.5,5.5,2.2,8.7,2.2c6,0,9.3-2.8,12.2-10.3
	L217,17.6c0.1-0.2,0.1-0.4-0.1-0.5c-0.1-0.2-0.3-0.3-0.5-0.3H208c-0.3,0-0.5,0.2-0.6,0.4l-8.6,24.6l-9.5-24.6
	c-0.1-0.2-0.3-0.4-0.6-0.4L174.9,16.8L174.9,16.8z M156.9,16.7h-8.1c-0.3,0-0.6,0.3-0.6,0.6v35.3c0,0.3,0.3,0.6,0.6,0.6h8.1
	c0.3,0,0.6-0.3,0.6-0.6V17.3C157.5,17,157.3,16.7,156.9,16.7L156.9,16.7z M152.9,0.7c-3.2,0-5.8,2.6-5.8,5.8c0,3.2,2.6,5.8,5.8,5.8
	s5.8-2.6,5.8-5.8C158.7,3.3,156.1,0.7,152.9,0.7z M224,28.1c-3.2,0-5.7-2.6-5.7-5.7s2.5-5.7,5.7-5.7c3.2,0,5.7,2.6,5.7,5.7
	C229.7,25.5,227.2,28.1,224,28.1z M224,17.2c-2.9,0-5.1,2.3-5.1,5.2c0,2.8,2.2,5.1,5.1,5.1c2.9,0,5.1-2.3,5.1-5.2
	C229.1,19.5,226.9,17.2,224,17.2z M225.2,22.9l1.6,2.3h-1.4l-1.5-2.1h-1.2v2.1h-1.1v-6h2.7c1.4,0,2.3,0.7,2.3,1.9
	C226.6,22.1,226.1,22.7,225.2,22.9L225.2,22.9z M224.3,20.2h-1.5v1.9h1.5c0.7,0,1.2-0.4,1.2-0.9C225.5,20.6,225,20.2,224.3,20.2z"/>
</svg>
