<svg width="593" height="609" viewBox="0 0 593 609" fill="none" xmlns="http://www.w3.org/2000/svg">
<path fill-rule="evenodd" clip-rule="evenodd" d="M475.726 415.14C451.461 455.553 425.799 496.491 388.132 519.021C352.263 540.477 313.402 537.067 275.732 534.769C238.89 532.52 204.634 524.527 173.488 505.923C134.665 482.732 90.7924 461.837 74.7965 414.743C57.2348 363.04 64.021 300.208 84.3513 243.495C105.882 183.432 137.457 114.027 190.581 91.7539C243.523 69.5573 284.209 131.243 336.808 137.649C383.211 143.299 437.268 102.071 476.514 126.574C517.586 152.217 540.843 208.311 540.688 264.942C540.541 318.822 504.398 367.386 475.726 415.14Z" fill="#F5F8FA"/>
</svg>
