<svg width="1198" height="1061" viewBox="0 0 1198 1061" fill="none" xmlns="http://www.w3.org/2000/svg">
<path fill-rule="evenodd" clip-rule="evenodd" d="M1107.9 494.52C1108.01 588.566 1105.87 685.056 1056.06 764.828C1008.63 840.793 924.11 879.193 843.431 918.074C764.526 956.101 683.824 981.736 596.356 986.371C487.328 992.15 370.722 1007.43 279.143 947.982C178.599 882.717 114.522 771.546 86.0318 655.112C55.8592 531.802 34.8221 381.728 116.887 284.872C198.669 188.35 359.391 243.864 476.016 194.837C578.902 151.585 639.333 22.4531 750.866 18.3582C867.587 14.0729 985.353 80.1168 1055.42 173.564C1122.09 262.472 1107.78 383.395 1107.9 494.52Z" fill="#F5F8FA"/>
</svg>
