<svg width="87" height="38" viewBox="0 0 87 38" xmlns="http://www.w3.org/2000/svg">
	<path fill-rule="evenodd" clip-rule="evenodd" d="M86.3783 0.882324H0.621704V37.1175H86.3783V0.882324ZM43.4746 6.99931C39.8085 6.99931 36.8366 9.98091 36.8366 13.6589V17.852H17.638C13.972 17.852 11.0001 20.8336 11.0001 24.5116C11.0001 28.1895 13.972 31.1711 17.638 31.1711H69.8028C73.4688 31.1711 76.4408 28.1895 76.4408 24.5116C76.4408 20.8336 73.4688 17.852 69.8028 17.852H50.1125V13.6589C50.1125 9.98091 47.1406 6.99931 43.4746 6.99931Z" fill="#fff"/>
	<path fill-rule="evenodd" clip-rule="evenodd" d="M36.3804 13.8236C36.3804 9.87105 39.5747 6.66406 43.5184 6.66406C47.4621 6.66406 50.6563 9.87105 50.6563 13.8236V17.0166H69.8466C73.7903 17.0166 76.9846 20.2235 76.9846 24.1761C76.9846 28.1287 73.7903 31.3357 69.8466 31.3357H17.6818C13.7381 31.3357 10.5439 28.1287 10.5439 24.1761C10.5439 20.2235 13.7381 17.0166 17.6818 17.0166H36.3804V13.8236ZM36.3804 18.0166H17.6818C14.2935 18.0166 11.5439 20.7728 11.5439 24.1761C11.5439 27.5795 14.2935 30.3357 17.6818 30.3357H69.8466C73.235 30.3357 75.9846 27.5795 75.9846 24.1761C75.9846 20.7728 73.235 18.0166 69.8466 18.0166H50.6563L49.6563 18.0167V13.8236C49.6563 10.4203 46.9067 7.66406 43.5184 7.66406C40.13 7.66406 37.3804 10.4203 37.3804 13.8236V18.0167L36.3804 18.0166Z" fill="#ebecec"/>
</svg>
