<svg width="162" height="165" viewBox="0 0 162 165" fill="none" xmlns="http://www.w3.org/2000/svg">
<path d="M143.572 163.488L46.957 154.849C45.8149 154.747 44.1025 153.088 44.2807 151.095L54.2556 39.5412C54.3576 38.4009 55.1099 35.6011 59.0494 36.4559L154.668 45.0052C155.81 45.1074 157.522 46.7665 157.344 48.7585L147.28 161.309C147.178 162.45 145.066 163.621 143.572 163.488Z" fill="white"/>
<path d="M109.891 40.4994L58.874 37.5873C56.4211 37.4946 54.3772 39.1099 54.298 41.2037L50.5618 137.921L49.9651 138.05L28.0218 142.297C26.7682 142.578 25.4612 141.922 25.1171 140.848L1.41358 29.7962C1.06946 28.7221 2.01009 26.2265 3.26369 25.9455L98.9304 5.88618C100.469 5.52127 102.393 7.16053 102.737 8.23457L109.733 39.9882L109.891 40.4994Z" fill="white"/>
<path d="M100.67 40.3163L58.2653 36.5245C56.2483 36.3442 54.4748 37.8242 54.2947 39.838L45.8814 133.928L45.3824 134.03L34.6974 136.279C33.6486 136.503 32.6071 135.823 32.3823 134.776L10.4725 31.0771C10.2477 30.0298 10.9285 28.9902 11.9774 28.766L28.4542 25.2991L76.1844 15.2844L92.6611 11.8175C93.71 11.5933 94.7514 12.2734 94.9762 13.3207L100.568 39.818L100.67 40.3163Z" fill="#E4E8EB"/>
<path d="M109.972 40.6592L103.227 8.70282C102.766 6.46052 100.566 5.04096 98.3205 5.50049L75.1532 10.3746L27.4187 20.4378L4.25141 25.3119C2.00359 25.7957 0.582451 27.992 1.04549 30.21L24.1326 139.37C24.5132 141.14 26.0107 142.472 27.8333 142.635C28.2464 142.672 28.666 142.637 29.0657 142.55L44.9441 139.201L45.4431 139.099L45.4887 138.589L44.9896 138.691L28.9611 142.076C26.9893 142.487 25.0435 141.237 24.6338 139.243L1.54452 30.1079C1.13269 28.139 2.38417 26.1966 4.356 25.7859L27.5233 20.9118L75.2556 10.8729L98.4229 5.99878C98.7718 5.93215 99.1428 5.89195 99.5073 5.92455C101.111 6.06796 102.427 7.23728 102.752 8.80711L109.461 40.6136L109.564 41.1119L110.074 41.1575L109.972 40.6592Z" fill="#B2B6B9"/>
<path d="M30.899 30.557C29.927 30.4701 29.1571 29.7654 28.948 28.8174L26.7265 18.3225C26.4662 17.1253 27.2308 15.9709 28.4276 15.7355L72.3421 6.48013C73.541 6.22049 74.6975 6.98422 74.9336 8.17925L77.155 18.6741C77.3911 19.8691 76.6508 21.0258 75.454 21.2611L31.5395 30.5165C31.3386 30.5719 31.1177 30.5766 30.899 30.557Z" fill="#51AAE6"/>
<path d="M49.0986 11.9336C51.7828 12.1736 54.153 10.1956 54.3926 7.51563C54.6323 4.83566 52.6506 2.46855 49.9664 2.22853C47.2822 1.98852 44.9119 3.96649 44.6723 6.64646C44.4327 9.32643 46.4144 11.6935 49.0986 11.9336Z" fill="#51AAE6"/>
<path d="M49.2568 10.1633C50.9613 10.3157 52.4664 9.05966 52.6186 7.35788C52.7707 5.6561 51.5123 4.15298 49.8079 4.00057C48.1034 3.84816 46.5983 5.10418 46.4462 6.80596C46.294 8.50774 47.5524 10.0109 49.2568 10.1633Z" fill="#F5F8FA"/>
<path d="M137.66 151.234L55.5235 143.889C54.3814 143.787 53.5404 142.782 53.6424 141.642L62.4289 43.3787C62.5308 42.2384 63.5367 41.399 64.6788 41.5011L146.816 48.8456C147.958 48.9477 148.799 49.9523 148.697 51.0926L139.91 149.356C139.808 150.496 138.802 151.336 137.66 151.234Z" fill="#E4E8EB"/>
<path d="M109.462 40.6133L58.3089 36.0393C56.0246 35.8351 54.0129 37.5139 53.8089 39.7946L44.9617 138.737L45.4607 138.635L54.2949 39.838C54.475 37.8242 56.2485 36.3442 58.2655 36.5246L109.565 41.1116L109.462 40.6133ZM154.054 44.6006L58.3089 36.0393C56.0246 35.8351 54.0129 37.5139 53.8089 39.7946L43.8726 150.917C43.6686 153.198 45.3506 155.207 47.6349 155.411L143.38 163.973C145.664 164.177 147.676 162.498 147.88 160.217L157.816 49.0947C158.02 46.814 156.338 44.8049 154.054 44.6006ZM147.394 160.174C147.214 162.188 145.441 163.668 143.424 163.487L47.6783 154.926C45.6613 154.746 44.1785 152.975 44.3586 150.961L54.2949 39.838C54.475 37.8242 56.2485 36.3442 58.2655 36.5246L154.011 45.0859C156.028 45.2663 157.511 47.0374 157.33 49.0512L147.394 160.174Z" fill="#B2B6B9"/>
<path d="M127.584 52.9944L82.8701 48.9962C81.655 48.8875 80.7698 47.8301 80.8782 46.617L81.8328 35.9414C81.9413 34.7283 83.0001 33.8447 84.2151 33.9534L128.929 37.9516C130.144 38.0602 131.029 39.1176 130.92 40.3308L129.966 51.0063C129.86 52.1951 128.799 53.103 127.584 52.9944Z" fill="#51AAE6"/>
<path d="M106.507 36.6806C109.191 36.9207 111.561 34.9427 111.801 32.2627C112.041 29.5827 110.059 27.2156 107.375 26.9756C104.69 26.7356 102.32 28.7136 102.081 31.3935C101.841 34.0735 103.823 36.4406 106.507 36.6806Z" fill="#51AAE6"/>
<path d="M106.676 34.7887C108.313 34.9351 109.759 33.7285 109.905 32.0937C110.051 30.459 108.843 29.015 107.205 28.8686C105.568 28.7222 104.122 29.9288 103.976 31.5635C103.83 33.1983 105.038 34.6423 106.676 34.7887Z" fill="#F5F8FA"/>
</svg>
