<svg width="71" height="71" viewBox="0 0 71 71" fill="none" xmlns="http://www.w3.org/2000/svg">
<path d="M12.0033 7.59636C10.2532 7.54296 8.78553 8.9237 8.73213 10.6738L7.24718 59.346C7.19378 61.0961 8.57452 62.5637 10.3246 62.6171L58.9968 64.1021C60.7469 64.1555 62.2145 62.7747 62.2679 61.0246L63.7529 12.3524C63.8063 10.6024 62.4256 9.13471 60.6755 9.08131L12.0033 7.59636ZM11.9387 9.71254L60.6109 11.1975C61.195 11.2153 61.6545 11.7038 61.6367 12.2879L60.1518 60.9601C60.1339 61.5442 59.6455 62.0037 59.0614 61.9859L10.3892 60.5009C9.8051 60.4831 9.34554 59.9946 9.36336 59.4106L10.8483 10.7383C10.8661 10.1543 11.3546 9.69472 11.9387 9.71254ZM13.8217 52.133C13.2366 52.1152 12.7492 52.5737 12.7313 53.1589L12.6668 55.275C12.6489 55.8602 13.1074 56.3476 13.6926 56.3654C14.2777 56.3833 14.7651 55.9247 14.7829 55.3396L14.8475 53.2234C14.8654 52.6383 14.4068 52.1509 13.8217 52.133ZM19.1122 52.2945C18.527 52.2766 18.0396 52.7351 18.0218 53.3203L17.9572 55.4365C17.9394 56.0216 18.3979 56.509 18.983 56.5268C19.5682 56.5447 20.0556 56.0861 20.0734 55.501L20.138 53.3848C20.1558 52.7997 19.6973 52.3123 19.1122 52.2945ZM24.4026 52.4559C23.8175 52.438 23.3301 52.8966 23.3122 53.4817L23.2477 55.5979C23.2298 56.183 23.6884 56.6704 24.2735 56.6882C24.8586 56.7061 25.346 56.2475 25.3639 55.6624L25.4284 53.5462C25.4463 52.9611 24.9877 52.4737 24.4026 52.4559ZM29.6931 52.6173C29.1079 52.5994 28.6206 53.058 28.6027 53.6431L28.5381 55.7593C28.5203 56.3444 28.9788 56.8318 29.5639 56.8496C30.1491 56.8675 30.6365 56.409 30.6543 55.8238L30.7189 53.7076C30.7367 53.1225 30.2782 52.6351 29.6931 52.6173ZM34.9835 52.7787C34.3984 52.7608 33.911 53.2194 33.8932 53.8045L33.8286 55.9207C33.8107 56.5058 34.2693 56.9932 34.8544 57.011C35.4395 57.0289 35.9269 56.5704 35.9448 55.9852L36.0093 53.8691C36.0272 53.2839 35.5687 52.7965 34.9835 52.7787ZM40.274 52.9401C39.6889 52.9222 39.2015 53.3808 39.1836 53.9659L39.1191 56.0821C39.1012 56.6672 39.5597 57.1546 40.1449 57.1725C40.73 57.1903 41.2174 56.7318 41.2352 56.1466L41.2998 54.0305C41.3176 53.4453 40.8591 52.9579 40.274 52.9401ZM45.5644 53.1015C44.9793 53.0836 44.4919 53.5422 44.4741 54.1273L44.4095 56.2435C44.3917 56.8286 44.8502 57.316 45.4353 57.3339C46.0204 57.3517 46.5078 56.8932 46.5257 56.3081L46.5903 54.1919C46.6081 53.6067 46.1496 53.1194 45.5644 53.1015ZM50.8549 53.2629C50.2698 53.2451 49.7824 53.7036 49.7645 54.2887L49.7 56.4049C49.6821 56.99 50.1407 57.4774 50.7258 57.4953C51.3109 57.5131 51.7983 57.0546 51.8162 56.4695L51.8807 54.3533C51.8986 53.7682 51.44 53.2808 50.8549 53.2629ZM56.1454 53.4243C55.5602 53.4065 55.0728 53.865 55.055 54.4501L54.9904 56.5663C54.9726 57.1514 55.4311 57.6388 56.0162 57.6567C56.6014 57.6745 57.0888 57.216 57.1066 56.6309L57.1712 54.5147C57.189 53.9296 56.7305 53.4422 56.1454 53.4243Z" fill="#353C41"/>
<path d="M33.9971 15.681C34.0149 15.0959 34.5023 14.6373 35.0875 14.6552C35.6726 14.673 36.1311 15.1604 36.1133 15.7455L35.9975 19.5398L38.4977 17.1876C38.924 16.7865 39.5928 16.807 39.9939 17.2333C40.395 17.6596 40.3746 18.3284 39.9483 18.7295L35.9062 22.5322L35.6527 30.8419L42.9753 26.9076L44.573 21.5928C44.7415 21.0334 45.3353 20.7168 45.8936 20.8842C46.4529 21.0528 46.7707 21.6435 46.6022 22.2028L45.6124 25.4905L48.9562 23.6936C49.4677 23.4148 50.1133 23.6084 50.391 24.1242C50.6686 24.6389 50.4741 25.2803 49.9584 25.5569L46.6167 27.3538L49.9023 28.3435C50.4617 28.5121 50.7794 29.1028 50.6109 29.6621C50.4706 30.1302 50.0327 30.4305 49.566 30.4163C49.4751 30.4135 49.3836 30.3978 49.2923 30.3707L43.9796 28.771L36.6548 32.7073L43.726 37.0828L49.1264 35.8099C49.696 35.6748 50.2652 36.0279 50.3993 36.5976C50.5334 37.1672 50.1802 37.7364 49.6117 37.8705L46.2718 38.6581L49.4977 40.6554C49.9957 40.9629 50.1507 41.6139 49.8422 42.1118C49.6361 42.4444 49.2746 42.624 48.9085 42.6128C48.7297 42.6074 48.548 42.5555 48.3859 42.4542L45.1579 40.4568L45.9454 43.7987C46.0794 44.3683 45.7263 44.9375 45.1577 45.0716C45.0649 45.0931 44.9707 45.1031 44.8797 45.1004C44.412 45.0861 43.9942 44.7607 43.8827 44.2839L42.612 38.8815L35.5408 34.5081L35.2873 42.8178L39.09 46.8599C39.4911 47.2862 39.4707 47.955 39.0444 48.3561C38.8317 48.5561 38.5577 48.6515 38.2868 48.6432C38.0159 48.635 37.7482 48.523 37.5482 48.3104L35.196 45.8102L35.0803 49.6045C35.0624 50.1896 34.575 50.6481 33.9899 50.6303C33.4048 50.6124 32.9462 50.125 32.9641 49.5399L33.0798 45.7457L30.5796 48.0978C30.1533 48.4989 29.4845 48.4785 29.0834 48.0522C28.6823 47.6258 28.7027 46.957 29.1291 46.556L33.1711 42.7532L33.4246 34.4435L26.1021 38.3778L24.5044 43.6927C24.3641 44.1608 23.9261 44.4611 23.4595 44.4469C23.3685 44.4441 23.275 44.4284 23.1837 44.4012C22.6244 44.2327 22.3066 43.642 22.4752 43.0826L23.4649 39.7949L20.1212 41.5918C19.9521 41.683 19.7677 41.7238 19.5878 41.7183C19.2217 41.7071 18.8728 41.5069 18.6864 41.1612C18.4087 40.6465 18.6032 40.0051 19.1189 39.7285L22.4606 37.9316L19.175 36.9419C18.6157 36.7734 18.2979 36.1827 18.4664 35.6233C18.6349 35.064 19.2257 34.7462 19.785 34.9148L25.0978 36.5145L32.4225 32.5782L25.3493 28.2026L19.9489 29.4754C19.8561 29.497 19.7639 29.507 19.6729 29.5043C19.2052 29.49 18.7874 29.1646 18.676 28.6878C18.5419 28.1182 18.895 27.549 19.4636 27.4149L22.8034 26.6273L19.5775 24.63C19.0807 24.3225 18.9256 23.6705 19.2331 23.1736C19.5405 22.6768 20.1946 22.5228 20.6915 22.8313L23.9195 24.8287L23.132 21.4868C22.9979 20.9171 23.351 20.3479 23.9196 20.2138C24.4914 20.0798 25.0605 20.4319 25.1946 21.0015L26.4653 26.4039L33.5365 30.7774L33.79 22.4676L29.9873 18.4256C29.5862 17.9993 29.6066 17.3305 30.033 16.9294C30.4593 16.5283 31.1281 16.5487 31.5292 16.975L33.8813 19.4752L33.9971 15.681Z" fill="#3CD1DF"/>
</svg>
