<svg width="71" height="71" viewBox="0 0 71 71" fill="none" xmlns="http://www.w3.org/2000/svg">
<path d="M34.9003 2.79928C34.186 2.81247 33.4761 3.06235 32.8847 3.55104L31.394 4.792C26.4388 8.90857 20.4256 11.3746 14.005 11.9202L10.096 12.2546C8.31884 12.4058 6.99062 13.9735 7.1333 15.7467L8.1081 28.235C9.17944 39.9986 14.7501 50.6559 23.807 58.2427L33.9504 66.7354C34.5687 67.2525 35.3344 67.5005 36.0951 67.4864C36.8559 67.4724 37.6119 67.1963 38.2107 66.6567L48.0293 57.7953C56.7999 49.8792 61.9816 39.0233 62.6133 27.2156L63.1265 14.7166C63.2036 12.9352 61.8184 11.4176 60.0368 11.3321L56.1182 11.1424C49.6817 10.8342 43.5816 8.59192 38.4777 4.66116L36.9422 3.47609C36.3374 3.0095 35.6146 2.78609 34.9003 2.79928ZM34.9403 4.96749C35.177 4.96312 35.4194 5.03897 35.6209 5.19169L37.1565 6.37676C42.6121 10.5801 49.1336 12.9753 56.0144 13.3048L59.933 13.4945C60.5254 13.5216 60.9914 14.0288 60.9644 14.6255L60.4467 27.1118C60.026 35.009 57.4534 42.4555 53.0678 48.8024L53.0604 48.4008C53.0494 47.8049 52.5544 47.3278 51.9584 47.3388C51.3625 47.3498 50.8854 47.8449 50.8964 48.4408L50.9364 50.6048C50.9413 50.8711 51.0513 51.1016 51.2111 51.2847C49.8098 53.0186 48.2716 54.6621 46.5832 56.1858L36.7605 65.0515C36.3612 65.4098 35.7526 65.4211 35.3403 65.0777L25.1969 56.5808C23.4534 55.1206 21.8555 53.535 20.3912 51.8539C20.544 51.6609 20.6454 51.4264 20.6406 51.1644L20.6006 49.0004C20.5895 48.4002 20.0946 47.9274 19.4986 47.9384C18.9027 47.9494 18.4255 48.4402 18.4366 49.0404L18.444 49.4419C13.8271 43.2613 10.9813 35.9191 10.2694 28.0513L9.29064 15.5757C9.24167 14.9847 9.68861 14.4607 10.2796 14.4117L14.1886 14.0774C21.0566 13.4896 27.481 10.8553 32.7777 6.45341L34.2685 5.21667C34.4684 5.05654 34.7036 4.97186 34.9403 4.96749ZM34.9975 8.06132C34.5621 8.06936 34.1292 8.20842 33.7663 8.47303L31.017 10.4729C26.3862 13.8436 20.9232 15.8809 15.2118 16.3712L14.5152 16.4263C13.9158 16.4797 13.4774 17.0078 13.5265 17.603C13.5793 18.1728 14.0607 18.5994 14.627 18.589C14.6482 18.5886 14.6735 18.5881 14.6988 18.5834L15.3996 18.524C21.4994 18.0054 27.3403 15.8258 32.2923 12.2209L35.0374 10.2253L37.8544 12.1181C40.8984 14.1675 44.2328 15.6914 47.764 16.6535C48.3376 16.8078 48.936 16.4712 49.0945 15.8933C49.2487 15.3154 48.9079 14.7213 48.33 14.5629C45.0283 13.6641 41.907 12.2378 39.0643 10.3243L36.243 8.42729C35.8706 8.17626 35.4328 8.05328 34.9975 8.06132ZM52.5991 15.4142C52.0099 15.3321 51.4639 15.7607 51.3861 16.3541C51.3125 16.9474 51.7284 17.4893 52.3217 17.5629C53.1989 17.6735 54.0882 17.7501 54.9642 17.7931L55.6075 17.8278C55.6286 17.8274 55.6582 17.8268 55.6793 17.8264C56.2457 17.816 56.711 17.3719 56.7384 16.7964C56.7697 16.1997 56.3122 15.6923 55.7154 15.6611L55.0723 15.6349C54.2513 15.5951 53.4171 15.5217 52.5991 15.4142ZM24.9086 47.8385C24.3126 47.8495 23.8355 48.3403 23.8466 48.9405L23.8865 51.1044C23.8976 51.7046 24.3926 52.1775 24.9885 52.1664C25.5845 52.1554 26.0616 51.6646 26.0505 51.0645L26.0106 48.9005C25.9996 48.3045 25.5045 47.8275 24.9086 47.8385ZM30.3186 47.7385C29.7226 47.7496 29.2455 48.2404 29.2565 48.8405L29.2965 51.0045C29.3076 51.6047 29.8026 52.0775 30.3985 52.0665C30.9944 52.0555 31.4716 51.5647 31.4605 50.9645L31.4205 48.8006C31.4095 48.2046 30.9145 47.7275 30.3186 47.7385ZM35.7285 47.6386C35.1326 47.6496 34.6554 48.1404 34.6665 48.7406L34.7065 50.9046C34.7176 51.5048 35.2125 51.9776 35.8085 51.9666C36.4044 51.9556 36.8816 51.4648 36.8705 50.8646L36.8305 48.7006C36.8195 48.1047 36.3245 47.6276 35.7285 47.6386ZM41.1385 47.5387C40.5425 47.5497 40.0654 48.0405 40.0765 48.6407L40.1165 50.8047C40.1275 51.4048 40.6225 51.8777 41.2184 51.8667C41.8144 51.8557 42.2915 51.3649 42.2804 50.7647L42.2405 48.6007C42.2295 48.0048 41.7344 47.5277 41.1385 47.5387ZM46.5485 47.4388C45.9525 47.4498 45.4754 47.9406 45.4865 48.5407L45.5264 50.7047C45.5375 51.3049 46.0325 51.7777 46.6284 51.7667C47.2243 51.7557 47.7015 51.2649 47.6904 50.6648L47.6504 48.5008C47.6394 47.9048 47.1444 47.4277 46.5485 47.4388Z" fill="#353C41"/>
<path d="M20.2121 27.9691C20.179 26.1813 21.6103 24.6962 23.3981 24.6632L26.6441 24.6032C28.4319 24.5702 29.917 26.0014 29.95 27.7893C29.9611 28.3894 29.4839 28.8802 28.888 28.8912C28.292 28.9022 27.7971 28.4294 27.786 27.8292C27.775 27.2333 27.28 26.7562 26.684 26.7672L23.4381 26.8272C22.8421 26.8382 22.365 27.3332 22.376 27.9292L22.416 30.0931C22.427 30.6891 22.9221 31.1662 23.518 31.1551L26.764 31.0952C28.5518 31.0622 30.0369 32.4934 30.0699 34.2812L30.1099 36.4452C30.1429 38.233 28.7117 39.7181 26.9239 39.7511L23.6779 39.8111C21.8901 39.8441 20.405 38.4129 20.3719 36.6251C20.3609 36.0249 20.838 35.5341 21.434 35.5231C22.0299 35.5121 22.5248 35.9849 22.5359 36.5851C22.5469 37.181 23.042 37.6581 23.6379 37.6471L26.8839 37.5872C27.4798 37.5761 27.9569 37.0811 27.9459 36.4852L27.9059 34.3212C27.8949 33.7252 27.3999 33.2482 26.8039 33.2592L23.558 33.3191C21.7701 33.3522 20.2851 31.9209 20.252 30.1331L20.2121 27.9691Z" fill="#0A88DD"/>
<path d="M33.196 27.7293C33.163 25.9415 34.5942 24.4564 36.382 24.4234L39.628 24.3634C41.4158 24.3304 42.9009 25.7616 42.9339 27.5494C42.945 28.1496 42.4679 28.6404 41.8719 28.6514C41.276 28.6624 40.781 28.1896 40.7699 27.5894C40.7589 26.9935 40.2639 26.5164 39.668 26.5274L36.422 26.5873C35.826 26.5984 35.349 27.0934 35.36 27.6893L35.3999 29.8533C35.4109 30.4493 35.906 30.9263 36.5019 30.9153L39.7479 30.8554C41.5357 30.8223 43.0208 32.2536 43.0538 34.0414L43.0938 36.2054C43.1268 37.9932 41.6956 39.4783 39.9078 39.5113L36.6618 39.5713C34.874 39.6043 33.3889 38.1731 33.3559 36.3852C33.3448 35.7851 33.8219 35.2943 34.4179 35.2833C35.0138 35.2723 35.5088 35.7451 35.5199 36.3453C35.5309 36.9412 36.0259 37.4183 36.6218 37.4073L39.8678 37.3473C40.4638 37.3363 40.9408 36.8413 40.9298 36.2453L40.8899 34.0814C40.8788 33.4854 40.3838 33.0083 39.7879 33.0193L36.5419 33.0793C34.7541 33.1123 33.269 31.6811 33.236 29.8933L33.196 27.7293Z" fill="#0A88DD"/>
<path d="M46.1399 25.3255C46.1288 24.7253 46.606 24.2345 47.2019 24.2235C47.7979 24.2125 48.2928 24.6853 48.3039 25.2855L48.5238 37.1874L52.8517 37.1075C53.4477 37.0965 53.9426 37.5693 53.9537 38.1695C53.9648 38.7697 53.4877 39.2605 52.8917 39.2715L47.4817 39.3714C46.8858 39.3824 46.3908 38.9096 46.3798 38.3094L46.1399 25.3255Z" fill="#0A88DD"/>
</svg>
