<svg width="240" height="64" viewBox="0 0 240 64" fill="none" xmlns="http://www.w3.org/2000/svg">
	<path d="M70.6118 10.2679C73.0133 7.39904 74.2033 3.7197 73.9328 0C70.2523 0.352502 66.8547 2.11333 64.4603 4.90925C63.268 6.24848 62.3541 7.80829 61.7712 9.49905C61.1884 11.1898 60.9479 12.9782 61.0638 14.7615C62.8973 14.7971 64.714 14.4098 66.3709 13.63C68.0278 12.8502 69.4796 11.6993 70.6118 10.2679V10.2679ZM73.7064 15.4392C68.4229 15.1359 63.9697 18.435 61.4412 18.435C58.9126 18.435 55.0632 15.604 50.9119 15.6789C48.1938 15.7549 45.5433 16.5374 43.2254 17.9483C40.9075 19.3591 39.0033 21.3489 37.7032 23.7187C32.0423 33.4548 36.1937 47.9579 41.7036 55.8853C44.3831 59.6525 47.5909 64.1423 51.8554 63.9963C56.1199 63.8502 57.4408 61.375 62.3092 61.375C67.1775 61.375 68.6116 63.9963 72.8384 63.9026C77.0652 63.809 80.0089 60.128 82.6506 56.0389C84.5561 53.2458 86.0434 50.1934 87.0661 46.9768C84.5284 45.862 82.3696 44.0431 80.8496 41.739C79.3297 39.4349 78.5135 36.744 78.4993 33.9903C78.5306 31.5469 79.1792 29.1504 80.3858 27.0203C81.5924 24.8901 83.3183 23.0944 85.4056 21.7977C84.0794 19.9162 82.3341 18.3631 80.3052 17.2591C78.2763 16.1551 76.0183 15.5298 73.7064 15.4317V15.4392ZM107.408 7.88251V18.5735H116.012V25.6322H107.408V50.9274C107.408 54.702 109.106 56.6268 112.88 56.6268C113.915 56.6082 114.948 56.5332 115.974 56.4021V63.5169C114.29 63.7876 112.586 63.9129 110.88 63.8914C101.973 63.8914 98.5388 60.4576 98.5388 51.8486V25.8007H91.7835V18.7233H98.3501V7.89L107.408 7.88251ZM146.09 63.502H136.655L120.805 18.7233H130.202L141.335 54.702H141.561L152.695 18.7233H161.903L146.09 63.502ZM187.528 63.502H179.376V45.1531H161.865V37.0721H179.338V18.7233H187.49V37.0721H205.001V45.1531H187.528V63.502Z" fill="#333333"/>
</svg>
