<svg width="228" height="79" viewBox="0 0 228 79" fill="none" xmlns="http://www.w3.org/2000/svg">
<path d="M103.509 38.4823C103.635 38.4996 103.663 38.5046 103.786 38.5205C105.839 38.7988 107.857 39.1679 109.401 39.8565C110.833 40.4868 111.672 41.2845 112.438 42.7065C113.603 44.8627 113.679 47.8835 112.626 50.1697C111.84 51.8709 110.113 53.2974 108.537 54.0535C106.901 54.8448 105.288 55.2216 103.439 55.4322C100.205 55.7874 96.7115 55.1191 93.8011 53.7151C92.0793 52.8765 89.9767 51.4323 88.916 49.5717C88.136 48.2086 88.1609 46.4351 89.1098 45.1396C90.6224 43.0749 93.862 42.6203 96.302 42.7065C98.1623 42.7783 101.512 43.3518 103.278 43.9785C103.768 44.155 105.573 44.8565 105.888 45.1783C106.11 45.4021 106.254 45.7272 106.154 46.0279C105.751 47.259 102.751 47.908 101.885 48.0383C99.5663 48.3926 98.3632 47.5173 95.727 46.4793C95.0727 46.2237 94.2006 45.9401 93.5344 45.8787C92.3376 45.765 90.8921 46.0993 90.6636 47.4023C90.5501 48.0738 91.3396 48.7019 91.9418 48.9659C93.3558 49.5717 94.5054 49.7895 95.8971 49.8082C100.008 49.8757 104.629 49.2006 107.992 46.8242C108.452 46.4965 108.904 46.017 108.909 45.4123C108.923 44.1914 106.777 43.4448 106.777 43.4448C104.512 42.5029 100.327 42.0445 98.1705 41.8674C95.9078 41.672 92.3476 41.3798 91.4929 41.2543C90.6128 41.129 89.6568 40.9519 88.8946 40.6112C88.1289 40.2662 87.38 39.4942 87.1577 38.6401C86.7635 37.1004 87.2664 35.2111 88.1237 33.9811C90.3706 30.7593 95.634 29.5357 99.5661 29.0497C103.372 28.5774 109.524 28.5822 113.262 30.5633C113.84 30.8719 114.134 31.1589 114.014 31.7742C113.77 32.9294 112.9 33.6739 111.845 34.0002C110.738 34.3516 108.448 34.4885 107.442 34.5517C102.935 34.8036 97.4895 34.6715 93.1969 35.839C92.8606 35.9347 92.2797 36.0909 92.0909 36.3013C91.419 37.0287 93.3381 37.2366 93.7491 37.3198C93.8713 37.3489 93.8951 37.353 94.0225 37.3669L103.509 38.4823ZM76.6991 18.4399C76.6991 18.4399 77.4321 17.3434 78.0464 16.5116C79.1647 14.9967 81.1886 12.8957 82.7128 11.595C83.1791 11.1977 83.7288 10.7477 83.7288 10.7477C83.7288 10.7477 82.869 10.8364 82.3818 10.9358C81.2254 11.1602 79.5297 12.2842 78.6825 13.0105C77.2844 14.2042 75.747 16.1446 76.4426 17.8687C76.5436 18.1123 76.6991 18.4399 76.6991 18.4399ZM84.4711 20.5143C86.6798 20.3624 88.7487 19.7282 90.6748 18.6626C92.5638 17.6083 95.3422 15.5527 95.054 13.1361C94.9664 12.3538 94.453 11.7633 93.8048 11.4877C92.9623 11.1236 92.523 11.1823 91.4468 11.5013C90.665 11.7294 90.3127 11.8679 89.5745 12.2892C87.4078 13.5447 84.3357 16.2317 82.6679 18.376C82.283 18.8818 81.8932 19.4473 81.5881 19.835C81.3957 20.074 81.2461 20.2935 81.2648 20.3519C81.3314 20.595 83.6086 20.5727 84.4711 20.5143ZM78.8478 24.6339C78.62 24.8742 78.379 25.4536 78.1291 25.8732C77.9955 26.0976 77.7481 26.3867 77.5844 26.5026C77.0096 26.9242 76.5226 26.9438 75.9677 26.4567C75.1895 25.7702 74.7395 24.7085 74.7075 23.6756C74.6909 23.2249 74.7684 22.7262 74.6829 22.3462C74.5413 21.7047 73.8977 21.0439 73.5507 20.4306C73.1432 19.7082 72.8135 18.4484 72.7725 17.635C72.6327 15.0988 73.9731 12.7625 75.7144 10.9198C77.4679 9.05652 79.762 7.50793 82.2571 6.4537C84.6155 5.46292 88.0715 4.78754 90.6613 5.68213C91.5045 5.97025 92.6791 6.68587 93.2694 7.43561C93.3948 7.59115 93.497 7.75943 93.6256 7.84175C93.7407 7.91497 94.0419 7.94385 94.2815 7.98774C95.1076 8.13055 96.2968 8.75431 96.7827 9.16976C97.7587 10.0096 98.2934 10.8123 98.5408 11.9772C99.0369 14.3213 97.6835 16.8929 96.142 18.4581C93.5024 21.1519 90.8957 23.0459 87.5191 24.3644C86.0359 24.9422 83.726 25.4821 82.0434 25.3311C81.5208 25.2879 80.9841 25.1505 80.4752 25.1169C80.2155 25.0946 79.2662 24.8503 79.1647 24.7814C79.0388 24.685 78.8763 24.6011 78.8478 24.6339ZM81.8635 29.8309C81.9663 29.8481 82.1248 29.8941 82.2611 29.9464C83.4449 30.3955 83.9319 31.4881 84.2235 32.6884C84.8993 35.4754 85.1877 41.6411 85.3002 44.0545C85.3827 45.866 85.4281 47.6481 85.5042 49.4386C85.5687 50.9549 85.69 52.9708 85.3731 54.3914C85.258 54.9024 84.9153 55.4966 84.4246 55.8008C83.8626 56.1597 82.5833 56.187 81.8802 56.0423C80.1469 55.6849 79.5838 54.5733 79.3364 52.8637C78.7484 48.7844 79.0315 40.7783 79.3786 37.4001C79.4939 36.2842 79.9153 32.7091 80.4994 31.21C80.6989 30.7045 81.1237 29.6865 81.8635 29.8309ZM29.1355 36.6181C29.1355 36.6181 26.5559 36.8002 24.7804 36.9967C22.5216 37.2393 18.2774 37.9702 15.8276 38.8427C15.0927 39.1051 13.6 39.7282 13.4703 40.4818C13.334 41.2629 13.82 41.8737 14.3606 42.5057C14.6732 42.8727 16.4425 44.5702 16.9386 44.9827C19.0182 46.7144 23.2351 49.385 26.3409 50.6818C27.4079 51.1221 29.1731 51.7524 29.1731 51.7524C29.1731 51.7524 29.042 46.7396 29.0655 41.8019C29.0791 39.197 29.1355 36.6181 29.1355 36.6181ZM76.4349 38.613C76.5826 39.9597 76.2356 42.5059 76.1754 42.8418C76.0655 43.6158 75.4802 45.4014 75.3831 45.6192C74.9107 46.7044 74.4449 47.5935 73.9513 48.4804C73.1054 49.9987 71.094 52.4058 69.8999 53.4359C65.4596 57.2637 58.5859 59.4431 52.6889 60.161C48.6875 60.6431 44.0897 60.5724 39.8498 59.7899C38.3906 59.5252 36.2192 59.026 36.2192 59.026C36.2192 59.026 36.2262 59.892 36.1567 60.501C36.123 60.7788 35.9132 61.5102 35.7955 61.7471C35.4873 62.3822 34.9811 62.7099 34.2451 62.8509C33.3569 63.0153 32.4148 63.0701 31.594 62.7202C30.2463 62.1546 29.7625 60.8971 29.5276 59.4467C29.3377 58.2868 29.1389 56.2704 29.1389 56.2704C29.1389 56.2704 28.1307 55.7942 27.29 55.3758C24.7079 54.1069 22.2556 52.5695 20.1101 50.9884C19.5157 50.5458 16.9621 48.4128 16.3985 47.8832C14.818 46.3867 13.3962 44.8979 12.3146 42.9875C11.4737 41.4951 11.2316 40.1705 11.8711 38.5892C12.753 36.385 15.9215 34.7254 18.09 33.7797C19.6817 33.0788 24.6309 31.467 26.6867 31.1682C27.6578 31.0297 29.164 30.7607 29.2565 30.7007C29.2944 30.6718 29.3206 30.6472 29.3479 30.6161C29.3954 30.5494 29.4754 28.3675 29.4599 27.5694C29.4398 26.7846 30.0422 21.6304 30.2358 20.5404C30.3368 19.951 30.7843 17.682 31.2413 17.0865C31.5402 16.684 32.0687 16.7165 32.4996 16.9807C34.8576 18.4431 35.5739 23.5148 35.7493 26.0954C35.8541 27.6676 35.9064 30.0326 35.9064 30.0326C35.9064 30.0326 38.6113 29.9527 40.2753 29.9998C41.8923 30.0373 43.6745 30.2918 45.3528 30.5585C47.5015 30.9021 51.6896 31.8133 54.0916 33.0279C56.0695 34.028 57.9208 35.713 58.5207 37.4963C59.0779 39.1311 58.9945 40.2624 58.1457 41.7377C57.1912 43.4037 55.3859 44.6419 53.5556 44.7453C53.0109 44.7767 50.9607 44.505 50.3298 44.0179C50.0824 43.8237 50.0952 43.4733 50.2737 43.2356C50.3415 43.1522 51.2997 42.6439 51.8654 42.3474C52.149 42.1937 52.3836 42.0279 52.605 41.8267C53.0749 41.4139 53.4979 40.9596 53.4507 40.427C53.3857 39.7357 52.6522 39.3093 51.9532 39.0351C48.6732 37.7355 42.1244 36.6567 38.9597 36.47C37.721 36.3975 35.959 36.3354 35.959 36.3354L36.3316 53.7647C36.3316 53.7647 37.7883 54.0414 38.9362 54.227C39.5949 54.3266 42.3859 54.5772 43.1276 54.5954C48.7746 54.7441 55.0775 54.2397 60.2599 51.8006C62.5351 50.7328 64.6224 49.4032 66.2027 47.6033C68.2855 45.2217 69.3762 41.9624 69.0876 38.558C68.7711 34.84 66.1475 30.4264 64.0524 27.739C58.5168 20.6389 49.0282 14.7984 40.6802 11.3742C32.1576 7.88063 23.7344 5.87088 14.6894 5.53432C12.3577 5.44814 7.2735 5.56547 4.70349 6.27451C4.33641 6.37775 3.96637 6.501 3.62551 6.5774C3.35624 6.64312 2.93193 6.82095 2.81542 6.91487C2.7509 6.96694 2.68706 7.03903 2.68706 7.03903C2.68706 7.03903 2.84552 7.12635 2.99691 7.19025C3.26914 7.30872 4.41507 7.37967 5.0081 7.48792C5.53865 7.58752 6.09109 7.8654 6.30974 8.25311C6.51745 8.62173 6.54344 8.91235 6.29515 9.21979C5.71284 9.9261 3.52108 9.80694 2.55596 9.65458C1.55299 9.49517 0.304238 9.18909 0.0748706 8.31815C-0.191205 7.29235 0.297398 6.28679 0.825217 5.35718C1.88564 3.49727 3.40458 2.52991 5.62894 1.92412C8.78833 1.05705 12.7776 0.450797 15.761 0.337097C22.5134 0.0826367 28.9043 1.26034 35.4467 3.24145C39.1911 4.37072 44.0934 6.26564 47.6823 7.9891C50.2576 9.22752 54.315 11.5049 56.5943 12.9933C57.3132 13.4665 61.52 16.5493 62.1735 17.0912C63.5367 18.2028 65.3197 19.8005 66.6108 21.0782C69.1088 23.5471 72.2157 27.3315 73.7251 30.3352C74.0883 31.0545 74.3696 31.7622 74.8382 32.5958C74.9994 32.8814 75.6888 34.5897 75.8035 35.0831C75.9171 35.5713 76.0835 36.289 76.107 36.3174C76.1403 36.5796 76.4599 38.0473 76.4349 38.613ZM161.324 34.7593C158.162 35.4865 149.847 35.8904 149.847 35.8904L148.798 39.1663C148.798 39.1663 152.954 38.8125 155.977 39.1274C155.977 39.1274 156.956 39.0139 157.071 40.2364C157.11 41.3766 156.974 42.6 156.974 42.6C156.974 42.6 156.912 43.3402 155.86 43.5285C154.72 43.7179 146.903 44.0195 146.903 44.0195L145.637 48.2896C145.637 48.2896 145.167 49.2767 146.221 48.995C147.201 48.7335 155.391 47.2006 156.458 47.4211C157.601 47.7043 158.866 49.2244 158.501 50.6097C158.065 52.3268 149.89 57.5268 144.912 57.1639C144.912 57.1639 142.295 57.3321 140.084 53.8109C138.025 50.4553 140.865 44.1018 140.865 44.1018C140.865 44.1018 139.563 41.1358 140.506 40.1305C140.506 40.1305 141.068 39.6225 142.704 39.5076L144.708 35.3733C144.708 35.3733 142.425 35.53 141.068 33.8554C139.803 32.2668 139.697 31.5366 140.667 31.0979C141.704 30.5872 151.208 28.8571 157.748 29.0766C157.748 29.0766 160.021 28.8539 161.992 32.7861C161.992 32.7861 162.948 34.3766 161.324 34.7593ZM136.725 50.6559C135.887 52.6222 133.673 54.7207 130.922 53.4163C128.207 52.1092 123.882 43.2806 123.882 43.2806C123.882 43.2806 122.24 39.9886 121.925 40.0734C121.925 40.0734 121.57 39.4305 121.352 43.028C121.126 46.6102 121.396 53.5953 119.963 54.6948C118.606 55.7972 116.962 55.3583 116.11 54.0703C115.335 52.8014 115.013 49.7863 115.436 44.4909C115.933 39.1852 117.168 33.5402 118.747 31.7824C120.324 30.0364 121.59 31.304 122.083 31.7638C122.083 31.7638 124.192 33.6703 127.67 39.2686L128.284 40.3042C128.284 40.3042 131.444 45.5933 131.774 45.581C131.774 45.581 132.033 45.8241 132.263 45.6495C132.595 45.5549 132.461 43.8589 132.461 43.8589C132.461 43.8589 131.805 38.0948 128.922 28.3384C128.922 28.3384 128.486 27.1218 128.781 25.9819C129.074 24.8299 130.231 25.3706 130.231 25.3706C130.231 25.3706 134.7 27.6117 136.869 34.8682C139.024 42.1271 137.576 48.6748 136.725 50.6559ZM184.821 46.3098C182.786 49.8498 177.044 57.2621 169.411 55.512C166.891 61.6077 164.774 67.7741 163.563 77.0011C163.563 77.0011 163.297 78.7941 161.803 78.1713C160.322 77.6544 157.884 75.1992 157.39 71.8025C156.859 67.3407 158.851 59.7981 162.921 51.1494C161.734 49.2244 160.925 46.4743 161.618 42.5582C161.618 42.5582 162.64 35.2862 169.963 28.7318C169.963 28.7318 170.841 27.9757 171.349 28.2086C171.91 28.443 171.65 30.8094 171.206 31.96C170.743 33.1041 167.483 38.7329 167.483 38.7329C167.483 38.7329 165.45 42.5357 166.022 45.5351C169.863 39.6461 178.593 27.7708 184.004 31.5157C185.821 32.8127 186.659 35.6341 186.659 38.6742C186.661 41.3446 186.015 44.1827 184.821 46.3098ZM183.241 36.9833C183.241 36.9833 182.94 34.642 180.645 37.2214C178.671 39.398 175.111 43.4762 172.245 49.0155C175.252 48.6787 178.153 47.0514 179.03 46.2225C180.456 44.9607 183.777 41.5372 183.241 36.9833ZM226.864 36.4502H212.877C212.598 31.7087 212.024 27.09 211.122 22.3333C211.029 21.8409 210.6 21.4839 210.1 21.4839H206.875C206.594 21.4839 206.329 21.6097 206.147 21.8291C205.964 22.0522 205.893 22.336 205.947 22.6139C206.863 27.2169 207.443 31.7474 207.729 36.4548H194.273C193.646 36.4548 193.136 36.9612 193.136 37.5841V40.4848C193.136 41.109 193.646 41.619 194.273 41.619H207.922C207.931 42.3349 207.938 42.9759 207.938 43.5774C207.938 47.7579 207.757 51.2017 207.335 55.0879C207.301 55.3883 207.4 55.6874 207.604 55.9077C207.802 56.1299 208.087 56.2565 208.383 56.2565H211.374C211.958 56.2565 212.441 55.8186 212.499 55.2389C212.908 51.3263 213.083 47.8398 213.083 43.5772C213.083 42.978 213.077 42.3347 213.068 41.6188H226.864C227.49 41.6188 228 41.1088 228 40.4845V37.5838C228 36.9583 227.489 36.4502 226.864 36.4502Z" fill="#065184"/>
</svg>
