<svg width="216" height="59" viewBox="0 0 216 59" fill="none" xmlns="http://www.w3.org/2000/svg">
<path d="M29.7006 54.635C26.4514 55.2019 23.1449 55.3719 19.7246 55.8246L9.29201 25.4655V57.1276C6.04273 57.4673 3.07842 57.9204 0 58.3735V0.373535H8.66531L20.5225 33.2822V0.373535H29.7006V54.635ZM47.658 21.6138C51.1926 21.6138 56.6082 21.4438 59.8575 21.4438V30.5061C55.8098 30.5061 51.0785 30.5061 47.658 30.6761V44.1568C53.0168 43.8171 58.3755 43.3635 63.7909 43.1935V51.9157L38.5366 53.8985V0.373535H63.7909V9.43605H47.658V21.6138ZM97.71 9.43626H88.247V51.1237C85.1685 51.1237 82.0901 51.1237 79.1262 51.2367V9.43626H69.6632V0.373535H97.7105L97.71 9.43626ZM112.532 20.9909H125.017V30.0532H112.532V50.614H103.581V0.373535H129.064V9.43605H112.532V20.9909ZM143.886 42.6841C149.074 42.797 154.318 43.1942 159.392 43.4769V52.4262C151.24 51.9161 143.088 51.407 134.765 51.2367V0.373535H143.886V42.6841ZM167.088 53.0493C169.995 53.2195 173.073 53.3895 176.038 53.7288V0.373535H167.088V53.0493ZM216 0.373535L204.427 27.9576L216 58.3735C212.579 57.9204 209.159 57.2973 205.738 56.7308L199.183 39.9656L192.514 55.3719C189.207 54.805 186.014 54.635 182.708 54.1819L194.452 27.6175L183.848 0.373535H193.653L199.639 15.6099L206.024 0.373535H216V0.373535Z" fill="#D81F26"/>
</svg>
