<svg width="230" height="65" viewBox="0 0 230 65" fill="none" xmlns="http://www.w3.org/2000/svg">
<path d="M22.6257 24.8993C13.5687 22.7471 11.959 21.2365 11.959 18.0625C11.959 15.0639 14.7901 13.0458 19.0054 13.0458C23.0892 13.0458 27.1353 14.5782 31.3819 17.7329C31.5072 17.8284 31.6701 17.8665 31.8266 17.8415C31.9895 17.8178 32.1273 17.7311 32.2212 17.6006L36.6432 11.3886C36.8249 11.1327 36.7748 10.78 36.5305 10.5846C31.4759 6.54419 25.7887 4.57984 19.1369 4.57984C9.35972 4.57984 2.52631 10.4279 2.52631 18.7953C2.52631 27.7682 8.4202 30.9453 18.6045 33.3978C27.2669 35.3871 28.7325 37.0537 28.7325 40.0324C28.7325 43.3344 25.7762 45.388 21.016 45.388C15.7296 45.388 11.4141 43.609 6.59128 39.4519C6.47228 39.3458 6.30943 39.3021 6.1591 39.3083C5.99625 39.3208 5.85219 39.3957 5.75198 39.5143L0.791338 45.3942C0.584645 45.6439 0.609706 46.006 0.847717 46.2182C6.45975 51.2118 13.362 53.8459 20.8155 53.8459C31.3506 53.8459 38.159 48.1095 38.159 39.2272C38.1778 31.7324 33.6744 27.5815 22.6445 24.9075L22.6257 24.8993ZM61.9976 15.9983C57.4316 15.9983 53.686 17.791 50.5919 21.4644V17.3297C50.5919 17.0032 50.3288 16.7373 50.0031 16.7373H41.892C41.5663 16.7373 41.3032 17.0032 41.3032 17.3297V63.2713C41.3032 63.5959 41.5663 63.8643 41.892 63.8643H50.0031C50.3288 63.8643 50.5919 63.5959 50.5919 63.2713V48.7712C53.686 52.223 57.4316 53.9145 61.9976 53.9145C70.4846 53.9145 79.078 47.4042 79.078 34.9583C79.0905 22.5099 70.4971 15.9977 62.0039 15.9977L61.9976 15.9983ZM69.6453 34.9583C69.6453 41.2933 65.7306 45.7188 60.1186 45.7188C54.5754 45.7188 50.3915 41.0935 50.3915 34.9583C50.3915 28.8224 54.5754 24.1984 60.1186 24.1984C65.6367 24.1977 69.6453 28.7225 69.6453 34.9583ZM101.094 15.9983C90.1643 15.9983 81.6021 24.385 81.6021 35.0937C81.6021 45.6876 90.1079 53.9832 100.962 53.9832C111.93 53.9832 120.517 45.6252 120.517 34.9583C120.517 24.3276 111.986 15.9995 101.094 15.9995V15.9983ZM101.094 45.7812C95.2815 45.7812 90.8971 41.1247 90.8971 34.9552C90.8971 28.7575 95.1312 24.2602 100.962 24.2602C106.812 24.2602 111.222 28.9148 111.222 35.0906C111.222 41.287 106.963 45.7812 101.094 45.7812ZM143.854 16.7373H134.929V7.64527C134.929 7.31944 134.666 7.05353 134.34 7.05353H126.229C125.903 7.05353 125.634 7.31944 125.634 7.64527V16.7373H121.738C121.413 16.7373 121.149 17.0032 121.149 17.3297V24.2751C121.149 24.601 121.413 24.8675 121.738 24.8675H125.634V42.8413C125.634 50.1007 129.261 53.7835 136.42 53.7835C139.326 53.7835 141.737 53.1842 144.011 51.8984C144.199 51.7985 144.312 51.5988 144.312 51.3865V44.77C144.312 44.5703 144.205 44.3768 144.03 44.2707C143.854 44.1583 143.635 44.1521 143.454 44.2457C141.894 45.026 140.384 45.388 138.693 45.388C136.094 45.388 134.929 44.2083 134.929 41.5742V24.8706H143.854C144.18 24.8706 144.443 24.6047 144.443 24.2783V17.3334C144.456 17.007 144.193 16.7411 143.861 16.7411L143.854 16.7373ZM174.946 16.7729V15.6562C174.946 12.3711 176.211 10.9061 179.042 10.9061C180.733 10.9061 182.093 11.2407 183.615 11.7463C183.803 11.8049 183.997 11.7756 184.147 11.6639C184.304 11.5521 184.391 11.373 184.391 11.1832V4.37323C184.391 4.11294 184.228 3.88261 183.972 3.80583C182.368 3.32957 180.314 2.84082 177.232 2.84082C169.747 2.84082 165.783 7.04417 165.783 14.9921V16.7024H161.887C161.561 16.7024 161.292 16.9683 161.292 17.2941V24.2751C161.292 24.601 161.561 24.8675 161.887 24.8675H165.783V52.585C165.783 52.9158 166.052 53.178 166.378 53.178H174.483C174.815 53.178 175.078 52.9158 175.078 52.585V24.8694H182.65L194.25 52.585C192.935 55.4938 191.638 56.0743 189.872 56.0743C188.444 56.0743 186.934 55.6498 185.4 54.8071C185.256 54.7322 185.08 54.7198 184.93 54.7635C184.773 54.8196 184.642 54.932 184.579 55.0818L181.83 61.0928C181.698 61.3799 181.811 61.7108 182.086 61.8606C184.955 63.4086 187.542 64.0702 190.742 64.0702C196.73 64.0702 200.044 61.2863 202.956 53.8084L217.024 17.5819C217.099 17.3996 217.074 17.1936 216.961 17.032C216.855 16.8715 216.673 16.7748 216.479 16.7748H208.036C207.779 16.7748 207.554 16.9352 207.472 17.1718L198.822 41.7864L189.352 17.1555C189.264 16.9265 189.045 16.7748 188.801 16.7748H174.946V16.7729ZM156.92 16.7373H148.809C148.483 16.7373 148.214 17.0032 148.214 17.3297V52.585C148.214 52.9158 148.483 53.178 148.809 53.178H156.92C157.246 53.178 157.515 52.9158 157.515 52.585V17.3322C157.515 17.0057 157.252 16.7398 156.92 16.7398V16.7373ZM152.911 0.683594C149.698 0.683594 147.093 3.27526 147.093 6.47677C147.093 9.68015 149.698 12.2749 152.911 12.2749C156.124 12.2749 158.724 9.68015 158.724 6.47677C158.724 3.27589 156.118 0.683594 152.911 0.683594ZM223.951 28.0734C220.744 28.0734 218.245 25.5048 218.245 22.3857C218.245 19.2666 220.776 16.6687 223.982 16.6687C227.189 16.6687 229.688 19.2366 229.688 22.3532C229.688 25.4724 227.158 28.0734 223.951 28.0734ZM223.982 17.2342C221.057 17.2342 218.846 19.55 218.846 22.3857C218.846 25.2202 221.045 27.5047 223.951 27.5047C226.876 27.5047 229.087 25.1908 229.087 22.3532C229.087 19.5188 226.889 17.2342 223.982 17.2342ZM225.248 22.9381L226.864 25.1902H225.498L224.045 23.1241H222.799V25.1902H221.659V19.2204H224.327C225.724 19.2204 226.638 19.9301 226.638 21.1248C226.644 22.1036 226.074 22.7015 225.254 22.9381H225.248ZM224.283 20.2447H222.799V22.1329H224.283C225.022 22.1329 225.467 21.7715 225.467 21.1879C225.467 20.5737 225.022 20.2447 224.283 20.2447Z" fill="#353C41"/>
</svg>
