<svg width="240" height="64" viewBox="0 0 240 64" fill="none" xmlns="http://www.w3.org/2000/svg">
<path d="M69.5057 21.3123C69.1301 19.8946 68.3944 18.602 67.3722 17.5639C66.35 16.5258 65.0773 15.7786 63.6814 15.3972C58.5423 14 37.9327 14 37.9327 14C37.9327 14 17.3392 14 12.2001 15.3972C10.8041 15.7786 9.53139 16.5258 8.50922 17.5639C7.48705 18.602 6.75134 19.8946 6.37574 21.3123C5 26.5315 5 37.4176 5 37.4176C5 37.4176 5 48.3037 6.37574 53.5229C6.75134 54.9406 7.48705 56.2332 8.50922 57.2712C9.53139 58.3093 10.8041 59.0565 12.2001 59.438C17.3392 60.8352 37.9407 60.8352 37.9407 60.8352C37.9407 60.8352 58.5423 60.8352 63.6814 59.438C65.0773 59.0565 66.35 58.3093 67.3722 57.2712C68.3944 56.2332 69.1301 54.9406 69.5057 53.5229C70.8814 48.3037 70.8814 37.4176 70.8814 37.4176C70.8814 37.4176 70.8814 26.5315 69.5057 21.3123V21.3123Z" fill="#FF0000"/>
<path d="M31.3515 47.4538L48.4685 37.4173L31.3515 27.3809V47.4538Z" fill="white"/>
<path d="M100.157 28.8607V30.4791C100.157 38.5709 96.6247 43.2991 88.8988 43.2991H87.7223V57.4597H81.4119V17.3327H89.4565C96.8133 17.3327 100.157 20.4911 100.157 28.8607ZM93.5174 29.4352C93.5174 23.5984 92.4816 22.212 88.9015 22.212H87.7249V38.525H88.8085C92.2001 38.525 93.52 36.0381 93.52 30.6328L93.5174 29.4352ZM115.088 27.6658L114.759 35.2721C112.074 34.6976 109.859 35.1292 108.871 36.8905V57.4597H102.608V28.1433H107.601L108.167 34.498H108.403C109.062 29.8587 111.182 27.5148 113.914 27.5148C114.31 27.5262 114.703 27.5768 115.088 27.6658V27.6658ZM122.294 45.0173V46.5008C122.294 51.6687 122.575 53.4381 124.742 53.4381C126.814 53.4381 127.287 51.8198 127.332 48.4644L132.936 48.7989C133.361 55.1131 130.11 57.9345 124.599 57.9345C117.911 57.9345 115.933 53.4867 115.933 45.403V40.2782C115.933 31.763 118.148 27.6011 124.788 27.6011C131.475 27.6011 133.172 31.1399 133.172 39.9896V45.0173H122.294ZM122.294 38.9889V41.0928H127.05V39.0024C127.05 33.6079 126.673 32.0651 124.66 32.0651C122.647 32.0651 122.294 33.6457 122.294 39.0024V38.9889ZM165.534 35.3072V57.4543H159.04V35.7981C159.04 33.4056 158.427 32.2107 157.014 32.2107C155.882 32.2107 154.847 32.8796 154.14 34.1231C154.181 34.52 154.196 34.919 154.188 35.318V57.4651H147.684V35.7981C147.684 33.4056 147.07 32.2107 145.657 32.2107C144.526 32.2107 143.533 32.8796 142.831 34.0772V57.4678H136.333V28.1433H141.466L142.043 31.8763H142.136C143.596 29.0549 145.952 27.5229 148.73 27.5229C151.463 27.5229 153.017 28.9093 153.723 31.3989C155.232 28.8634 157.492 27.5229 160.081 27.5229C164.028 27.5229 165.534 30.3928 165.534 35.3072ZM168.785 20.6341C168.785 17.4756 169.916 16.5693 172.317 16.5693C174.766 16.5693 175.849 17.6213 175.849 20.6341C175.849 23.887 174.766 24.7016 172.317 24.7016C169.916 24.6989 168.785 23.887 168.785 20.6341ZM169.162 28.1433H175.379V57.4678H169.162V28.1433ZM196.621 28.1433V57.4678H191.535L190.969 53.8805H190.828C189.368 56.7504 187.248 57.9452 184.611 57.9452C180.749 57.9452 179.004 55.4584 179.004 50.0531V28.1433H185.503V49.6701C185.503 52.254 186.034 53.306 187.341 53.306C187.927 53.2817 188.495 53.0948 188.984 52.7658C189.473 52.4368 189.864 51.9781 190.114 51.4395V28.1433H196.621ZM229.591 35.3072V57.4543H223.092V35.7981C223.092 33.4056 222.478 32.2107 221.065 32.2107C219.934 32.2107 218.898 32.8796 218.192 34.1231C218.232 34.5164 218.248 34.9119 218.239 35.3072V57.4543H211.741V35.7981C211.741 33.4056 211.127 32.2107 209.714 32.2107C208.583 32.2107 207.589 32.8796 206.888 34.0772V57.4678H200.389V28.1433H205.518L206.084 31.8736H206.177C207.637 29.0522 209.993 27.5202 212.771 27.5202C215.504 27.5202 217.058 28.9066 217.764 31.3962C219.273 28.8607 221.533 27.5202 224.122 27.5202C228.093 27.5229 229.591 30.3928 229.591 35.3072V35.3072Z" fill="black"/>
</svg>
