<svg width="47" height="15" viewBox="0 0 47 15" fill="none" xmlns="http://www.w3.org/2000/svg">
<path d="M19.2957 0.265625L16.9489 14.8674H20.5995L22.9463 0.265625H19.2957ZM30.3778 6.23908C29.0741 5.57536 28.2918 5.17713 28.2918 4.51341C28.2918 3.8497 28.9437 3.31872 30.3778 3.31872C31.5512 3.31872 32.4639 3.58421 33.1158 3.8497L33.5069 3.98244L34.0284 0.929342C33.2461 0.663855 32.2031 0.265625 30.769 0.265625C27.1184 0.265625 24.6412 2.12403 24.6412 4.91164C24.6412 6.90279 26.4665 8.09748 27.9007 8.7612C29.3348 9.42492 29.8563 9.95589 29.8563 10.4869C29.8563 11.4161 28.6829 11.8143 27.6399 11.8143C26.2057 11.8143 25.4235 11.5488 24.2501 11.0178L23.4678 10.8851L22.9463 14.0709C23.8589 14.4692 25.4235 14.8674 26.988 14.8674C30.769 14.8674 33.3765 13.009 33.3765 10.0886C33.3765 8.49571 32.4639 7.16828 30.3778 6.23908ZM43.2853 0.398369H40.4169C39.5043 0.398369 38.8524 0.663855 38.4613 1.59306L32.9854 14.8674H36.7664L37.8094 11.947H42.1119L42.6334 14.8674H46.0232L43.2853 0.398369ZM39.1132 9.02669C39.2435 9.02669 40.5473 4.38067 40.5473 4.38067L41.7207 9.02669C41.7207 9.02669 39.8954 9.02669 39.1132 9.02669ZM13.9502 0.265625L10.43 10.2214L10.0388 8.23023C9.38696 5.97359 7.30091 3.58421 4.9541 2.38952L8.21355 14.8674H12.1249L17.8615 0.265625H13.9502Z" fill="#2394BC"/>
<path d="M8.7353 2.12403C8.47454 1.06208 7.5619 0.265625 6.38849 0.265625H0.651855V0.531111C5.08471 1.59306 8.86568 5.04439 10.0391 8.23023L8.7353 2.12403Z" fill="#EFC75E"/>
</svg>
