<svg width="126" height="34" viewBox="0 0 126 34" fill="none" xmlns="http://www.w3.org/2000/svg">
<g clip-path="url(#clip0)">
<path d="M12.2444 7.77139C12.2444 8.62618 12.4755 9.42397 12.9337 10.1648C13.3918 10.9056 13.9919 11.5569 14.7298 12.1186C15.4677 12.6803 16.2786 13.242 17.1625 13.7996C18.0463 14.3573 18.9383 14.9394 19.8303 15.5499C20.7223 16.1605 21.5372 16.8117 22.2751 17.5037C23.013 18.1957 23.609 19.026 24.0712 19.9989C24.5334 20.9717 24.7605 22.03 24.7605 23.186C24.7605 25.152 24.1726 26.9633 22.9968 28.6118C21.821 30.2603 20.1871 31.571 18.099 32.5397C16.011 33.5085 13.704 33.9969 11.1741 33.9969C9.49957 33.9969 7.94671 33.769 6.51955 33.3131C5.09238 32.8572 3.91254 32.2467 2.97191 31.4814C2.03128 30.7162 1.30148 29.8411 0.782508 28.8642C0.263539 27.8873 0 26.8615 0 25.8032C0 24.3786 0.43788 23.1697 1.30959 22.1806C2.18129 21.1915 3.28005 20.6949 4.60585 20.6949C5.37619 20.6949 6.04923 20.9025 6.62496 21.3177C7.20069 21.7328 7.48856 22.148 7.48856 22.5713C7.48856 22.7627 7.37504 23.0109 7.15204 23.3244C6.92905 23.6378 6.70605 24.0448 6.48306 24.5455C6.26006 25.0461 6.14654 25.6241 6.14654 26.2754C6.14654 27.7285 6.68983 28.9741 7.78048 30.012C8.87113 31.05 10.351 31.5628 12.2444 31.5628C14.1095 31.5628 15.6704 31.0011 16.9273 29.8818C18.1842 28.7624 18.8126 27.3378 18.8126 25.5997C18.8126 24.6513 18.5815 23.768 18.1234 22.954C17.6652 22.1399 17.0692 21.4235 16.3394 20.8048C15.6096 20.1861 14.8028 19.5837 13.9149 18.9935C13.0269 18.4033 12.139 17.7968 11.247 17.1699C10.3551 16.5431 9.54416 15.8959 8.81436 15.2161C8.08456 14.5364 7.48856 13.7304 7.03041 12.7943C6.57226 11.8581 6.34115 10.8486 6.34115 9.76182C6.34115 7.98305 6.92094 6.35083 8.08456 4.86513C9.24819 3.37944 10.8051 2.21938 12.7593 1.38494C14.7136 0.550514 16.8259 0.139404 19.0964 0.139404C20.5439 0.139404 21.8535 0.314431 23.0292 0.660415C24.205 1.0064 25.1781 1.57218 25.9484 2.36184C26.7188 3.1515 27.104 4.08769 27.104 5.18669C27.104 5.94786 26.9296 6.63168 26.585 7.24224C26.2404 7.8528 25.7863 8.33311 25.2268 8.68723C24.6672 9.04136 24.0712 9.31 23.4428 9.49317C22.8144 9.67634 22.1819 9.76996 21.5453 9.76996C20.6006 9.76996 19.8708 9.61935 19.364 9.32221C18.8572 9.02507 18.6018 8.68316 18.6018 8.30462C18.6018 8.0726 18.7113 7.93828 18.9261 7.89758C20.6696 7.36842 21.5413 6.44037 21.5413 5.10936C21.5413 4.33598 21.2331 3.73356 20.6169 3.29803C20.0006 2.8625 19.2262 2.64677 18.2937 2.64677C17.3328 2.64677 16.4002 2.83808 15.4961 3.21662C14.5919 3.59517 13.8216 4.18538 13.1851 4.98724C12.5485 5.78911 12.2444 6.71309 12.2444 7.77139Z" fill="#E34953"/>
<path d="M26.1592 24.742C26.5931 22.4748 27.1891 20.1506 27.9554 17.7694C28.7217 15.3883 29.5893 13.1495 30.5705 11.0533C31.5517 8.95704 32.6464 7.23933 33.8546 5.90424C35.0628 4.56916 36.2467 3.90161 37.4103 3.90161C38.3956 3.90161 39.1578 4.28016 39.693 5.04132C40.2282 5.80249 40.4958 6.82415 40.4958 8.11447C40.4958 10.341 39.5632 12.9216 37.6982 15.8604C35.8332 18.7993 33.6194 21.3229 31.0651 23.4395C30.6597 25.0799 30.384 26.5411 30.234 27.8152C30.8705 26.6063 31.5314 25.4666 32.2206 24.396C32.9099 23.3255 33.664 22.2672 34.483 21.2211C35.302 20.175 36.1372 19.3406 36.9968 18.7178C37.8563 18.0951 38.6551 17.7817 39.4011 17.7817C40.0498 17.7817 40.6093 18.0218 41.0756 18.5062C41.5418 18.9906 41.777 19.7192 41.777 20.6961C41.777 21.6445 41.5621 22.6905 41.1364 23.8303C40.7107 24.97 40.289 26.0201 39.8673 26.9767C39.4457 27.9332 39.2389 28.6618 39.2389 29.1665C39.2389 29.4637 39.3119 29.7079 39.4538 29.8911C39.5957 30.0742 39.7619 30.1679 39.9525 30.1679C40.1552 30.1679 40.3498 30.1353 40.5404 30.0661C40.7309 29.9969 41.0026 29.8463 41.3634 29.6061C41.7243 29.366 42.154 28.9345 42.6811 28.324C43.2082 27.7134 43.8042 26.9319 44.4651 25.9835C44.6273 25.7393 44.8381 25.6172 45.0935 25.6172C45.2435 25.6172 45.3692 25.6782 45.4787 25.8003C45.5882 25.9224 45.6409 26.073 45.6409 26.2481C45.6409 26.4516 45.5679 26.6836 45.4179 26.94C43.9583 29.5573 42.6406 31.3727 41.4648 32.3862C40.289 33.3998 39.1335 33.9004 37.9982 33.9004C37.0252 33.9004 36.2264 33.5585 35.6061 32.8706C34.9858 32.1868 34.6736 31.3076 34.6736 30.233C34.6736 29.4067 34.8317 28.4379 35.152 27.3308C35.4723 26.2236 35.7886 25.2427 36.1048 24.3879C36.4211 23.5331 36.5832 22.9836 36.5832 22.7394C36.5832 22.5074 36.5021 22.3934 36.34 22.3934C35.8413 22.3934 35.0588 23.1586 33.9965 24.6932C32.9342 26.2277 32.0544 27.921 31.3489 29.7812C31.2395 30.0783 31.1057 30.4609 30.9435 30.9209L30.5786 31.9588C30.5786 31.9588 30.4691 32.2193 30.2542 32.7444C30.0394 33.2695 29.9096 33.4812 29.8691 33.3875C29.8285 33.2939 29.6785 33.412 29.4231 33.7457C29.1676 34.0795 28.9649 34.1284 28.8149 33.9004C27.5296 33.9004 26.6052 33.2084 26.0376 31.8245C25.8227 31.2424 25.7133 30.2696 25.7133 28.9142C25.7133 27.803 25.8633 26.4109 26.1592 24.742ZM37.086 9.94615C36.5467 9.94615 35.744 11.037 34.6817 13.2228C33.6235 15.4086 32.6666 17.9404 31.8152 20.8141C33.4897 18.9539 34.8641 17.0856 35.9305 15.2051C36.9968 13.3286 37.532 11.7982 37.532 10.6178C37.532 10.17 37.382 9.94615 37.086 9.94615Z" fill="#E34953"/>
<path d="M55.8234 33.7962C54.6071 33.7962 53.707 33.267 53.1272 32.2087C51.8582 33.3769 50.4432 33.959 48.8903 33.959C47.5118 33.959 46.3725 33.4787 45.4724 32.514C44.5724 31.5493 44.1223 30.2427 44.1223 28.5861C44.1223 26.8073 44.5724 25.0855 45.4724 23.4167C46.3725 21.7478 47.5605 20.4005 49.0404 19.3748C50.5202 18.3491 52.0528 17.8362 53.634 17.8362C54.7003 17.8362 55.5964 18.1089 56.3221 18.6503C57.0438 19.1916 57.4087 19.8103 57.4087 20.5023L57.3682 20.7872C57.4898 20.7587 57.6033 20.7465 57.7128 20.7465C58.1466 20.7465 58.5075 20.9215 58.7994 21.2757C59.0913 21.6298 59.2373 22.0612 59.2373 22.5782C59.2373 24.2186 58.3534 26.4044 56.5816 29.1315C56.7032 29.8764 56.9952 30.2509 57.4533 30.2509C57.656 30.2509 57.8507 30.2183 58.0412 30.1491C58.2318 30.0799 58.4994 29.9252 58.8521 29.681C59.2048 29.4368 59.6468 29.0053 60.182 28.3866C60.7171 27.7679 61.3131 26.9864 61.9781 26.034C62.1403 25.7897 62.3511 25.6676 62.6065 25.6676C62.7565 25.6676 62.8822 25.7287 62.9917 25.8508C63.1012 25.9729 63.1539 26.1235 63.1539 26.2985C63.1539 26.5143 63.0849 26.7463 62.9511 26.9905C61.4915 29.6078 60.2144 31.3987 59.1197 32.3553C58.025 33.3118 56.9181 33.7962 55.8234 33.7962ZM50.8973 30.723C51.5338 30.723 52.0852 30.487 52.5596 30.0107V29.5019C52.5596 28.4314 52.7258 27.3161 53.0583 26.1642C53.3908 25.0123 53.8327 23.9865 54.3882 23.0911C53.8084 22.9974 53.5165 22.8265 53.5165 22.5823C53.5165 22.4886 53.5692 22.3177 53.6786 22.0735C53.7881 21.8292 53.8408 21.585 53.8408 21.3408C53.8408 20.5267 53.484 20.1197 52.7664 20.1197C52.3609 20.1197 51.9231 20.3028 51.4487 20.6692C50.9743 21.0355 50.5283 21.528 50.1107 22.1467C49.6931 22.7654 49.3444 23.5347 49.0647 24.4587C48.789 25.3827 48.6471 26.3433 48.6471 27.3487C48.6471 28.407 48.8538 29.2333 49.2674 29.8316C49.6769 30.4259 50.2202 30.723 50.8973 30.723Z" fill="#E34953"/>
<path d="M61.0161 27.5917C62.2729 25.7885 63.1568 23.9161 63.6717 21.9746C62.7797 21.0791 62.3337 20.0737 62.3337 18.9625C62.3337 18.1199 62.5689 17.3994 63.0433 16.793C63.5176 16.1905 64.0974 15.8853 64.7867 15.8853C65.3016 15.8853 65.7111 16.1132 66.0233 16.5691C66.3355 17.025 66.4896 17.6396 66.4896 18.413C66.4896 18.9543 66.3679 19.6829 66.1247 20.5906H66.6112C67.2072 20.5906 67.8397 20.5011 68.5087 20.3261C69.1777 20.151 69.6804 19.9312 70.021 19.6748C70.4143 19.3614 70.7427 19.2067 71.0143 19.2067C71.3671 19.2067 71.7238 19.4061 72.0887 19.8091C72.4536 20.2121 72.6361 20.6558 72.6361 21.1442C72.6361 21.6327 72.3604 22.3124 71.8049 23.1794C70.2642 25.6746 69.4939 27.6487 69.4939 29.1018C69.4939 29.4804 69.5872 29.7694 69.7696 29.9688C69.9521 30.1683 70.1791 30.266 70.4508 30.266C70.6535 30.266 70.8481 30.2334 71.0386 30.1642C71.2292 30.095 71.5009 29.9444 71.8617 29.7042C72.2185 29.4682 72.6645 29.0408 73.1916 28.4302C73.7186 27.8196 74.3146 27.0381 74.9755 26.0897C75.1377 25.8455 75.3485 25.7234 75.604 25.7234C75.754 25.7234 75.8797 25.7845 75.981 25.9066C76.0824 26.0287 76.1351 26.1793 76.1351 26.3543C76.1351 26.57 76.0662 26.8021 75.9324 27.0463C74.4728 29.6798 73.1388 31.4952 71.9266 32.5006C70.7183 33.506 69.4898 34.0066 68.2451 34.0066C67.2031 34.0066 66.3436 33.6688 65.6584 32.9972C64.9772 32.3256 64.6326 31.4545 64.6326 30.3799C64.6326 29.4722 64.9367 28.4384 65.5449 27.2864C66.153 26.1345 66.8545 25.0681 67.6532 24.0912C66.7328 23.8876 65.8611 23.5417 65.0381 23.0532C64.4988 24.3435 63.7406 25.8537 62.7676 27.5917C62.6338 27.8074 62.4148 27.9906 62.1189 28.1331C61.8229 28.2755 61.5391 28.3488 61.2674 28.3488C60.9715 28.3488 60.8214 28.2552 60.8214 28.0639C60.8133 27.8848 60.8823 27.726 61.0161 27.5917Z" fill="#E34953"/>
<path d="M82.1157 30.6827C82.5333 30.6827 82.9712 30.6298 83.4253 30.5199C83.8794 30.41 84.4146 30.2106 85.039 29.9175C85.6593 29.6244 86.3283 29.1523 87.0378 28.4929C87.7473 27.8335 88.4325 27.0316 89.0975 26.0791C89.2596 25.8349 89.4705 25.7128 89.7259 25.7128C89.8759 25.7128 90.0016 25.7738 90.103 25.896C90.2043 26.0181 90.257 26.1687 90.257 26.3437C90.257 26.5594 90.1881 26.7914 90.0543 27.0357C89.3123 28.3789 88.4974 29.5308 87.6095 30.4874C86.7256 31.4439 85.8417 32.1644 84.9619 32.6447C84.0821 33.125 83.2631 33.471 82.4968 33.6826C81.7346 33.8943 80.9723 34.0001 80.2142 34.0001C79.2289 34.0001 78.3045 33.7884 77.445 33.3692C76.5854 32.9499 75.8637 32.2783 75.2758 31.3543C74.6879 30.4304 74.392 29.3314 74.392 28.0573C74.392 26.4007 74.8096 24.7888 75.6407 23.2136C76.4719 21.6383 77.5788 20.3561 78.9654 19.367C80.352 18.3779 81.7873 17.8813 83.2753 17.8813C84.5321 17.8813 85.5336 18.2192 86.2756 18.8989C87.0175 19.5787 87.3905 20.405 87.3905 21.3819C87.3905 22.835 86.6283 24.1538 85.0998 25.3424C83.5712 26.5309 81.5927 27.2799 79.16 27.5933C79.4398 29.6529 80.429 30.6827 82.1157 30.6827ZM82.8252 19.8758C82.067 19.8758 81.2845 20.519 80.4736 21.8093C79.6628 23.0996 79.1965 24.4672 79.0749 25.9204C80.3196 25.5947 81.3981 24.976 82.3184 24.0683C83.2388 23.1606 83.6969 22.1838 83.6969 21.1377C83.6969 20.7306 83.6077 20.4172 83.4334 20.2015C83.2591 19.9857 83.0563 19.8758 82.8252 19.8758Z" fill="#E34953"/>
<path d="M114.874 1.67212C115.714 1.67212 116.371 1.84308 116.853 2.18092C117.336 2.51876 117.575 3.00721 117.575 3.64626C117.575 4.32602 117.263 4.85924 116.642 5.25407C116.022 5.64889 115.211 5.84427 114.21 5.84427C113.711 5.84427 113.338 5.85648 113.095 5.88498C112.58 6.54845 112.117 7.42358 111.704 8.51038C111.29 9.59718 110.942 10.7532 110.658 11.9824C110.374 13.2117 110.086 14.5386 109.794 15.9714C109.502 17.4042 109.194 18.8125 108.87 20.2046C108.545 21.5967 108.181 22.9684 107.775 24.3279C107.37 25.6874 106.863 26.9411 106.255 28.093C105.647 29.245 104.953 30.2626 104.175 31.1377C103.396 32.0128 102.444 32.7007 101.316 33.2055C100.189 33.7061 98.9202 33.9585 97.5133 33.9585C96.8362 33.9585 96.293 33.8445 95.8794 33.6206C95.4658 33.3968 95.2591 33.1566 95.2591 32.8961C95.2591 32.7862 95.2753 32.6967 95.3118 32.6193C95.3442 32.5461 95.4456 32.4565 95.6159 32.3547C95.7861 32.253 96.0335 32.1675 96.3578 32.0983C97.2376 31.9355 98.0242 31.4796 98.7216 30.7347C99.4189 29.9898 100.011 29.0333 100.497 27.8732C100.984 26.7132 101.438 25.431 101.856 24.0267C102.273 22.6224 102.699 21.1164 103.125 19.5086C103.55 17.9008 103.988 16.3459 104.434 14.848C104.88 13.3501 105.44 11.8481 106.117 10.3502C106.794 8.85229 107.536 7.57012 108.347 6.51182C106.226 6.97177 104.288 7.63932 102.537 8.50631C100.785 9.3733 99.3824 10.399 98.3202 11.5795C97.2579 12.7599 96.7268 13.9606 96.7268 15.1818C96.7268 16.008 96.9822 16.6593 97.4971 17.1355C98.012 17.6118 98.6121 17.8479 99.3013 17.8479C100.019 17.8479 100.68 17.5833 101.288 17.0541C101.462 16.9198 101.62 16.8506 101.754 16.8506C102.131 16.8506 102.322 17.1966 102.322 17.8886C102.322 18.9876 101.787 20.0784 100.72 21.1571C99.6541 22.2357 98.3202 22.7771 96.7268 22.7771C95.1982 22.7771 93.9252 22.2602 92.9034 21.2304C91.8817 20.2006 91.3708 18.837 91.3708 17.1396C91.3708 15.4708 91.902 13.8874 92.9642 12.3854C94.0265 10.8875 95.4496 9.58496 97.2417 8.48596C99.0338 7.38695 101.065 6.45483 103.344 5.68553C105.622 4.92029 108.01 4.37079 110.512 4.04516C112.032 2.46585 113.484 1.67212 114.874 1.67212Z" fill="#E34953"/>
<path d="M121.629 11.3093C121.629 11.4599 121.548 11.6716 121.386 11.9524C121.224 12.2333 120.989 12.5956 120.676 13.0514C120.364 13.5073 120.117 13.9022 119.926 14.2441C119.063 15.7216 118.272 17.4312 117.555 19.3728C118.418 19.157 119.128 18.9169 119.683 18.6604C120.21 18.4162 120.648 18.1598 120.993 17.8871C121.337 17.6144 121.572 17.4108 121.702 17.2765C121.832 17.1422 121.941 17.073 122.039 17.073C122.294 17.073 122.533 17.2236 122.748 17.5207C122.963 17.8179 123.073 18.2249 123.073 18.7419C123.073 19.2588 122.963 19.731 122.748 20.1665C122.533 20.602 122.185 21.005 121.702 21.3795C121.224 21.7539 120.543 22.0552 119.663 22.2872C118.783 22.5192 117.737 22.6535 116.521 22.6942C116.046 24.6358 115.811 26.3291 115.811 27.7822C115.811 29.6831 116.285 30.6315 117.23 30.6315C118.528 30.6315 120.23 29.1132 122.339 26.0726C122.501 25.8284 122.704 25.7063 122.947 25.7063C123.097 25.7063 123.223 25.7674 123.332 25.8895C123.442 26.0116 123.494 26.1622 123.494 26.3372C123.494 26.5529 123.425 26.7849 123.292 27.0292C121.832 29.6464 120.437 31.4618 119.103 32.4754C117.773 33.4848 116.395 33.9936 114.976 33.9936C113.76 33.9936 112.815 33.5337 112.138 32.6178C111.461 31.702 111.124 30.4971 111.124 29.0033C111.124 27.6723 111.274 26.2843 111.57 24.8312C111.72 24.0863 111.927 23.2111 112.199 22.2058C111.684 21.9615 111.274 21.644 110.962 21.2574C110.65 20.8707 110.496 20.4596 110.496 20.024C110.496 19.6699 110.605 19.4949 110.82 19.4949C110.832 19.4949 111.047 19.5559 111.461 19.678C111.874 19.8002 112.316 19.8612 112.791 19.8612H112.872C113.711 17.1463 114.595 14.8953 115.527 13.1044C116.245 11.7489 116.894 10.7557 117.473 10.133C118.053 9.5102 118.69 9.19678 119.379 9.19678C119.918 9.19678 120.429 9.39216 120.912 9.77884C121.39 10.1615 121.629 10.6703 121.629 11.3093Z" fill="#E34953"/>
</g>
<defs>
<clipPath id="clip0">
<rect width="126" height="34" fill="white"/>
</clipPath>
</defs>
</svg>
