<svg width="614" height="715" viewBox="0 0 614 715" fill="none" xmlns="http://www.w3.org/2000/svg">
<g filter="url(#filter0_d)">
<mask id="path-1-inside-1" fill="white">
<path fill-rule="evenodd" clip-rule="evenodd" d="M607 3H7V703H607V3ZM306.754 24.1287C303.088 24.1287 300.116 27.1103 300.116 30.7882V34.9813H280.918C277.252 34.9813 274.28 37.9629 274.28 41.6409C274.28 45.3189 277.252 48.3005 280.918 48.3005H333.083C336.749 48.3005 339.72 45.3189 339.72 41.6409C339.72 37.9629 336.749 34.9813 333.083 34.9813H313.392V30.7882C313.392 27.1103 310.42 24.1287 306.754 24.1287Z"/>
</mask>
<path fill-rule="evenodd" clip-rule="evenodd" d="M607 3H7V703H607V3ZM306.754 24.1287C303.088 24.1287 300.116 27.1103 300.116 30.7882V34.9813H280.918C277.252 34.9813 274.28 37.9629 274.28 41.6409C274.28 45.3189 277.252 48.3005 280.918 48.3005H333.083C336.749 48.3005 339.72 45.3189 339.72 41.6409C339.72 37.9629 336.749 34.9813 333.083 34.9813H313.392V30.7882C313.392 27.1103 310.42 24.1287 306.754 24.1287Z" fill="white"/>
<path d="M7 3V2H6V3H7ZM607 3H608V2H607V3ZM7 703H6V704H7V703ZM607 703V704H608V703H607ZM300.116 34.9813V35.9813H301.116V34.9813H300.116ZM313.392 34.9813H312.392V35.9813H313.392V34.9813ZM7 4H607V2H7V4ZM8 703V3H6V703H8ZM607 702H7V704H607V702ZM606 3V703H608V3H606ZM301.116 30.7882C301.116 27.6595 303.644 25.1287 306.754 25.1287V23.1287C302.533 23.1287 299.116 26.561 299.116 30.7882H301.116ZM301.116 34.9813V30.7882H299.116V34.9813H301.116ZM280.918 35.9813H300.116V33.9813H280.918V35.9813ZM275.28 41.6409C275.28 38.5121 277.807 35.9813 280.918 35.9813V33.9813C276.696 33.9813 273.28 37.4137 273.28 41.6409H275.28ZM280.918 47.3005C277.807 47.3005 275.28 44.7697 275.28 41.6409H273.28C273.28 45.8681 276.696 49.3005 280.918 49.3005V47.3005ZM333.083 47.3005H280.918V49.3005H333.083V47.3005ZM338.72 41.6409C338.72 44.7697 336.193 47.3005 333.083 47.3005V49.3005C337.304 49.3005 340.72 45.8681 340.72 41.6409H338.72ZM333.083 35.9813C336.193 35.9813 338.72 38.5121 338.72 41.6409H340.72C340.72 37.4137 337.304 33.9813 333.083 33.9813V35.9813ZM313.392 35.9813H333.083V33.9813H313.392V35.9813ZM312.392 30.7882V34.9813H314.392V30.7882H312.392ZM306.754 25.1287C309.865 25.1287 312.392 27.6595 312.392 30.7882H314.392C314.392 26.561 310.976 23.1287 306.754 23.1287V25.1287Z" fill="#353C41" fill-opacity="0.1" mask="url(#path-1-inside-1)"/>
</g>
<defs>
<filter id="filter0_d" x="0.24" y="0.81" width="613.52" height="713.52" filterUnits="userSpaceOnUse" color-interpolation-filters="sRGB">
<feFlood flood-opacity="0" result="BackgroundImageFix"/>
<feColorMatrix in="SourceAlpha" type="matrix" values="0 0 0 0 0 0 0 0 0 0 0 0 0 0 0 0 0 0 127 0"/>
<feOffset dy="4.57"/>
<feGaussianBlur stdDeviation="3.38"/>
<feColorMatrix type="matrix" values="0 0 0 0 0 0 0 0 0 0 0 0 0 0 0 0 0 0 0.04 0"/>
<feBlend mode="normal" in2="BackgroundImageFix" result="effect1_dropShadow"/>
<feBlend mode="normal" in="SourceGraphic" in2="effect1_dropShadow" result="shape"/>
</filter>
</defs>
</svg>
