<svg viewBox="0 0 26 23" xmlns="http://www.w3.org/2000/svg" class="svg-icon">
  <path d="M13 0.947388C12.0932 0.947388 11.1865 1.38956 10.6963 2.2747L1.66603 18.5887C0.713666 20.3094 2.00306 22.5 3.96974 22.5H22.0314C23.9981 22.5 25.2875 20.3094 24.3351 18.5887L15.3037 2.2747C14.8135 1.38956 13.9068 0.947388 13 0.947388ZM5.69923 1.48971C5.54 1.49014 5.38391 1.534 5.24777 1.61657C5.11163 1.69915 5.0006 1.8173 4.92664 1.95831C4.85268 2.09932 4.81859 2.25783 4.82805 2.41677C4.83751 2.57572 4.89015 2.72907 4.98032 2.86031L6.14698 4.61031C6.20985 4.70789 6.29149 4.79198 6.38717 4.8577C6.48285 4.92341 6.59064 4.96944 6.70428 4.99309C6.81792 5.01675 6.93512 5.01756 7.04908 4.99548C7.16303 4.9734 7.27145 4.92887 7.36803 4.86449C7.46461 4.8001 7.54741 4.71715 7.61162 4.62045C7.67583 4.52376 7.72016 4.41525 7.74203 4.30126C7.7639 4.18727 7.76288 4.07006 7.73902 3.95647C7.71515 3.84288 7.66893 3.73516 7.60304 3.63961L6.43637 1.88961C6.35681 1.76657 6.24762 1.66547 6.11883 1.5956C5.99003 1.52573 5.84576 1.48932 5.69923 1.48971ZM20.2746 1.48971C20.1325 1.49362 19.9935 1.53208 19.8697 1.60176C19.7458 1.67143 19.6408 1.77023 19.5637 1.88961L18.397 3.63961C18.3311 3.73516 18.2849 3.84288 18.261 3.95647C18.2371 4.07006 18.2361 4.18727 18.258 4.30126C18.2799 4.41525 18.3242 4.52376 18.3884 4.62045C18.4526 4.71715 18.5354 4.8001 18.632 4.86449C18.7286 4.92887 18.837 4.9734 18.9509 4.99548C19.0649 5.01756 19.1821 5.01675 19.2957 4.99309C19.4094 4.96944 19.5172 4.92341 19.6129 4.8577C19.7085 4.79198 19.7902 4.70789 19.853 4.61031L21.0197 2.86031C21.1112 2.72724 21.1641 2.57143 21.1726 2.41015C21.181 2.24886 21.1446 2.08839 21.0675 1.9465C20.9903 1.80461 20.8754 1.68683 20.7355 1.60621C20.5956 1.52559 20.436 1.48526 20.2746 1.48971ZM13 2.637C13.2967 2.637 13.593 2.79825 13.7725 3.12235L22.8039 19.4363C23.15 20.0617 22.7446 20.75 22.0314 20.75H3.96974C3.25658 20.75 2.85114 20.0617 3.19728 19.4363L12.2276 3.12235C12.407 2.79825 12.7034 2.637 13 2.637ZM3.10157 4.99426C2.90512 4.98769 2.71217 5.04746 2.55382 5.16393C2.39548 5.2804 2.28095 5.44678 2.22871 5.63628C2.17647 5.82578 2.18955 6.02735 2.26584 6.2085C2.34213 6.38966 2.47719 6.53986 2.64926 6.63489L4.69093 7.80155C4.89247 7.91668 5.1315 7.94703 5.35542 7.88592C5.46629 7.85566 5.57012 7.80386 5.66098 7.73348C5.75183 7.66309 5.82794 7.5755 5.88494 7.47571C5.94194 7.37591 5.97873 7.26587 5.99321 7.15185C6.00768 7.03784 5.99956 6.92209 5.9693 6.81122C5.93905 6.70034 5.88725 6.59652 5.81686 6.50566C5.74648 6.4148 5.65889 6.3387 5.55909 6.2817L3.51743 5.11503C3.39112 5.04057 3.24812 4.99904 3.10157 4.99426ZM22.96 4.99426C22.7926 4.988 22.6269 5.02991 22.4826 5.11503L20.4409 6.2817C20.2394 6.39682 20.0918 6.5873 20.0307 6.81122C19.9696 7.03514 20 7.27416 20.1151 7.47571C20.2302 7.67725 20.4207 7.82481 20.6446 7.88592C20.8685 7.94703 21.1075 7.91668 21.3091 7.80155L23.3508 6.63489C23.5183 6.54243 23.6509 6.39762 23.7282 6.22263C23.8056 6.04764 23.8235 5.85212 23.7792 5.66599C23.7348 5.47987 23.6307 5.31341 23.4828 5.19209C23.3348 5.07077 23.1512 5.00128 22.96 4.99426ZM12.9863 7.32076C12.7545 7.32438 12.5335 7.41989 12.372 7.5863C12.2105 7.75271 12.1217 7.97642 12.125 8.20829V14.0416C12.1234 14.1576 12.1448 14.2727 12.188 14.3803C12.2313 14.4879 12.2955 14.5858 12.3769 14.6684C12.4583 14.751 12.5553 14.8165 12.6623 14.8613C12.7692 14.906 12.8841 14.9291 13 14.9291C13.116 14.9291 13.2308 14.906 13.3378 14.8613C13.4447 14.8165 13.5417 14.751 13.6232 14.6684C13.7046 14.5858 13.7688 14.4879 13.812 14.3803C13.8552 14.2727 13.8767 14.1576 13.875 14.0416V8.20829C13.8767 8.09118 13.8548 7.97492 13.8108 7.86641C13.7667 7.75789 13.7013 7.65933 13.6184 7.57656C13.5355 7.4938 13.4369 7.42851 13.3283 7.38457C13.2197 7.34063 13.1035 7.31893 12.9863 7.32076ZM1.62501 9.08329C1.50906 9.08165 1.39395 9.10307 1.28635 9.14631C1.17875 9.18955 1.08082 9.25374 0.998247 9.33515C0.915673 9.41657 0.850104 9.51358 0.80535 9.62055C0.760596 9.72753 0.737549 9.84233 0.737549 9.95829C0.737549 10.0743 0.760596 10.1891 0.80535 10.296C0.850104 10.403 0.915673 10.5 0.998247 10.5814C1.08082 10.6628 1.17875 10.727 1.28635 10.7703C1.39395 10.8135 1.50906 10.8349 1.62501 10.8333H3.95834C4.07429 10.8349 4.18941 10.8135 4.29701 10.7703C4.4046 10.727 4.50254 10.6628 4.58511 10.5814C4.66768 10.5 4.73325 10.403 4.77801 10.296C4.82276 10.1891 4.84581 10.0743 4.84581 9.95829C4.84581 9.84233 4.82276 9.72753 4.77801 9.62055C4.73325 9.51358 4.66768 9.41657 4.58511 9.33515C4.50254 9.25374 4.4046 9.18955 4.29701 9.14631C4.18941 9.10307 4.07429 9.08165 3.95834 9.08329H1.62501ZM22.0417 9.08329C21.9257 9.08165 21.8106 9.10307 21.703 9.14631C21.5954 9.18955 21.4975 9.25374 21.4149 9.33515C21.3323 9.41657 21.2668 9.51358 21.222 9.62055C21.1773 9.72753 21.1542 9.84233 21.1542 9.95829C21.1542 10.0743 21.1773 10.1891 21.222 10.296C21.2668 10.403 21.3323 10.5 21.4149 10.5814C21.4975 10.6628 21.5954 10.727 21.703 10.7703C21.8106 10.8135 21.9257 10.8349 22.0417 10.8333H24.375C24.491 10.8349 24.6061 10.8135 24.7137 10.7703C24.8213 10.727 24.9192 10.6628 25.0018 10.5814C25.0843 10.5 25.1499 10.403 25.1947 10.296C25.2394 10.1891 25.2625 10.0743 25.2625 9.95829C25.2625 9.84233 25.2394 9.72753 25.1947 9.62055C25.1499 9.51358 25.0843 9.41657 25.0018 9.33515C24.9192 9.25374 24.8213 9.18955 24.7137 9.14631C24.6061 9.10307 24.491 9.08165 24.375 9.08329H22.0417ZM13 16.6666C12.6906 16.6666 12.3938 16.7895 12.1751 17.0083C11.9563 17.2271 11.8333 17.5239 11.8333 17.8333C11.8333 18.1427 11.9563 18.4395 12.1751 18.6583C12.3938 18.877 12.6906 19 13 19C13.3094 19 13.6062 18.877 13.825 18.6583C14.0438 18.4395 14.1667 18.1427 14.1667 17.8333C14.1667 17.5239 14.0438 17.2271 13.825 17.0083C13.6062 16.7895 13.3094 16.6666 13 16.6666Z"/>
</svg>