<svg viewBox="0 0 21 15" xmlns="http://www.w3.org/2000/svg" class="svg-icon">
	<path d="M1.01424 0.000100007C0.881731 -0.00177404 0.750168 0.0227073 0.6272 0.072121C0.504231 0.121535 0.39231 0.194895 0.29794 0.28794C0.203571 0.380984 0.128635 0.491857 0.0774869 0.614114C0.0263392 0.736371 0 0.867575 0 1.0001C0 1.13263 0.0263392 1.26383 0.0774869 1.38609C0.128635 1.50834 0.203571 1.61922 0.29794 1.71226C0.39231 1.8053 0.504231 1.87867 0.6272 1.92808C0.750168 1.97749 0.881731 2.00197 1.01424 2.0001H19.0142C19.1468 2.00197 19.2783 1.97749 19.4013 1.92808C19.5243 1.87867 19.6362 1.8053 19.7305 1.71226C19.8249 1.61922 19.8999 1.50834 19.951 1.38609C20.0021 1.26383 20.0285 1.13263 20.0285 1.0001C20.0285 0.867575 20.0021 0.736371 19.951 0.614114C19.8999 0.491857 19.8249 0.380984 19.7305 0.28794C19.6362 0.194895 19.5243 0.121535 19.4013 0.072121C19.2783 0.0227073 19.1468 -0.00177404 19.0142 0.000100007H1.01424ZM1.01424 6.5001C0.881731 6.49823 0.750168 6.52271 0.6272 6.57212C0.504231 6.62153 0.39231 6.6949 0.29794 6.78794C0.203571 6.88098 0.128635 6.99186 0.0774869 7.11411C0.0263392 7.23637 0 7.36758 0 7.5001C0 7.63263 0.0263392 7.76383 0.0774869 7.88609C0.128635 8.00834 0.203571 8.11922 0.29794 8.21226C0.39231 8.3053 0.504231 8.37867 0.6272 8.42808C0.750168 8.47749 0.881731 8.50197 1.01424 8.5001H19.0142C19.1468 8.50197 19.2783 8.47749 19.4013 8.42808C19.5243 8.37867 19.6362 8.3053 19.7305 8.21226C19.8249 8.11922 19.8999 8.00834 19.951 7.88609C20.0021 7.76383 20.0285 7.63263 20.0285 7.5001C20.0285 7.36758 20.0021 7.23637 19.951 7.11411C19.8999 6.99186 19.8249 6.88098 19.7305 6.78794C19.6362 6.6949 19.5243 6.62153 19.4013 6.57212C19.2783 6.52271 19.1468 6.49823 19.0142 6.5001H1.01424ZM1.01424 13.0001C0.881731 12.9982 0.750168 13.0227 0.6272 13.0721C0.504231 13.1215 0.39231 13.1949 0.29794 13.2879C0.203571 13.381 0.128635 13.4919 0.0774869 13.6141C0.0263392 13.7364 0 13.8676 0 14.0001C0 14.1326 0.0263392 14.2638 0.0774869 14.3861C0.128635 14.5083 0.203571 14.6192 0.29794 14.7123C0.39231 14.8053 0.504231 14.8787 0.6272 14.9281C0.750168 14.9775 0.881731 15.002 1.01424 15.0001H19.0142C19.1468 15.002 19.2783 14.9775 19.4013 14.9281C19.5243 14.8787 19.6362 14.8053 19.7305 14.7123C19.8249 14.6192 19.8999 14.5083 19.951 14.3861C20.0021 14.2638 20.0285 14.1326 20.0285 14.0001C20.0285 13.8676 20.0021 13.7364 19.951 13.6141C19.8999 13.4919 19.8249 13.381 19.7305 13.2879C19.6362 13.1949 19.5243 13.1215 19.4013 13.0721C19.2783 13.0227 19.1468 12.9982 19.0142 13.0001H1.01424Z"/>
</svg>