<svg viewBox="0 0 25 17" xmlns="http://www.w3.org/2000/svg" class="svg-icon">
	<path d="M23.2,6.8H1.8v6.5c0,1.1,0.9,2,2,2h17.4c1.1,0,2-0.9,2-2V6.8z" class="svg-icon__background"/>
	<path d="M24.9,7.5H3.5V14c0,1.1,0.9,2,2,2h17.4c1.1,0,2-0.9,2-2V7.5z" class="svg-icon__credit-card"/>
	<path d="M3.8,0.1c-2,0-3.7,1.6-3.7,3.7v9.6c0,2,1.6,3.7,3.7,3.7h17.4c2,0,3.7-1.6,3.7-3.7V3.7c0-2-1.6-3.7-3.7-3.7H3.8z
        M3.8,1.8h17.4c1.1,0,2,0.9,2,2v0.8H1.8V3.7C1.8,2.6,2.7,1.8,3.8,1.8z M1.8,6.8h21.4v6.5c0,1.1-0.9,2-2,2H3.8c-1.1,0-2-0.9-2-2V6.8z
        M16.7,11.3c-0.1,0-0.2,0-0.3,0.1c-0.1,0-0.2,0.1-0.3,0.2c-0.1,0.1-0.1,0.2-0.2,0.3c0,0.1-0.1,0.2-0.1,0.3c0,0.1,0,0.2,0.1,0.3
        c0,0.1,0.1,0.2,0.2,0.3c0.1,0.1,0.2,0.1,0.3,0.2c0.1,0,0.2,0.1,0.3,0.1h3.4c0.1,0,0.2,0,0.3-0.1c0.1,0,0.2-0.1,0.3-0.2
        c0.1-0.1,0.1-0.2,0.2-0.3c0-0.1,0.1-0.2,0.1-0.3c0-0.1,0-0.2-0.1-0.3c0-0.1-0.1-0.2-0.2-0.3c-0.1-0.1-0.2-0.1-0.3-0.2
        c-0.1,0-0.2-0.1-0.3-0.1H16.7z" class="svg-icon__contour"/>
</svg>