<svg viewBox="0 0 16 16" xmlns="http://www.w3.org/2000/svg" class="svg-icon">
	<path d="M2.53131 0.92914C2.43893 0.834115 2.32859 0.758396 2.2067 0.706386C2.08481 0.654375 1.95379 0.627108 1.82127 0.626171C1.68875 0.625234 1.55736 0.650645 1.43475 0.700927C1.31213 0.751209 1.20073 0.825359 1.10702 0.919069C1.01331 1.01278 0.939162 1.12418 0.88888 1.24679C0.838598 1.36941 0.813188 1.5008 0.814125 1.63332C0.815062 1.76584 0.842328 1.89685 0.894339 2.01875C0.94635 2.14064 1.02207 2.25098 1.11709 2.34335L13.845 15.0713C13.9374 15.1663 14.0477 15.242 14.1696 15.294C14.2915 15.346 14.4225 15.3733 14.5551 15.3742C14.6876 15.3752 14.819 15.3498 14.9416 15.2995C15.0642 15.2492 15.1756 15.1751 15.2693 15.0813C15.363 14.9876 15.4372 14.8762 15.4874 14.7536C15.5377 14.631 15.5631 14.4996 15.5622 14.3671C15.5613 14.2346 15.534 14.1036 15.482 13.9817C15.43 13.8598 15.3543 13.7494 15.2592 13.6571L2.53131 0.92914Z"/>
	<path d="M0.894144 13.9815C0.946154 13.8596 1.02187 13.7493 1.1169 13.6569L13.8448 0.928971C13.9372 0.833946 14.0475 0.758228 14.1694 0.706217C14.2913 0.654206 14.4223 0.626939 14.5549 0.626002C14.6874 0.625064 14.8188 0.650475 14.9414 0.700757C15.064 0.751039 15.1754 0.825191 15.2691 0.9189C15.3628 1.01261 15.437 1.12401 15.4872 1.24662C15.5375 1.36924 15.5629 1.50063 15.562 1.63315C15.5611 1.76567 15.5338 1.89668 15.4818 2.01858C15.4298 2.14047 15.3541 2.25081 15.259 2.34318L2.53111 15.0711C2.43874 15.1661 2.3284 15.2419 2.2065 15.2939C2.08461 15.3459 1.9536 15.3731 1.82108 15.3741C1.68855 15.375 1.55717 15.3496 1.43455 15.2993C1.31194 15.249 1.20054 15.1749 1.10683 15.0812C1.01312 14.9875 0.938966 14.8761 0.888684 14.7535C0.838402 14.6308 0.812992 14.4995 0.813929 14.3669C0.814866 14.2344 0.842133 14.1034 0.894144 13.9815Z"/>
</svg>