<svg viewBox="0 0 14 14" xmlns="http://www.w3.org/2000/svg" class="svg-icon">
  <path d="M10.0436 10.3942C9.7153 10.7225 9.1833 10.7225 8.8557 10.3942L7 8.27323L5.1443 10.3935C4.816 10.7218 4.284 10.7218 3.9564 10.3935C3.6281 10.0652 3.6281 9.53323 3.9564 9.20563L5.887 7.00063L3.9557 4.79423C3.6274 4.46593 3.6274 3.93463 3.9557 3.60633C4.284 3.27803 4.8153 3.27803 5.1436 3.60633L7 5.72803L8.8557 3.60633C9.184 3.27803 9.7153 3.27803 10.0436 3.60633C10.3719 3.93463 10.3719 4.46663 10.0436 4.79423L8.113 7.00063L10.0436 9.20563C10.3719 9.53393 10.3719 10.0659 10.0436 10.3942Z"/>
</svg>