<svg viewBox="0 0 26 26" xmlns="http://www.w3.org/2000/svg" class="svg-icon">
	<path fill-rule="evenodd" clip-rule="evenodd" d="M12.9602 1.7312C16.3332 2.03091 18.9809 4.18121 21.2339 6.70914C23.7162 9.49427 26.5357 12.5851 25.9122 16.2634C25.2616 20.1013 21.8187 22.736 18.2527 24.297C14.8613 25.7816 11.0439 25.8187 7.69655 24.2373C4.31654 22.6405 1.80164 19.6861 0.84382 16.0727C-0.158911 12.2898 0.0860713 8.04389 2.61169 5.05447C5.07166 2.14276 9.16344 1.39384 12.9602 1.7312Z" class="svg-icon__background svg-icon__background--red"/>
	<path d="M19.4227 5.69946C19.1962 5.70481 18.9809 5.79963 18.8241 5.96319L13.0001 11.7872L7.17614 5.96319C7.09614 5.88096 7.00046 5.81562 6.89476 5.77104C6.78905 5.72646 6.67548 5.70354 6.56075 5.70364C6.39027 5.70386 6.22372 5.75488 6.08238 5.85021C5.94103 5.94554 5.83132 6.08084 5.76724 6.23882C5.70317 6.39681 5.68764 6.57031 5.72265 6.73716C5.75766 6.90401 5.84161 7.05664 5.96379 7.17555L11.7878 12.9995L5.96379 18.8235C5.88151 18.9025 5.81581 18.9971 5.77056 19.1018C5.7253 19.2065 5.70139 19.3192 5.70023 19.4333C5.69907 19.5473 5.72068 19.6605 5.7638 19.7661C5.80691 19.8717 5.87067 19.9676 5.95133 20.0483C6.03198 20.129 6.12793 20.1927 6.23353 20.2358C6.33914 20.279 6.45229 20.3006 6.56635 20.2994C6.68041 20.2982 6.7931 20.2743 6.89781 20.2291C7.00251 20.1838 7.09714 20.1181 7.17614 20.0358L13.0001 14.2119L18.8241 20.0358C18.9031 20.1181 18.9977 20.1838 19.1024 20.2291C19.2071 20.2743 19.3198 20.2982 19.4339 20.2994C19.5479 20.3006 19.6611 20.279 19.7667 20.2358C19.8723 20.1927 19.9682 20.129 20.0489 20.0483C20.1296 19.9677 20.1933 19.8717 20.2364 19.7661C20.2795 19.6605 20.3012 19.5473 20.3 19.4333C20.2988 19.3192 20.2749 19.2065 20.2297 19.1018C20.1844 18.9971 20.1187 18.9025 20.0364 18.8235L14.2125 12.9995L20.0364 7.17555C20.1612 7.05592 20.2469 6.90138 20.2823 6.73219C20.3177 6.56301 20.3011 6.38708 20.2347 6.22748C20.1684 6.06788 20.0553 5.93206 19.9104 5.83783C19.7655 5.74361 19.5955 5.69537 19.4227 5.69946Z" class="svg-icon__contour"/>
</svg>