<svg viewBox="0 0 24 22" xmlns="http://www.w3.org/2000/svg" class="svg-icon">
  <path d="M22.2258 0.773105C21.7584 0.304208 20.9977 0.304135 20.529 0.772958L1.77422 19.5301C1.30547 19.9989 1.30547 20.7594 1.77437 21.2269C2.24312 21.6958 3.00242 21.6957 3.47117 21.2269L22.2257 2.46991C22.6946 2.00116 22.6946 1.24185 22.2258 0.773105ZM3.73008 15.1968L6.80127 12.1266C6.71777 11.7629 6.66563 11.3882 6.66563 11C6.66563 8.1453 9.05391 5.82967 12 5.82967C12.3434 5.82967 12.6773 5.86746 13.0025 5.92767L14.4451 4.48568C13.6729 4.36043 12.8631 4.28045 12 4.28045C4.12734 4.28045 0 10.0789 0 11C0 11.5081 1.26885 13.509 3.73008 15.1968ZM20.274 6.80555L17.1996 9.87908C17.2822 10.2409 17.3332 10.6141 17.3332 11C17.3332 13.8547 14.9461 16.1679 12 16.1679C11.6593 16.1679 11.3282 16.1299 11.0054 16.0707L9.56045 17.515C10.3313 17.6397 11.1393 17.7195 12 17.7195C19.8727 17.7195 24 11.9187 24 11C24 10.4908 22.7326 8.49217 20.274 6.80555Z"/>
</svg>