<svg viewBox="0 0 24 14" xmlns="http://www.w3.org/2000/svg" class="svg-icon">
  <path d="M12 0.280029C4.1268 0.280029 0 6.07843 0 7.00003C0 7.91923 4.1268 13.72 12 13.72C19.872 13.72 24 7.91923 24 7.00003C24 6.07843 19.872 0.280029 12 0.280029ZM12 12.1684C9.054 12.1684 6.666 9.85483 6.666 7.00003C6.666 4.14523 9.054 1.82923 12 1.82923C14.946 1.82923 17.3328 4.14523 17.3328 7.00003C17.3328 9.85483 14.946 12.1684 12 12.1684ZM12 7.00003C11.5116 6.46363 12.7956 4.41523 12 4.41523C10.5264 4.41523 9.3324 5.57323 9.3324 7.00003C9.3324 8.42683 10.5264 9.58483 12 9.58483C13.4724 9.58483 14.6676 8.42683 14.6676 7.00003C14.6676 6.34363 12.4152 7.45483 12 7.00003Z"/>
</svg>