<svg viewBox="0 0 31 31" xmlns="http://www.w3.org/2000/svg" class="svg-icon">
	<path fill-rule="evenodd" clip-rule="evenodd" d="M3 0C1.34315 0 0 1.34315 0 3V28C0 29.6569 1.34315 31 3 31H28C29.6569 31 31 29.6569 31 28V3C31 1.34315 29.6569 0 28 0H3ZM25.5394 10.2598L25.6378 5.70475C22.2918 5.12326 19.733 5.9955 19.733 6.09242C18.4537 6.38316 17.3711 7.06158 16.6823 8.12765C15.7965 9.29064 15.5013 10.7444 15.5013 12.1981V15.784H11.2696L11.1711 20.7267H15.5013L15.6981 30.9998H20.6188L20.7172 20.7267H24.8505L25.5394 15.784L20.7172 15.6871V11.9074C20.7172 11.8105 20.7172 10.3567 22.8823 10.2598H25.5394Z"/>
</svg>
