<svg viewBox="0 0 24 24" xmlns="http://www.w3.org/2000/svg" class="svg-icon">
	<path d="M20.6667 0.625H3.33333C1.83833 0.625 0.625 1.83833 0.625 3.33333V20.6667C0.625 22.1617 1.83833 23.375 3.33333 23.375H20.6667C22.1617 23.375 23.375 22.1617 23.375 20.6667V3.33333C23.375 1.83833 22.1617 0.625 20.6667 0.625ZM18.5 8.75H17.4167C16.2575 8.75 15.7917 9.02083 15.7917 9.83333V11.4583H18.5L17.9583 14.1667H15.7917V22.2917H13.0833V14.1667H10.9167V11.4583H13.0833V9.83333C13.0833 7.66667 14.1667 6.04167 16.3333 6.04167C17.9042 6.04167 18.5 6.58333 18.5 6.58333V8.75Z"/>
</svg>