<svg viewBox="0 0 35 35" xmlns="http://www.w3.org/2000/svg" class="svg-icon">
    <rect width="35" height="35" rx="4" fill="white"/>
    <path d="M13.2783 5.37012C16.0416 4.40621 19.157 4.43336 21.9067 5.45158C23.4373 6.0082 24.8325 6.90423 26.0244 8.00391C25.6316 8.43835 25.1982 8.84564 24.7783 9.2665C23.9927 10.0539 23.207 10.8413 22.4214 11.6288C21.6493 10.8821 20.6876 10.3119 19.6582 9.99962C18.4391 9.63306 17.1387 9.57875 15.9061 9.85028C14.4568 10.149 13.1158 10.9092 12.0864 11.9682C11.2465 12.8235 10.6099 13.8688 10.2307 14.9957C8.83549 13.9096 7.44033 12.8235 6.03162 11.7374C7.50805 8.77775 10.1629 6.44264 13.2783 5.37012Z" fill="#EA4535"/>
    <path d="M4.92093 14.9548C5.1512 13.8415 5.51692 12.7419 6.03164 11.7236C7.42681 12.8097 8.83552 13.8958 10.2307 14.9819C9.67532 16.5839 9.68887 18.376 10.2307 19.978C8.83552 21.0641 7.44035 22.1502 6.03164 23.2363C4.74484 20.7247 4.35203 17.7515 4.92093 14.9548Z" fill="#F9BC15"/>
    <path d="M17.4639 15.0906C21.4733 15.0906 25.4962 15.0906 29.5056 15.0906C29.912 17.3442 29.8172 19.6929 29.1805 21.9058C28.5981 23.9287 27.4874 25.8022 25.9432 27.2277C24.5887 26.1688 23.2342 25.1234 21.8796 24.0645C23.2206 23.1684 24.1688 21.7022 24.4397 20.1002C22.1099 20.1002 19.7937 20.1002 17.4639 20.1002C17.4639 18.4303 17.4639 16.7605 17.4639 15.0906Z" fill="#557EBF"/>
    <path d="M6.03162 23.2637C7.42678 22.1776 8.82194 21.0915 10.2307 20.0054C10.7589 21.5802 11.8019 22.9921 13.17 23.9425C14.0233 24.5398 14.9986 24.9743 16.0145 25.1779C17.0168 25.3816 18.0598 25.3544 19.0757 25.1915C20.0781 25.015 21.0533 24.6484 21.8931 24.0782C23.2477 25.1372 24.6022 26.1826 25.9567 27.2415C24.4938 28.5991 22.6517 29.5223 20.7147 29.9703C18.5746 30.4591 16.2989 30.4726 14.1588 29.9024C12.4656 29.4544 10.8808 28.6399 9.51275 27.5538C8.04986 26.3862 6.85788 24.92 6.03162 23.2637Z" fill="#36A852"/>
</svg>