<svg viewBox="0 0 24 24" xmlns="http://www.w3.org/2000/svg" class="svg-icon">
	<path d="M6.94444 0.625C3.45485 0.625 0.625 3.45485 0.625 6.94444V17.0556C0.625 20.5452 3.45485 23.375 6.94444 23.375H17.0556C20.5452 23.375 23.375 20.5452 23.375 17.0556V6.94444C23.375 3.45485 20.5452 0.625 17.0556 0.625H6.94444ZM19.5833 3.15278C20.281 3.15278 20.8472 3.719 20.8472 4.41667C20.8472 5.11433 20.281 5.68056 19.5833 5.68056C18.8857 5.68056 18.3194 5.11433 18.3194 4.41667C18.3194 3.719 18.8857 3.15278 19.5833 3.15278ZM12 5.68056C15.4896 5.68056 18.3194 8.5104 18.3194 12C18.3194 15.4896 15.4896 18.3194 12 18.3194C8.5104 18.3194 5.68056 15.4896 5.68056 12C5.68056 8.5104 8.5104 5.68056 12 5.68056ZM12 8.20833C10.9944 8.20833 10.03 8.60781 9.31889 9.31889C8.60781 10.03 8.20833 10.9944 8.20833 12C8.20833 13.0056 8.60781 13.97 9.31889 14.6811C10.03 15.3922 10.9944 15.7917 12 15.7917C13.0056 15.7917 13.97 15.3922 14.6811 14.6811C15.3922 13.97 15.7917 13.0056 15.7917 12C15.7917 10.9944 15.3922 10.03 14.6811 9.31889C13.97 8.60781 13.0056 8.20833 12 8.20833Z"/>
</svg>