<svg viewBox="0 0 24 24" xmlns="http://www.w3.org/2000/svg" class="svg-icon">
	<path d="M19.1094 0.625H4.89062C2.53564 0.625 0.625 2.53564 0.625 4.89062V19.1094C0.625 21.4644 2.53564 23.375 4.89062 23.375H19.1094C21.4644 23.375 23.375 21.4644 23.375 19.1094V4.89062C23.375 2.53564 21.4644 0.625 19.1094 0.625ZM7.65918 19.9365H4.125L4.10449 9.35449H7.63867L7.65918 19.9365ZM5.80322 7.97021H5.78271C4.62744 7.97021 3.88232 7.17383 3.88232 6.18262C3.88232 5.16748 4.65137 4.39844 5.82715 4.39844C7.00293 4.39844 7.72412 5.16748 7.74805 6.18262C7.74805 7.17383 6.99951 7.97021 5.80322 7.97021ZM19.9126 19.9365H16.3477V14.1875C16.3477 12.7964 15.9785 11.8496 14.7344 11.8496C13.7842 11.8496 13.2715 12.4888 13.0254 13.1074C12.9331 13.3296 12.9092 13.6338 12.9092 13.9448V19.9365H9.32715L9.30664 9.35449H12.8887L12.9092 10.8481C13.3672 10.1406 14.1294 9.13916 15.9546 9.13916C18.2173 9.13916 19.9092 10.6157 19.9092 13.791V19.9365H19.9126Z"/>
</svg>