<svg viewBox="0 0 21 21" xmlns="http://www.w3.org/2000/svg" class="svg-icon">
	<path d="M3.2,0.9l9.2-0.5c1.7-0.1,3.1,1.2,3.2,2.8L16.4,17c0.1,1.7-1.2,3.1-2.8,3.2l-9.2,0.5
          c-1.7,0.1-3.1-1.2-3.2-2.8L0.4,4C0.3,2.4,1.6,1,3.2,0.9z" class="svg-icon__background svg-icon__background--blue"/>
	<path d="M7.4,10.6h9.7l-3,3l1.3,1.3l5.2-5.2l-5.2-5.2l-1.3,1.3l3,3H7.4V10.6z M3.7,17.9H12v-1.8H3.7V3.3H12
          V1.4H3.7c-1,0-1.8,0.8-1.8,1.8l0,12.8C1.9,17.1,2.7,17.9,3.7,17.9z" class="svg-icon__contour"/>
</svg>