<svg viewBox="0 0 22 22" xmlns="http://www.w3.org/2000/svg" class="svg-icon">
	<path d="M19.2463 7.58643V20.4501H2.75439V7.58643" class="svg-icon__glass"/>
	<path d="M18.9162 9.23546C18.2895 9.23546 17.7123 8.9386 17.333 8.44384L16.9372 7.9161L16.5414 8.44384C16.1621 8.9386 15.5849 9.23546 14.9582 9.23546C14.3315 9.23546 13.7543 8.9386 13.375 8.44384L12.9791 7.9161L12.5833 8.44384C12.204 8.9386 11.6268 9.23546 11.0001 9.23546C10.3734 9.23546 9.79621 8.9386 9.4169 8.44384L9.02109 7.9161L8.62529 8.44384C8.24597 8.9386 7.66876 9.23546 7.04206 9.23546C6.41537 9.23546 5.83815 8.9386 5.45884 8.44384L5.06304 7.9161L4.66723 8.44384C4.28792 8.9386 3.7107 9.23546 3.08401 9.23546C1.99554 9.23546 1.10498 8.34489 1.10498 7.25643L2.75417 0.659668L19.2461 0.659668L20.8953 7.25643C20.8953 8.34489 20.0047 9.23546 18.9162 9.23546Z" class="svg-icon__roof-tile svg-icon__roof-tile--light"/>
	<path d="M16.1126 0.659668H12.8142L12.9791 7.25643V7.27292C12.9956 8.36138 13.8862 9.23546 14.9581 9.23546C16.0301 9.23546 16.9207 8.36138 16.9372 7.28941V7.25643L16.1126 0.659668ZM7.04202 9.23546C5.97004 9.23546 5.07948 8.36138 5.06299 7.28941V7.25643L5.88758 0.659668H9.18596L9.02104 7.27292C9.02104 8.34489 8.13048 9.23546 7.04202 9.23546Z" class="svg-icon__roof-tile svg-icon__roof-tile--dark"/>
	<path d="M19.7245 0.544353C19.675 0.313466 19.4771 0.165039 19.2462 0.165039L2.75435 0.165039C2.52346 0.165039 2.32556 0.313466 2.27608 0.544353L0.75883 6.66285C0.396008 8.13063 1.40201 9.63139 2.91927 9.73034C2.96874 9.73034 3.03471 9.73034 3.08419 9.73034C3.89229 9.73034 4.61793 9.33453 5.06322 8.74083C5.5085 9.35103 6.23414 9.73034 7.04224 9.73034C7.85035 9.73034 8.57599 9.33453 9.02127 8.74083C9.46655 9.35103 10.1922 9.73034 11.0003 9.73034C11.8084 9.73034 12.534 9.33453 12.9793 8.74083C13.4246 9.33453 14.1503 9.73034 14.9584 9.73034C15.7665 9.73034 16.4921 9.33453 16.9374 8.74083C17.3827 9.33453 18.1083 9.73034 18.9164 9.73034C19.3122 9.73034 19.6915 9.63139 20.0214 9.46647C21.0274 8.95522 21.5221 7.7843 21.2418 6.69583L19.7245 0.544353ZM3.34806 8.72433C3.01822 8.7903 2.70487 8.72433 2.42451 8.5924C1.81431 8.27905 1.53395 7.5699 1.69887 6.91023L3.13366 1.15455H5.32709L4.56846 7.19059V7.20708C4.56846 7.93272 4.0737 8.5924 3.34806 8.72433ZM7.04224 8.74083C6.23414 8.74083 5.57446 8.08115 5.55797 7.27305L6.3166 1.15455H8.67494L8.52651 7.25655C8.52651 8.08115 7.86684 8.74083 7.04224 8.74083ZM11.0003 8.74083C10.1757 8.74083 9.51603 8.08115 9.51603 7.27305L9.66446 1.15455H12.3197L12.4846 7.25655C12.4846 8.08115 11.8249 8.74083 11.0003 8.74083ZM14.9584 8.74083C14.1503 8.74083 13.4906 8.08115 13.4741 7.25655V7.24006L13.3257 1.15455H15.684L16.4426 7.28954C16.4261 8.09764 15.7665 8.74083 14.9584 8.74083ZM18.9164 8.74083C18.0918 8.74083 17.4321 8.08115 17.4321 7.25655C17.4321 7.24006 17.4321 7.20708 17.4321 7.19059L16.6735 1.15455H18.8669L20.3017 6.91023C20.4666 7.5699 20.1863 8.27905 19.5761 8.57591C19.3782 8.67486 19.1473 8.74083 18.9164 8.74083ZM7.37208 15.1727C7.24086 15.1727 7.11502 15.2248 7.02224 15.3176C6.92945 15.4104 6.87732 15.5362 6.87732 15.6674C6.87732 15.7986 6.92945 15.9245 7.02224 16.0173C7.11502 16.1101 7.24086 16.1622 7.37208 16.1622C7.5033 16.1622 7.62914 16.1101 7.72193 16.0173C7.81471 15.9245 7.86684 15.7986 7.86684 15.6674C7.86684 15.5362 7.81471 15.4104 7.72193 15.3176C7.62914 15.2248 7.5033 15.1727 7.37208 15.1727Z" class="svg-icon__contour"/>
	<path d="M20.8954 19.955H19.741V9.56507C19.741 9.28471 19.5266 9.07031 19.2462 9.07031C18.9658 9.07031 18.7514 9.28471 18.7514 9.56507V17.9759H9.51598V11.2143C9.51598 10.9339 9.30158 10.7195 9.02122 10.7195C8.74086 10.7195 8.52646 10.9339 8.52646 11.2143V19.955H3.24906V11.2143C3.24906 10.9339 3.03466 10.7195 2.7543 10.7195C2.47394 10.7195 2.25954 10.9339 2.25954 11.2143V19.955H1.10511C0.824746 19.955 0.610352 20.1694 0.610352 20.4497C0.610352 20.7301 0.824746 20.9445 1.10511 20.9445H20.8954C21.1757 20.9445 21.3901 20.7301 21.3901 20.4497C21.3901 20.1694 21.1757 19.955 20.8954 19.955Z" class="svg-icon__contour"/>
	<path d="M15.7826 15.4032C15.7167 15.4032 15.6507 15.3867 15.5847 15.3537C15.3374 15.2383 15.2219 14.9579 15.3374 14.6941L16.3269 12.4676C16.4423 12.2203 16.7227 12.1048 16.9866 12.2203C17.2339 12.3357 17.3494 12.6161 17.2339 12.8799L16.2444 15.1064C16.1455 15.2878 15.9641 15.4032 15.7826 15.4032ZM12.979 16.8215C12.9131 16.8215 12.8471 16.805 12.7811 16.772C12.5337 16.6566 12.4183 16.3762 12.5337 16.1124L14.5128 11.6595C14.6282 11.4122 14.9086 11.2967 15.1724 11.4122C15.4198 11.5276 15.5353 11.808 15.4198 12.0718L13.4408 16.5247C13.3418 16.7061 13.1604 16.8215 12.979 16.8215Z" class="svg-icon__glass-blick"/>
</svg>
