<svg viewBox="0 0 24 21" xmlns="http://www.w3.org/2000/svg" class="svg-icon">
  <path d="M23.4224 0.749805C23.2724 0.479805 22.9724 0.299805 22.6424 0.299805L1.7924 0.329805C1.4624 0.329805 1.1624 0.509805 1.0124 0.779805C0.862402 1.0498 0.862402 1.4098 1.0124 1.6798L4.5824 7.7698L2.9024 11.9098C2.7824 12.1798 2.8124 12.4498 2.9624 12.6898C3.1124 12.9298 3.3524 13.0798 3.6224 13.1398L8.0624 13.7098L11.6324 19.7998C11.7824 20.0698 12.0824 20.2498 12.4124 20.2498C12.7424 20.2498 13.0424 20.0698 13.1924 19.7998L23.4224 1.6498C23.5724 1.3498 23.5724 1.0198 23.4224 0.749805ZM12.3824 17.5498L9.3824 12.4198C9.2324 12.1798 8.9924 12.0298 8.7224 11.9698L5.9024 11.6098L15.5324 5.6998C15.8924 5.4898 16.0724 5.06981 15.9524 4.6798C15.8024 4.19981 15.3224 3.92981 14.8424 4.0798L6.0224 6.65981L3.3824 2.1598L21.1124 2.0998L12.3824 17.5498Z"/>
</svg>