<svg viewBox="0 0 35 35" xmlns="http://www.w3.org/2000/svg" class="svg-icon">
   <path d="M17.4998 0.416504C8.06471 0.416504 0.416504 8.06471 0.416504 17.4998C0.416504 26.935 8.06471 34.5832 17.4998 34.5832C26.935 34.5832 34.5832 26.935 34.5832 17.4998C34.5832 8.06471 26.935 0.416504 17.4998 0.416504ZM24.3332 19.2082C16.6786 19.2082 19.3547 19.2082 10.6665 19.2082C9.72351 19.2082 8.95817 18.4428 8.95817 17.4998C8.95817 16.5568 9.72351 15.7915 10.6665 15.7915C19.3547 15.7915 16.6786 15.7915 24.3332 15.7915C25.2762 15.7915 26.0415 16.5568 26.0415 17.4998C26.0415 18.4428 25.2762 19.2082 24.3332 19.2082Z"/>
</svg>