<svg viewBox="0 0 35 35" xmlns="http://www.w3.org/2000/svg" class="svg-icon">
  <path d="M17.4998 0.416504C8.06471 0.416504 0.416504 8.06471 0.416504 17.4998C0.416504 26.935 8.06471 34.5832 17.4998 34.5832C26.935 34.5832 34.5832 26.935 34.5832 17.4998C34.5832 8.06471 26.935 0.416504 17.4998 0.416504ZM24.3332 19.2082H19.2082V24.3332C19.2082 25.2762 18.4428 26.0415 17.4998 26.0415C16.5568 26.0415 15.7915 25.2762 15.7915 24.3332V19.2082H10.6665C9.72351 19.2082 8.95817 18.4428 8.95817 17.4998C8.95817 16.5568 9.72351 15.7915 10.6665 15.7915H15.7915V10.6665C15.7915 9.72351 16.5568 8.95817 17.4998 8.95817C18.4428 8.95817 19.2082 9.72351 19.2082 10.6665V15.7915H24.3332C25.2762 15.7915 26.0415 16.5568 26.0415 17.4998C26.0415 18.4428 25.2762 19.2082 24.3332 19.2082Z"/>
</svg>