<svg viewBox="0 0 35 35" xmlns="http://www.w3.org/2000/svg" class="svg-icon">
  <path d="M17.4898 34.5832C26.9096 34.5832 34.5732 26.9196 34.5732 17.4998C34.5732 8.08009 26.9096 0.416504 17.4898 0.416504C8.07008 0.416504 0.406494 8.08009 0.406494 17.4998C0.406494 26.9196 8.07008 34.5832 17.4898 34.5832ZM10.1773 16.5936L15.3023 11.4686C15.8028 10.968 16.6135 10.968 17.114 11.4686C17.6145 11.9691 17.6145 12.7797 17.114 13.2803L14.1765 16.2186H23.8961C24.6033 16.2186 25.1773 16.7926 25.1773 17.4998C25.1773 18.2071 24.6033 18.7811 23.8961 18.7811H14.1765L17.114 21.7186C17.6145 22.2191 17.6145 23.0297 17.114 23.5303C16.8646 23.7814 16.5366 23.9061 16.2086 23.9061C15.8806 23.9061 15.5526 23.7814 15.3023 23.5311L10.1773 18.4061C9.67762 17.9056 9.67762 17.0941 10.1773 16.5936Z"/>
</svg>