<svg viewBox="0 0 24 24" xmlns="http://www.w3.org/2000/svg" class="svg-icon">
	<path d="M13 3C13 2.448 12.552 2 12 2C11.448 2 11 2.448 11 3C11 3.3 11 6.7 11 7C11 7.552 11.448 8 12 8C12.552 8 13 7.552 13 7C13 6.7 13 3.3 13 3Z"/>
	<path opacity="0.35" d="M13 17C13 16.448 12.552 16 12 16C11.448 16 11 16.448 11 17C11 17.3 11 20.7 11 21C11 21.552 11.448 22 12 22C12.552 22 13 21.552 13 21C13 20.7 13 17.3 13 17Z"/>
	<path opacity="0.35" d="M21 13C21.552 13 22 12.552 22 12C22 11.448 21.552 11 21 11C20.7 11 17.3 11 17 11C16.448 11 16 11.448 16 12C16 12.552 16.448 13 17 13C17.3 13 20.7 13 21 13Z"/>
	<path d="M7 13C7.552 13 8 12.552 8 12C8 11.448 7.552 11 7 11C6.7 11 3.3 11 3 11C2.448 11 2 11.448 2 12C2 12.552 2.448 13 3 13C3.3 13 6.7 13 7 13Z"/>
	<path d="M19.071 6.34297C19.461 5.95297 19.462 5.31897 19.071 4.92897C18.68 4.53897 18.047 4.53897 17.657 4.92897C17.445 5.14097 15.041 7.54497 14.829 7.75697C14.439 8.14697 14.438 8.78097 14.829 9.17097C15.22 9.56197 15.853 9.56097 16.243 9.17097C16.455 8.95897 18.859 6.55597 19.071 6.34297Z"/>
	<path d="M9.17208 16.243C9.56208 15.853 9.56308 15.219 9.17208 14.829C8.78108 14.438 8.14808 14.439 7.75808 14.829C7.54608 15.041 5.14208 17.445 4.93008 17.657C4.54008 18.047 4.53908 18.681 4.93008 19.071C5.32108 19.461 5.95408 19.461 6.34408 19.071C6.55608 18.859 8.95908 16.455 9.17208 16.243Z"/>
	<path opacity="0.35" d="M17.657 19.071C18.047 19.461 18.681 19.462 19.071 19.071C19.461 18.68 19.461 18.047 19.071 17.657C18.859 17.445 16.455 15.041 16.243 14.829C15.853 14.439 15.219 14.438 14.829 14.829C14.438 15.22 14.439 15.853 14.829 16.243C15.041 16.455 17.444 18.859 17.657 19.071Z"/>
	<path d="M7.75697 9.17211C8.14697 9.56211 8.78097 9.56311 9.17097 9.17211C9.56197 8.78111 9.56097 8.14811 9.17097 7.75811C8.95897 7.54511 6.55597 5.14111 6.34297 4.92911C5.95297 4.53911 5.31897 4.53811 4.92897 4.92911C4.53897 5.32011 4.53897 5.95311 4.92897 6.34311C5.14097 6.55611 7.54497 8.95911 7.75697 9.17211Z"/>
</svg>
