<svg viewBox="0 0 24 21" xmlns="http://www.w3.org/2000/svg" class="svg-icon">
	<path d="M10.3,16.9l-4.1,2.9c-0.9,0.6-2-0.2-1.7-1.2l1.4-4.8c0.1-0.4,0-0.9-0.4-1.2l-4-3c-0.9-0.6-0.4-2,0.7-2l5-0.1
        c0.5,0,0.9-0.3,1-0.7l1.7-4.7c0.3-1,1.8-1,2.1,0l1.6,4.7c0.2,0.4,0.6,0.7,1,0.7l5,0.1c1.1,0,1.5,1.4,0.7,2l-4,3
        c-0.4,0.3-0.5,0.8-0.4,1.2l1.4,4.8c0.3,1-0.8,1.9-1.7,1.2l-4.1-2.9C11.2,16.6,10.6,16.6,10.3,16.9z" class="svg-icon__background"/>
	<path d="M13.1,17.1L9,19.9c-0.9,0.6-2-0.2-1.7-1.2l1.4-4.8c0.1-0.4,0-0.9-0.4-1.2l-4-3C3.5,9,3.9,7.7,5,7.6l5-0.1
        c0.5,0,0.9-0.3,1-0.7l1.7-4.7c0.3-1,1.8-1,2.1,0l1.6,4.7c0.2,0.4,0.6,0.7,1,0.7l5,0.1c1.1,0,1.5,1.4,0.7,2l-4,3
        c-0.4,0.3-0.5,0.8-0.4,1.2l1.4,4.8c0.3,1-0.8,1.9-1.7,1.2l-4.1-2.8C14,16.8,13.5,16.8,13.1,17.1z" class="svg-icon__star"/>
	<path d="M5.5,20.6c-0.4,0-0.7-0.1-1-0.4c-0.6-0.5-0.9-1.2-0.7-1.9l1.4-4.8c0.1-0.2,0-0.4-0.2-0.5l-4-3
        C0.5,9.5,0.2,8.7,0.5,8c0.2-0.7,0.9-1.2,1.7-1.2l5-0.1c0.2,0,0.4-0.1,0.4-0.3l1.6-4.7c0.3-0.7,0.9-1.2,1.7-1.2s1.4,0.5,1.7,1.2
        l1.6,4.7c0.1,0.2,0.2,0.3,0.4,0.3l5,0.1c0.8,0,1.4,0.5,1.7,1.2c0.2,0.7,0,1.5-0.6,2l-4,3c-0.2,0.1-0.2,0.3-0.2,0.5l1.4,4.8
        c0.2,0.7,0,1.5-0.7,1.9c-0.6,0.5-1.4,0.5-2.1,0l-4.1-2.9c-0.2-0.1-0.4-0.1-0.5,0l-4.1,2.9C6.2,20.5,5.9,20.6,5.5,20.6z M10.9,1.7
        c-0.1,0-0.3,0-0.4,0.3L8.8,6.8C8.6,7.5,7.9,8,7.2,8l-5,0.1c-0.3,0-0.4,0.2-0.4,0.3c0,0.1-0.1,0.3,0.2,0.5l4,3
        c0.6,0.4,0.8,1.2,0.6,1.9l-1.4,4.8c-0.1,0.3,0.1,0.5,0.2,0.5c0.1,0,0.3,0.2,0.5,0l4.1-2.9c0.6-0.4,1.4-0.4,2,0l4.1,2.9
        c0.2,0.2,0.5,0,0.5,0c0.1,0,0.3-0.2,0.2-0.5l-1.5-4.8c-0.2-0.7,0-1.5,0.6-1.9l4-3c0.2-0.2,0.2-0.4,0.2-0.5c0-0.1-0.1-0.3-0.4-0.3
        l-5-0.1c-0.7,0-1.4-0.5-1.6-1.2l-1.6-4.7C11.2,1.8,11,1.7,10.9,1.7z" class="svg-icon__contour"/>
</svg>