<svg viewBox="0 0 28 24" xmlns="http://www.w3.org/2000/svg" class="svg-icon">
	<path d="M28 2.94401C26.9701 3.39974 25.8626 3.70964 24.7005 3.84635C25.8854 3.13542 26.7969 2.00977 27.2253 0.669921C26.1178 1.32617 24.8874 1.80469 23.5794 2.06445C22.5313 0.947916 21.0365 0.246094 19.3867 0.246094C16.2148 0.246094 13.64 2.82096 13.64 5.99284C13.64 6.44401 13.6901 6.88151 13.7904 7.30078C9.01432 7.0638 4.7806 4.77604 1.95052 1.29883C1.45378 2.14648 1.17122 3.13542 1.17122 4.18815C1.17122 6.17969 2.18294 7.9388 3.72787 8.96875C2.78451 8.93685 1.90039 8.68164 1.12565 8.2487C1.12565 8.27604 1.12565 8.29883 1.12565 8.32162C1.12565 11.1061 3.10352 13.4303 5.73307 13.9544C5.25 14.0866 4.74414 14.1595 4.22005 14.1595C3.85091 14.1595 3.48633 14.123 3.13997 14.0547C3.86914 16.3379 5.99284 17.9967 8.50391 18.0469C6.53972 19.5872 4.06055 20.5033 1.37174 20.5033C0.906901 20.5033 0.451172 20.4759 0 20.4212C2.54297 22.0527 5.5599 23.0052 8.80469 23.0052C19.373 23.0052 25.1517 14.2507 25.1517 6.6582C25.1517 6.41211 25.1426 6.16146 25.1335 5.91536C26.2546 5.10417 27.2298 4.09245 28 2.94401Z"/>
</svg>