<svg viewBox="0 0 22 25" xmlns="http://www.w3.org/2000/svg" class="svg-icon">
	<path d="M1.18779 9.6119L0.240654 19.4825C0.0823953 21.1317 1.29111 22.597 2.94038 22.7553L17.5395 24.1562C19.1888 24.3144 20.6541 23.1057 20.8124 21.4564L21.7595 11.5859C21.9178 9.93661 20.7091 8.47131 19.0598 8.31305L4.46063 6.91217C2.81135 6.75391 1.34605 7.96262 1.18779 9.6119Z" class="svg-icon__warm-back"/>
	<path fill-rule="evenodd" clip-rule="evenodd" d="M11.9167 14.6671V4.96349L14.9351 7.98198L16.2315 6.68562L11 1.4541L5.76848 6.68562L7.06484 7.98198L10.0833 4.96349V14.6671H11.9167ZM19.25 18.3338V10.0838H17.4167V18.3338H4.58333V10.0838H2.75V18.3338C2.75 19.3463 3.57081 20.1671 4.58333 20.1671H17.4167C18.4292 20.1671 19.25 19.3463 19.25 18.3338Z" class="svg-icon__contour"/>
</svg>
