<svg viewBox="0 0 23 23" xmlns="http://www.w3.org/2000/svg" class="svg-icon">
	<path d="M17.5,19c-0.6-2.8-3-4.9-6-4.9s-5.4,2.1-6,4.9c1.6,1.3,3.7,2.1,6,2.1S15.8,20.3,17.5,19z" class="svg-icon__background"/>
	<path d="M17.5,19c-0.6-2.8-3-4.9-6-4.9s-5.4,2.1-6,4.9c1.6,1.3,3.7,2.1,6,2.1S15.8,20.3,17.5,19z" class="svg-icon__background"/>
	<path d="M20.1,19.6c-0.6-3-3.2-5.3-6.4-5.3c-3.2,0-5.8,2.3-6.4,5.3c1.8,1.4,4,2.2,6.4,2.2S18.3,21,20.1,19.6z" class="svg-icon__user"/>
	<path d="M11.5,0.1C5.2,0.1,0.1,5.2,0.1,11.5c0,6.3,5.1,11.4,11.4,11.4c6.3,0,11.4-5.1,11.4-11.4
        C22.9,5.2,17.8,0.1,11.5,0.1z M11.5,1.9c5.3,0,9.6,4.3,9.6,9.6c0,2.3-0.8,4.5-2.2,6.2c-0.8-2.1-2.4-3.8-4.5-4.7
        c0.9-0.8,1.4-1.9,1.4-3.2c0-2.4-2-4.4-4.4-4.4s-4.4,2-4.4,4.4c0,1.3,0.6,2.4,1.4,3.2c-2.1,0.8-3.7,2.6-4.5,4.7
        c-1.4-1.7-2.2-3.8-2.2-6.2C1.9,6.2,6.2,1.9,11.5,1.9z M11.5,7.1c1.5,0,2.6,1.2,2.6,2.6c0,1.5-1.2,2.6-2.6,2.6s-2.6-1.2-2.6-2.6
        C8.9,8.3,10,7.1,11.5,7.1z M11.5,14.1c3,0,5.4,2.1,6,4.9c-1.6,1.3-3.7,2.1-6,2.1s-4.3-0.8-6-2.1C6.1,16.2,8.5,14.1,11.5,14.1z" class="svg-icon__contour"/>
</svg>