<svg viewBox="0 0 28 20" xmlns="http://www.w3.org/2000/svg" class="svg-icon">
	<path d="M26.3923 3.37473C26.1496 2.03535 24.9934 1.05996 23.6516 0.755442C21.6438 0.329599 17.9277 0.0250854 13.9072 0.0250854C9.88907 0.0250854 6.11358 0.329599 4.10332 0.755442C2.76393 1.05996 1.60536 1.9735 1.3627 3.37473C1.11766 4.8973 0.875 7.02889 0.875 9.76951C0.875 12.5101 1.11766 14.6417 1.42217 16.1643C1.66721 17.5037 2.82341 18.4791 4.16279 18.7836C6.29439 19.2094 9.94855 19.5139 13.9691 19.5139C17.9896 19.5139 21.6438 19.2094 23.7754 18.7836C25.1147 18.4791 26.2709 17.5655 26.516 16.1643C26.7586 14.6417 27.0631 12.4483 27.125 9.76951C27.0013 7.02889 26.6968 4.8973 26.3923 3.37473ZM10.6194 14.0327V5.50633L18.0491 9.76951L10.6194 14.0327Z"/>
</svg>