<svg width="54" height="54" viewBox="0 0 54 54" fill="none" xmlns="http://www.w3.org/2000/svg">
<rect width="54" height="54" rx="27" fill="#DAEDFA"/>
<path d="M22.0156 21.3965C23.6211 21.3965 24.8691 21.7773 25.7598 22.5391C26.6504 23.3008 27.0957 24.3848 27.0957 25.791C27.0957 27.2676 26.6504 28.416 25.7598 29.2363C24.8691 30.0508 23.6211 30.458 22.0156 30.458H19.7305V34H16.5225V21.3965H22.0156ZM19.7305 27.9355H21.8574C22.5664 27.9355 23.1113 27.7627 23.4922 27.417C23.873 27.0654 24.0635 26.5586 24.0635 25.8965C24.0635 25.2461 23.8701 24.7539 23.4834 24.4199C23.1025 24.0859 22.5605 23.9189 21.8574 23.9189H19.7305V27.9355ZM34.25 21.3965C35.8555 21.3965 37.1035 21.7773 37.9941 22.5391C38.8848 23.3008 39.3301 24.3848 39.3301 25.791C39.3301 27.2676 38.8848 28.416 37.9941 29.2363C37.1035 30.0508 35.8555 30.458 34.25 30.458H31.9648V34H28.7568V21.3965H34.25ZM31.9648 27.9355H34.0918C34.8008 27.9355 35.3457 27.7627 35.7266 27.417C36.1074 27.0654 36.2979 26.5586 36.2979 25.8965C36.2979 25.2461 36.1045 24.7539 35.7178 24.4199C35.3369 24.0859 34.7949 23.9189 34.0918 23.9189H31.9648V27.9355Z" fill="#30B3EA"/>
</svg>
