<svg width="122" height="42" viewBox="0 0 122 42" fill="none" xmlns="http://www.w3.org/2000/svg">
<path d="M2 6.52266C2 3.9596 5.00635 2.57688 6.95237 4.24489L9 6V42L2.94629 36.3148C2.34248 35.7478 2 34.9563 2 34.128V6.52266Z" fill="#AF3A42"/>
<g filter="url(#filter0_d)">
<path d="M2 4.00009C2 2.34324 3.31059 1.00009 4.96744 1.00009C22.452 1.00006 111.394 0.999901 115 1.0001C121.5 18.5 115 37.0001 115 37.0001H5C3.34315 37.0001 2 35.657 2 34.0001V4.00009Z" fill="#E34953"/>
</g>
<path d="M36.2897 24.168C35.2723 24.168 34.353 23.9487 33.5317 23.51C32.7197 23.0713 32.0803 22.4693 31.6137 21.704C31.1563 20.9293 30.9277 20.0613 30.9277 19.1C30.9277 18.1387 31.1563 17.2753 31.6137 16.51C32.0803 15.7353 32.7197 15.1287 33.5317 14.69C34.353 14.2513 35.2723 14.032 36.2897 14.032C37.307 14.032 38.2217 14.2513 39.0337 14.69C39.8457 15.1287 40.485 15.7353 40.9517 16.51C41.4183 17.2753 41.6517 18.1387 41.6517 19.1C41.6517 20.0613 41.4183 20.9293 40.9517 21.704C40.485 22.4693 39.8457 23.0713 39.0337 23.51C38.2217 23.9487 37.307 24.168 36.2897 24.168ZM36.2897 22.236C36.8683 22.236 37.391 22.1053 37.8577 21.844C38.3243 21.5733 38.6883 21.2 38.9497 20.724C39.2203 20.248 39.3557 19.7067 39.3557 19.1C39.3557 18.4933 39.2203 17.952 38.9497 17.476C38.6883 17 38.3243 16.6313 37.8577 16.37C37.391 16.0993 36.8683 15.964 36.2897 15.964C35.711 15.964 35.1883 16.0993 34.7217 16.37C34.255 16.6313 33.8863 17 33.6157 17.476C33.3543 17.952 33.2237 18.4933 33.2237 19.1C33.2237 19.7067 33.3543 20.248 33.6157 20.724C33.8863 21.2 34.255 21.5733 34.7217 21.844C35.1883 22.1053 35.711 22.236 36.2897 22.236ZM58.2601 14.2L55.0541 24H52.6181L50.4621 17.364L48.2361 24H45.8141L42.5941 14.2H44.9461L47.1581 21.088L49.4681 14.2H51.5681L53.8081 21.144L56.0901 14.2H58.2601ZM68.9342 14.2V24H67.0722L62.1862 18.05V24H59.9462V14.2H61.8222L66.6942 20.15V14.2H68.9342ZM79.2608 22.18V24H71.6728V14.2H79.0788V16.02H73.9268V18.148H78.4768V19.912H73.9268V22.18H79.2608ZM87.7294 24L85.8394 21.27H85.7274H83.7534V24H81.4854V14.2H85.7274C86.5954 14.2 87.3467 14.3447 87.9814 14.634C88.6254 14.9233 89.1201 15.334 89.4654 15.866C89.8107 16.398 89.9834 17.028 89.9834 17.756C89.9834 18.484 89.8061 19.114 89.4514 19.646C89.1061 20.1687 88.6114 20.57 87.9674 20.85L90.1654 24H87.7294ZM87.6874 17.756C87.6874 17.2053 87.5101 16.7853 87.1554 16.496C86.8007 16.1973 86.2827 16.048 85.6014 16.048H83.7534V19.464H85.6014C86.2827 19.464 86.8007 19.3147 87.1554 19.016C87.5101 18.7173 87.6874 18.2973 87.6874 17.756Z" fill="white"/>
<defs>
<filter id="filter0_d" x="0" y="0" width="121.889" height="42.0001" filterUnits="userSpaceOnUse" color-interpolation-filters="sRGB">
<feFlood flood-opacity="0" result="BackgroundImageFix"/>
<feColorMatrix in="SourceAlpha" type="matrix" values="0 0 0 0 0 0 0 0 0 0 0 0 0 0 0 0 0 0 127 0"/>
<feOffset dx="1" dy="2"/>
<feGaussianBlur stdDeviation="1.5"/>
<feColorMatrix type="matrix" values="0 0 0 0 0 0 0 0 0 0 0 0 0 0 0 0 0 0 0.21 0"/>
<feBlend mode="normal" in2="BackgroundImageFix" result="effect1_dropShadow"/>
<feBlend mode="normal" in="SourceGraphic" in2="effect1_dropShadow" result="shape"/>
</filter>
</defs>
</svg>
