<svg width="122" height="42" viewBox="0 0 122 42" fill="none" xmlns="http://www.w3.org/2000/svg">
<path d="M2 6.52266C2 3.9596 5.00635 2.57688 6.95237 4.24489L9 6V42L2.94629 36.3148C2.34248 35.7477 2 34.9563 2 34.128V6.52266Z" fill="#1C7872"/>
<g filter="url(#filter0_d)">
<path d="M2 4.00009C2 2.34324 3.31059 1.00009 4.96744 1.00009C22.452 1.00006 111.394 0.999901 115 1.0001C121.5 18.5 115 37.0001 115 37.0001H5C3.34315 37.0001 2 35.657 2 34.0001V4.00009Z" fill="#22A199"/>
</g>
<path d="M15.4207 24.168C14.646 24.168 13.8947 24.0653 13.1667 23.86C12.448 23.6453 11.8694 23.37 11.4307 23.034L12.2007 21.326C12.6207 21.634 13.12 21.8813 13.6987 22.068C14.2774 22.2547 14.856 22.348 15.4347 22.348C16.0787 22.348 16.5547 22.2547 16.8627 22.068C17.1707 21.872 17.3247 21.6153 17.3247 21.298C17.3247 21.0647 17.2314 20.8733 17.0447 20.724C16.8674 20.5653 16.634 20.4393 16.3447 20.346C16.0647 20.2527 15.682 20.15 15.1967 20.038C14.45 19.8607 13.8387 19.6833 13.3627 19.506C12.8867 19.3287 12.476 19.044 12.1307 18.652C11.7947 18.26 11.6267 17.7373 11.6267 17.084C11.6267 16.5147 11.7807 16.0013 12.0887 15.544C12.3967 15.0773 12.8587 14.7087 13.4747 14.438C14.1 14.1673 14.8607 14.032 15.7567 14.032C16.382 14.032 16.9934 14.1067 17.5907 14.256C18.188 14.4053 18.7107 14.62 19.1587 14.9L18.4587 16.622C17.5534 16.1087 16.648 15.852 15.7427 15.852C15.108 15.852 14.6367 15.9547 14.3287 16.16C14.03 16.3653 13.8807 16.636 13.8807 16.972C13.8807 17.308 14.0534 17.56 14.3987 17.728C14.7534 17.8867 15.29 18.0453 16.0087 18.204C16.7554 18.3813 17.3667 18.5587 17.8427 18.736C18.3187 18.9133 18.7247 19.1933 19.0607 19.576C19.406 19.9587 19.5787 20.4767 19.5787 21.13C19.5787 21.69 19.42 22.2033 19.1027 22.67C18.7947 23.1273 18.328 23.4913 17.7027 23.762C17.0774 24.0327 16.3167 24.168 15.4207 24.168ZM25.9024 24.168C24.5024 24.168 23.4104 23.7807 22.6264 23.006C21.8518 22.2313 21.4644 21.1253 21.4644 19.688V14.2H23.7324V19.604C23.7324 21.3587 24.4604 22.236 25.9164 22.236C26.6258 22.236 27.1671 22.026 27.5404 21.606C27.9138 21.1767 28.1004 20.5093 28.1004 19.604V14.2H30.3404V19.688C30.3404 21.1253 29.9484 22.2313 29.1644 23.006C28.3898 23.7807 27.3024 24.168 25.9024 24.168ZM40.1976 18.904C40.7576 19.0813 41.1963 19.38 41.5136 19.8C41.831 20.2107 41.9896 20.7193 41.9896 21.326C41.9896 22.1847 41.6536 22.8473 40.9816 23.314C40.319 23.7713 39.3483 24 38.0696 24H33.0016V14.2H37.7896C38.9843 14.2 39.899 14.4287 40.5336 14.886C41.1776 15.3433 41.4997 15.964 41.4997 16.748C41.4997 17.224 41.383 17.6487 41.1496 18.022C40.9256 18.3953 40.6083 18.6893 40.1976 18.904ZM35.2556 15.908V18.218H37.5096C38.0696 18.218 38.4943 18.12 38.7836 17.924C39.073 17.728 39.2176 17.4387 39.2176 17.056C39.2176 16.6733 39.073 16.3887 38.7836 16.202C38.4943 16.006 38.0696 15.908 37.5096 15.908H35.2556ZM37.9016 22.292C38.499 22.292 38.947 22.194 39.2456 21.998C39.5536 21.802 39.7076 21.4987 39.7076 21.088C39.7076 20.276 39.1056 19.87 37.9016 19.87H35.2556V22.292H37.9016ZM47.3467 24.168C46.5721 24.168 45.8207 24.0653 45.0927 23.86C44.3741 23.6453 43.7954 23.37 43.3567 23.034L44.1267 21.326C44.5467 21.634 45.0461 21.8813 45.6247 22.068C46.2034 22.2547 46.7821 22.348 47.3607 22.348C48.0047 22.348 48.4807 22.2547 48.7887 22.068C49.0967 21.872 49.2507 21.6153 49.2507 21.298C49.2507 21.0647 49.1574 20.8733 48.9707 20.724C48.7934 20.5653 48.5601 20.4393 48.2707 20.346C47.9907 20.2527 47.6081 20.15 47.1227 20.038C46.3761 19.8607 45.7647 19.6833 45.2887 19.506C44.8127 19.3287 44.4021 19.044 44.0567 18.652C43.7207 18.26 43.5527 17.7373 43.5527 17.084C43.5527 16.5147 43.7067 16.0013 44.0147 15.544C44.3227 15.0773 44.7847 14.7087 45.4007 14.438C46.0261 14.1673 46.7867 14.032 47.6827 14.032C48.3081 14.032 48.9194 14.1067 49.5167 14.256C50.1141 14.4053 50.6367 14.62 51.0847 14.9L50.3847 16.622C49.4794 16.1087 48.5741 15.852 47.6687 15.852C47.0341 15.852 46.5627 15.9547 46.2547 16.16C45.9561 16.3653 45.8067 16.636 45.8067 16.972C45.8067 17.308 45.9794 17.56 46.3247 17.728C46.6794 17.8867 47.2161 18.0453 47.9347 18.204C48.6814 18.3813 49.2927 18.5587 49.7687 18.736C50.2447 18.9133 50.6507 19.1933 50.9867 19.576C51.3321 19.9587 51.5047 20.4767 51.5047 21.13C51.5047 21.69 51.3461 22.2033 51.0287 22.67C50.7207 23.1273 50.2541 23.4913 49.6287 23.762C49.0034 24.0327 48.2427 24.168 47.3467 24.168ZM58.1645 24.168C57.1658 24.168 56.2605 23.9533 55.4485 23.524C54.6458 23.0853 54.0111 22.4833 53.5445 21.718C53.0871 20.9433 52.8585 20.0707 52.8585 19.1C52.8585 18.1293 53.0871 17.2613 53.5445 16.496C54.0111 15.7213 54.6458 15.1193 55.4485 14.69C56.2605 14.2513 57.1705 14.032 58.1785 14.032C59.0278 14.032 59.7931 14.1813 60.4745 14.48C61.1651 14.7787 61.7438 15.208 62.2105 15.768L60.7545 17.112C60.0918 16.3467 59.2705 15.964 58.2905 15.964C57.6838 15.964 57.1425 16.0993 56.6665 16.37C56.1905 16.6313 55.8171 17 55.5465 17.476C55.2851 17.952 55.1545 18.4933 55.1545 19.1C55.1545 19.7067 55.2851 20.248 55.5465 20.724C55.8171 21.2 56.1905 21.5733 56.6665 21.844C57.1425 22.1053 57.6838 22.236 58.2905 22.236C59.2705 22.236 60.0918 21.8487 60.7545 21.074L62.2105 22.418C61.7438 22.9873 61.1651 23.4213 60.4745 23.72C59.7838 24.0187 59.0138 24.168 58.1645 24.168ZM70.406 24L68.516 21.27H68.404H66.43V24H64.162V14.2H68.404C69.272 14.2 70.0234 14.3447 70.658 14.634C71.302 14.9233 71.7967 15.334 72.142 15.866C72.4874 16.398 72.66 17.028 72.66 17.756C72.66 18.484 72.4827 19.114 72.128 19.646C71.7827 20.1687 71.288 20.57 70.644 20.85L72.842 24H70.406ZM70.364 17.756C70.364 17.2053 70.1867 16.7853 69.832 16.496C69.4774 16.1973 68.9594 16.048 68.278 16.048H66.43V19.464H68.278C68.9594 19.464 69.4774 19.3147 69.832 19.016C70.1867 18.7173 70.364 18.2973 70.364 17.756ZM74.877 14.2H77.145V24H74.877V14.2ZM87.0867 18.904C87.6467 19.0813 88.0854 19.38 88.4027 19.8C88.72 20.2107 88.8787 20.7193 88.8787 21.326C88.8787 22.1847 88.5427 22.8473 87.8707 23.314C87.208 23.7713 86.2374 24 84.9587 24H79.8907V14.2H84.6787C85.8734 14.2 86.788 14.4287 87.4227 14.886C88.0667 15.3433 88.3887 15.964 88.3887 16.748C88.3887 17.224 88.272 17.6487 88.0387 18.022C87.8147 18.3953 87.4974 18.6893 87.0867 18.904ZM82.1447 15.908V18.218H84.3987C84.9587 18.218 85.3834 18.12 85.6727 17.924C85.962 17.728 86.1067 17.4387 86.1067 17.056C86.1067 16.6733 85.962 16.3887 85.6727 16.202C85.3834 16.006 84.9587 15.908 84.3987 15.908H82.1447ZM84.7907 22.292C85.388 22.292 85.836 22.194 86.1347 21.998C86.4427 21.802 86.5967 21.4987 86.5967 21.088C86.5967 20.276 85.9947 19.87 84.7907 19.87H82.1447V22.292H84.7907ZM98.6038 22.18V24H91.0158V14.2H98.4218V16.02H93.2698V18.148H97.8198V19.912H93.2698V22.18H98.6038ZM107.072 24L105.182 21.27H105.07H103.096V24H100.828V14.2H105.07C105.938 14.2 106.69 14.3447 107.324 14.634C107.968 14.9233 108.463 15.334 108.808 15.866C109.154 16.398 109.326 17.028 109.326 17.756C109.326 18.484 109.149 19.114 108.794 19.646C108.449 20.1687 107.954 20.57 107.31 20.85L109.508 24H107.072ZM107.03 17.756C107.03 17.2053 106.853 16.7853 106.498 16.496C106.144 16.1973 105.626 16.048 104.944 16.048H103.096V19.464H104.944C105.626 19.464 106.144 19.3147 106.498 19.016C106.853 18.7173 107.03 18.2973 107.03 17.756Z" fill="white"/>
<defs>
<filter id="filter0_d" x="0" y="0" width="121.889" height="42.0001" filterUnits="userSpaceOnUse" color-interpolation-filters="sRGB">
<feFlood flood-opacity="0" result="BackgroundImageFix"/>
<feColorMatrix in="SourceAlpha" type="matrix" values="0 0 0 0 0 0 0 0 0 0 0 0 0 0 0 0 0 0 127 0"/>
<feOffset dx="1" dy="2"/>
<feGaussianBlur stdDeviation="1.5"/>
<feColorMatrix type="matrix" values="0 0 0 0 0 0 0 0 0 0 0 0 0 0 0 0 0 0 0.21 0"/>
<feBlend mode="normal" in2="BackgroundImageFix" result="effect1_dropShadow"/>
<feBlend mode="normal" in="SourceGraphic" in2="effect1_dropShadow" result="shape"/>
</filter>
</defs>
</svg>
