<svg width="68" height="49" viewBox="0 0 68 49" fill="none" xmlns="http://www.w3.org/2000/svg">
<g clip-path="url(#clip0)">
<path d="M17.9862 13.4231C18.599 13.3937 18.9881 12.9675 18.9589 12.3576L18.8614 10.3245C18.8322 9.71458 18.4041 9.32754 17.7913 9.35692C17.1784 9.3863 16.7893 9.8125 16.8186 10.4224L16.916 12.4555C16.9453 13.0655 17.3733 13.4525 17.9862 13.4231Z" fill="#353C41"/>
<path d="M12.879 13.6679C13.4919 13.6385 13.881 13.2123 13.8517 12.6024L13.7543 10.5693C13.725 9.95933 13.297 9.57229 12.6841 9.60167C12.0712 9.63105 11.6821 10.0573 11.7114 10.6672L11.8088 12.7003C11.8381 13.3102 12.2661 13.6972 12.879 13.6679Z" fill="#353C41"/>
<path d="M7.57698 9.84655C6.96412 9.87592 6.57503 10.3021 6.60427 10.9121L6.70173 12.9452C6.73096 13.5551 7.15903 13.9421 7.77189 13.9127C8.38475 13.8834 8.77383 13.4572 8.7446 12.8472L8.64714 10.8141C8.6179 10.2042 8.18984 9.81717 7.57698 9.84655Z" fill="#353C41"/>
<path d="M8.94136 38.3099C8.3285 38.3393 7.93941 38.7655 7.96865 39.3754L8.06611 41.4085C8.09534 42.0185 8.52341 42.4055 9.13627 42.3761C9.74913 42.3467 10.1382 41.9205 10.109 41.3106L10.0115 39.2775C9.98228 38.6676 9.55422 38.2805 8.94136 38.3099Z" fill="#353C41"/>
<path d="M14.0485 38.0651C13.4356 38.0944 13.0465 38.5206 13.0758 39.1306L13.1732 41.1637C13.2025 41.7736 13.6305 42.1606 14.2434 42.1312C14.8562 42.1019 15.2453 41.6757 15.2161 41.0657L15.1186 39.0326C15.0894 38.4227 14.6613 38.0357 14.0485 38.0651Z" fill="#353C41"/>
<path d="M19.1557 37.8203C18.5428 37.8497 18.1537 38.2759 18.1829 38.8858L18.2804 40.9189C18.3096 41.5288 18.7377 41.9159 19.3506 41.8865C19.9634 41.8571 20.3525 41.4309 20.3233 40.821L20.2258 38.7879C20.1966 38.178 19.7685 37.7909 19.1557 37.8203Z" fill="#353C41"/>
<path d="M43.5221 12.199C44.1349 12.1696 44.524 11.7434 44.4948 11.1335L44.3973 9.10039C44.3681 8.49046 43.94 8.10342 43.3272 8.1328C42.7143 8.16218 42.3252 8.58838 42.3545 9.19831L42.4519 11.2314C42.4811 11.8413 42.9092 12.2284 43.5221 12.199Z" fill="#353C41"/>
<path d="M28.2005 12.9335C28.8134 12.9041 29.2025 12.4779 29.1732 11.868L29.0758 9.83488C29.0466 9.22495 28.6185 8.83792 28.0056 8.8673C27.3928 8.89667 27.0037 9.32288 27.0329 9.93281L27.1304 11.9659C27.1596 12.5758 27.5877 12.9629 28.2005 12.9335Z" fill="#353C41"/>
<path d="M38.4149 12.4439C39.0278 12.4145 39.4168 11.9883 39.3876 11.3784L39.2901 9.34526C39.2609 8.73533 38.8328 8.3483 38.22 8.37767C37.6071 8.40705 37.218 8.83325 37.2473 9.44318L37.3447 11.4763C37.374 12.0862 37.802 12.4732 38.4149 12.4439Z" fill="#353C41"/>
<path d="M48.6293 11.9542C49.2422 11.9249 49.6313 11.4987 49.602 10.8887L49.5046 8.85563C49.4753 8.24571 49.0473 7.85867 48.4344 7.88805C47.8215 7.91743 47.4325 8.34363 47.4617 8.95356L47.5591 10.9867C47.5884 11.5966 48.0165 11.9836 48.6293 11.9542Z" fill="#353C41"/>
<path d="M53.7365 11.7094C54.3494 11.68 54.7384 11.2538 54.7092 10.6439L54.6117 8.61076C54.5825 8.00083 54.1544 7.6138 53.5416 7.64318C52.9287 7.67255 52.5396 8.09876 52.5689 8.70869L52.6663 10.7418C52.6956 11.3517 53.1236 11.7387 53.7365 11.7094Z" fill="#353C41"/>
<path d="M33.3077 12.6886C33.9206 12.6592 34.3097 12.233 34.2804 11.6231L34.183 9.59001C34.1537 8.98008 33.7257 8.59305 33.1128 8.62242C32.4999 8.6518 32.1109 9.07801 32.1401 9.68793L32.2376 11.721C32.2668 12.331 32.6949 12.718 33.3077 12.6886Z" fill="#353C41"/>
<path d="M23.0934 13.1782C23.7062 13.1489 24.0953 12.7227 24.0661 12.1127L23.9686 10.0796C23.9394 9.4697 23.5113 9.08267 22.8985 9.11205C22.2856 9.14143 21.8965 9.56763 21.9257 10.1776L22.0232 12.2107C22.0524 12.8206 22.4805 13.2076 23.0934 13.1782Z" fill="#353C41"/>
<path d="M60.0131 35.8618C59.4003 35.8912 59.0112 36.3174 59.0404 36.9273L59.1379 38.9604C59.1671 39.5703 59.5952 39.9574 60.208 39.928C60.8209 39.8986 61.21 39.4724 61.1808 38.8625L61.0833 36.8294C61.0541 36.2195 60.626 35.8324 60.0131 35.8618Z" fill="#353C41"/>
<path d="M62.4421 1.10326L3.19883 3.94308C1.46239 4.02631 0.197868 5.41148 0.280706 7.13961L2.13238 45.7684C2.21522 47.4966 3.60643 48.7544 5.34287 48.6712L64.5861 45.8314C66.3226 45.7481 67.5871 44.363 67.5043 42.6348L65.6526 4.00601C65.5697 2.27788 64.1785 1.02002 62.4421 1.10326ZM63.7559 7.15358C63.143 7.18296 62.754 7.60916 62.7832 8.21909L62.8806 10.2522C62.9099 10.8621 63.3379 11.2492 63.9508 11.2198L65.1203 35.6169C64.5074 35.6463 64.1183 36.0725 64.1476 36.6824L64.245 38.7155C64.2743 39.3255 64.7023 39.7125 65.3152 39.6831L65.4614 42.7328C65.4906 43.3427 65.1015 43.7689 64.4887 43.7983L5.24541 46.6381C4.63255 46.6675 4.20449 46.2805 4.17525 45.6705L4.02906 42.6209C4.64193 42.5915 5.03101 42.1653 5.00177 41.5554L4.90432 39.5223C4.87508 38.9123 4.44701 38.5253 3.83415 38.5547L2.66467 14.1575C3.27754 14.1281 3.66662 13.7019 3.63738 13.092L3.53993 11.0589C3.51069 10.449 3.08262 10.062 2.46976 10.0913L2.32358 7.04169C2.29434 6.43176 2.68342 6.00555 3.29628 5.97618L62.5395 3.13635C63.1524 3.10697 63.5805 3.49401 63.6097 4.10394L63.7559 7.15358Z" fill="#353C41"/>
<path d="M24.2628 37.5754C23.65 37.6048 23.2609 38.031 23.2901 38.6409L23.3876 40.674C23.4168 41.284 23.8449 41.671 24.4577 41.6416C25.0706 41.6122 25.4597 41.186 25.4305 40.5761L25.333 38.543C25.3038 37.9331 24.8757 37.546 24.2628 37.5754Z" fill="#353C41"/>
<path d="M58.6488 7.39843C58.0359 7.4278 57.6468 7.85401 57.676 8.46394L57.7735 10.497C57.8027 11.107 58.2308 11.494 58.8437 11.4646C59.4565 11.4352 59.8456 11.009 59.8164 10.3991L59.7189 8.36601C59.6897 7.75608 59.2616 7.36905 58.6488 7.39843Z" fill="#353C41"/>
<path d="M34.4772 37.0858C33.8644 37.1152 33.4753 37.5414 33.5045 38.1513L33.602 40.1844C33.6312 40.7943 34.0593 41.1814 34.6722 41.152C35.285 41.1226 35.6741 40.6964 35.6449 40.0865L35.5474 38.0534C35.5182 37.4435 35.0901 37.0564 34.4772 37.0858Z" fill="#353C41"/>
<path d="M39.5844 36.8411C38.9716 36.8704 38.5825 37.2966 38.6117 37.9066L38.7092 39.9397C38.7384 40.5496 39.1665 40.9366 39.7793 40.9072C40.3922 40.8779 40.7813 40.4517 40.752 39.8417L40.6546 37.8086C40.6254 37.1987 40.1973 36.8117 39.5844 36.8411Z" fill="#353C41"/>
<path d="M29.37 37.3307C28.7571 37.3601 28.3681 37.7863 28.3973 38.3962L28.4948 40.4293C28.524 41.0392 28.9521 41.4262 29.5649 41.3969C30.1778 41.3675 30.5669 40.9413 30.5376 40.3314L30.4402 38.2983C30.4109 37.6883 29.9829 37.3013 29.37 37.3307Z" fill="#353C41"/>
<path d="M54.906 36.1066C54.2931 36.1359 53.904 36.5621 53.9332 37.1721L54.0307 39.2052C54.0599 39.8151 54.488 40.2021 55.1009 40.1727C55.7137 40.1434 56.1028 39.7172 56.0736 39.1072L55.9761 37.0741C55.9469 36.4642 55.5188 36.0772 54.906 36.1066Z" fill="#353C41"/>
<path d="M49.7988 36.3514C49.1859 36.3808 48.7968 36.807 48.8261 37.4169L48.9235 39.45C48.9528 40.06 49.3808 40.447 49.9937 40.4176C50.6066 40.3882 50.9956 39.962 50.9664 39.3521L50.8689 37.319C50.8397 36.7091 50.4116 36.3221 49.7988 36.3514Z" fill="#353C41"/>
<path d="M44.6916 36.5962C44.0787 36.6256 43.6897 37.0518 43.7189 37.6617L43.8164 39.6948C43.8456 40.3047 44.2737 40.6917 44.8865 40.6624C45.4994 40.633 45.8885 40.2068 45.8592 39.5969L45.7618 37.5638C45.7325 36.9538 45.3045 36.5668 44.6916 36.5962Z" fill="#353C41"/>
<path d="M50.123 17.4865C48.2844 17.5746 46.6842 18.3645 45.7213 19.6333L45.6142 19.5366C44.6365 18.3608 43.2794 17.8145 41.6451 17.8929C41.0322 17.9222 40.4242 18.0533 39.9233 18.2811C39.7141 18.1892 39.4077 18.2039 39.2034 18.2137L37.2627 18.3067C37.2529 18.1034 37.248 18.0017 37.2383 17.7984C37.1408 15.7653 35.4286 14.2172 33.3857 14.3151C31.3428 14.413 29.7865 16.1179 29.884 18.151C29.8888 18.2526 29.8937 18.3543 29.9034 18.5576C29.4949 18.5772 28.4783 18.7278 28.274 18.7376L25.6183 18.8649C25.414 18.8747 24.699 18.9089 24.5969 18.9138L24.5627 18.2023C24.5335 17.5923 24.2027 17.0987 23.7746 16.7117C23.3515 16.4263 22.9331 16.2426 22.4224 16.2671C22.3203 16.272 22.2181 16.2769 22.116 16.2818L19.5819 16.8108C18.7696 16.9516 18.0887 17.6975 17.9283 18.6222L17.7679 19.5469C16.9361 19.2811 15.9049 19.1267 14.6792 19.1855C13.147 19.2589 11.9408 19.7243 10.9583 20.5865C9.87862 21.5552 9.3291 22.9061 9.4022 24.431C9.45093 25.4475 9.79634 26.2461 10.239 26.938C10.0494 27.2528 9.96183 27.5627 9.8743 27.8725L9.57293 30.1285C9.50977 30.9467 9.95733 31.7403 10.6967 32.2143C11.6404 32.6785 13.3039 33.2101 15.1425 33.122C16.6746 33.0485 17.983 32.5783 18.9655 31.7161C19.0627 31.6095 19.16 31.503 19.2573 31.3964C19.3643 31.4932 19.5783 31.6867 19.6853 31.7834C20.6387 32.451 21.7769 32.7021 23.2069 32.6335C24.2284 32.5846 24.8315 32.3519 25.2352 32.2306C25.3373 32.2257 25.3373 32.2257 25.4346 32.1192C25.6438 32.211 25.9502 32.1964 26.1545 32.1866L29.2188 32.0397C29.9338 32.0054 30.532 31.6711 30.8092 31.0464C31.2422 31.5351 31.8745 31.9124 32.4874 31.883L34.9388 31.7655L35.0071 33.1887C35.0363 33.7986 35.3671 34.2922 35.7951 34.6792C36.2183 34.9646 36.6367 35.1483 37.1474 35.1238C37.2495 35.1189 37.3517 35.114 37.4538 35.1091L40.4938 34.454C41.5054 34.2017 42.1815 33.3542 42.1327 32.3376L42.0938 31.5244C43.5189 31.3542 44.7154 30.6855 45.5859 29.6249C45.6832 29.5183 45.7805 29.4118 45.8729 29.2036C45.9848 29.402 46.1939 29.4939 46.3058 29.6923C47.483 30.7566 49.1417 31.1866 51.0824 31.0935C52.7167 31.0152 54.3315 30.5302 55.421 29.7648C56.1165 29.3239 56.3839 28.496 56.2428 27.6876L55.9703 26.2742C56.2621 25.9546 56.4469 25.5382 56.4225 25.0299C56.4128 24.8266 56.3787 24.115 56.3641 23.8101C56.2715 21.8786 55.6828 20.2766 54.705 19.1008C53.63 18.0316 52.0637 17.3934 50.123 17.4865ZM17.6618 30.1483C17.0733 30.686 16.1637 30.9334 15.1423 30.9823C13.8144 31.046 12.4671 30.703 11.7326 30.3307L12.0339 28.0747C12.8754 28.5438 14.2179 28.7851 14.9329 28.7508C15.5458 28.7214 15.8425 28.5034 15.823 28.0968C15.8035 27.6902 15.4825 27.3999 14.3443 27.1488C12.6807 26.6172 11.6252 25.9546 11.5472 24.3281C11.5034 23.4132 11.7757 22.687 12.3642 22.1493C12.9527 21.6117 13.7552 21.2675 14.7766 21.2186C16.2066 21.15 17.2476 21.5077 17.768 21.6865L17.4667 23.9425C16.8392 23.6669 15.9004 23.3044 14.9811 23.3484C14.4704 23.3729 14.1737 23.5909 14.1883 23.8959C14.2078 24.3025 14.7283 24.4813 15.5649 24.8488C17.2285 25.3804 18.3861 26.0381 18.362 27.6694C18.6199 28.7779 18.2503 29.6107 17.6618 30.1483ZM23.8097 28.1215C24.1161 28.1068 24.5198 27.9856 24.7241 27.9758L24.8362 30.3139C24.5346 30.4302 24.0288 30.5564 23.2116 30.5955C22.1902 30.6445 21.4654 30.4754 20.9352 30.0933C20.298 29.6144 19.9526 28.8159 19.899 27.6977L19.6895 23.3265L18.4637 23.3853L18.6678 21.2358L19.5823 21.0901L19.8836 18.8341L22.4177 18.3051L22.5493 21.0498L24.49 20.9567L24.1887 23.2127L22.6565 23.2862L22.8465 27.2507C22.9779 27.8557 23.1968 28.1509 23.8097 28.1215ZM31.0518 23.2913C30.8475 23.3011 30.6432 23.3109 30.541 23.3158C29.826 23.35 29.3251 23.5778 28.936 24.004L29.2284 30.1033L26.164 30.2502L25.7109 20.7963L28.3666 20.669L28.6245 21.7774C28.8919 20.9495 29.4853 20.5135 30.4046 20.4694C30.6089 20.4596 30.8132 20.4499 31.0223 20.5417L31.1539 23.2864L31.0518 23.2913ZM35.5613 29.7998L32.4969 29.9467L32.0438 20.4928L35.1081 20.3459L35.5613 29.7998ZM33.6342 19.4995C32.7149 19.5436 31.9658 18.8663 31.922 17.9514C31.8781 17.0365 32.559 16.2906 33.4783 16.2466C34.3976 16.2025 35.1467 16.8798 35.1905 17.7947C35.1323 18.7145 34.4514 19.4604 33.6342 19.4995ZM44.0975 28.4736C43.3242 29.4277 42.2103 29.6848 41.3932 29.724C40.9846 29.7436 40.469 29.6664 40.0556 29.5843L40.2018 32.634L37.1618 33.2891L36.5381 20.2773L39.1938 20.15L39.442 21.0551C40.118 20.2076 40.9205 19.8635 41.7377 19.8243C42.657 19.7802 43.4887 20.046 44.0336 20.7331C44.6854 21.517 45.0503 22.7222 45.1234 24.247C45.216 26.1784 44.8707 27.5195 44.0975 28.4736ZM54.3797 25.1278L49.3746 25.3678C49.506 25.9728 49.6276 26.3745 49.9487 26.6648C50.2697 26.9551 50.6832 27.0371 51.2961 27.0078C52.3175 26.9588 53.1249 26.7163 53.8204 26.2754L54.2243 28.2938C53.5336 28.8364 52.3225 29.2001 50.9947 29.2637C49.5647 29.3323 48.5237 28.9746 47.6725 28.3022C46.8163 27.5282 46.3444 26.2262 46.2665 24.5997C46.1203 21.5501 47.6669 19.642 50.2205 19.5196C51.4462 19.4608 52.4871 19.8185 53.1438 20.704C53.7957 21.4878 54.2627 22.6881 54.3358 24.2129C54.3407 24.3146 54.3748 25.0262 54.3797 25.1278Z" fill="#FE9200"/>
<path d="M50.3179 21.5527C49.6029 21.587 49.3257 22.2116 49.2869 23.538L51.5341 23.4303C51.3686 22.1137 50.9308 21.5233 50.3179 21.5527Z" fill="#FE9200"/>
<path d="M40.8284 22.2114C40.6241 22.2212 40.2204 22.3424 39.734 22.8752L39.9484 27.348C40.1576 27.4399 40.4689 27.5268 40.7753 27.5121C41.1839 27.4926 41.5827 27.2697 41.7626 26.7516C42.0447 26.2286 42.1127 25.5122 42.0689 24.5973C41.9909 22.9708 41.6455 22.1722 40.8284 22.2114Z" fill="#FE9200"/>
</g>
<defs>
<clipPath id="clip0">
<rect width="65.4469" height="44.7795" fill="white" transform="translate(0.134521 4.08997) rotate(-2.74437)"/>
</clipPath>
</defs>
</svg>
