<svg width="28" height="28" viewBox="0 0 28 28" fill="none" xmlns="http://www.w3.org/2000/svg">
<path d="M7.50146 16.332H20.4954C20.6517 19.7587 21.1235 21.6208 21.3989 22.4696C21.0057 22.6221 20.5761 22.8 19.3459 23.1178C19.1166 22.4284 18.7636 21.1802 18.6657 18.9194C18.6643 18.8022 18.6393 18.6865 18.5924 18.5792C18.5454 18.4718 18.4773 18.375 18.3922 18.2944C18.3071 18.2139 18.2066 18.1512 18.0968 18.1102C17.987 18.0692 17.8701 18.0507 17.7531 18.0557C17.636 18.0608 17.5211 18.0893 17.4152 18.1395C17.3094 18.1898 17.2147 18.2609 17.1368 18.3484C17.0589 18.436 16.9994 18.5383 16.9618 18.6493C16.9242 18.7603 16.9093 18.8778 16.918 18.9946C17.0137 21.2042 17.3569 22.5786 17.6323 23.4756C16.3608 23.7173 14.9708 23.9154 13.4168 23.9154C12.5379 23.9154 11.8084 23.818 11.0755 23.7274C11.2861 23.1739 11.5093 22.5041 11.6589 21.4089C11.6748 21.2948 11.668 21.1788 11.639 21.0674C11.61 20.9559 11.5593 20.8513 11.4898 20.7595C11.4203 20.6678 11.3334 20.5906 11.234 20.5325C11.1346 20.4743 11.0247 20.4364 10.9107 20.4208C10.7966 20.4052 10.6806 20.4123 10.5692 20.4416C10.4579 20.4709 10.3534 20.522 10.2619 20.5917C10.1703 20.6615 10.0934 20.7487 10.0355 20.8482C9.97768 20.9478 9.94006 21.0578 9.9248 21.1719C9.77042 22.3025 9.54438 23 9.37679 23.3924C9.35506 23.4433 9.36812 23.406 9.35059 23.4448C7.7183 23.0738 6.96391 22.7403 6.56836 22.5322C6.8085 21.7201 7.33016 19.6309 7.50146 16.332Z" fill="white"/>
<path opacity="0.4" d="M8.30298 16.5H21.297C21.4532 19.9266 21.925 21.7888 22.2004 22.6375C21.8073 22.7901 21.3777 22.968 20.1474 23.2858C19.9181 22.5964 19.5651 21.3482 19.4672 19.0874C19.4658 18.9702 19.4408 18.8545 19.3939 18.7471C19.3469 18.6398 19.2788 18.5429 19.1937 18.4624C19.1086 18.3818 19.0081 18.3192 18.8983 18.2782C18.7886 18.2372 18.6717 18.2187 18.5546 18.2237C18.4375 18.2287 18.3226 18.2572 18.2167 18.3075C18.1109 18.3578 18.0162 18.4288 17.9383 18.5164C17.8604 18.604 17.8009 18.7063 17.7633 18.8173C17.7257 18.9283 17.7108 19.0457 17.7195 19.1626C17.8152 21.3722 18.1584 22.7465 18.4338 23.6436C17.1623 23.8852 15.7723 24.0833 14.2183 24.0833C13.3394 24.0833 12.6099 23.986 11.877 23.8953C12.0877 23.3419 12.3108 22.6721 12.4604 21.5768C12.4763 21.4628 12.4696 21.3467 12.4406 21.2353C12.4115 21.1239 12.3608 21.0193 12.2913 20.9275C12.2218 20.8357 12.1349 20.7586 12.0355 20.7004C11.9361 20.6423 11.8263 20.6044 11.7122 20.5888C11.5981 20.5732 11.4821 20.5803 11.3707 20.6096C11.2594 20.6389 11.155 20.6899 11.0634 20.7597C10.9718 20.8295 10.8949 20.9166 10.837 21.0162C10.7792 21.1157 10.7416 21.2257 10.7263 21.3398C10.5719 22.4705 10.3459 23.168 10.1783 23.5604C10.1566 23.6113 10.1696 23.5739 10.1521 23.6128C8.51982 23.2417 7.76542 22.9083 7.36987 22.7002C7.61001 21.8881 8.13168 19.7989 8.30298 16.5Z" fill="#30B3EA"/>
<path d="M13.9727 9.34473C13.9913 9.34532 14.0099 9.34532 14.0285 9.34473C14.3444 9.36106 14.5834 9.59512 14.5834 9.91667V11.375C14.5834 11.6071 14.6756 11.8296 14.8397 11.9937C15.0038 12.1578 15.2263 12.25 15.4584 12.25H18.375C19.5126 12.25 20.4167 13.1541 20.4167 14.2917V14.5833H7.58337V14.2917C7.58337 13.1541 8.4875 12.25 9.62504 12.25H12.5417C12.7738 12.25 12.9963 12.1578 13.1604 11.9937C13.3245 11.8296 13.4167 11.6071 13.4167 11.375V9.91667C13.4167 9.59473 13.6562 9.36053 13.9727 9.34473Z" fill="white"/>
<path d="M14.3622 9.34375C14.3808 9.34434 14.3994 9.34434 14.4181 9.34375C14.734 9.36009 14.9729 9.59415 14.9729 9.91569V11.374C14.9729 11.6061 15.0651 11.8286 15.2292 11.9927C15.3933 12.1568 15.6158 12.249 15.8479 12.249H18.7646C19.9021 12.249 20.8062 13.1532 20.8062 14.2907V14.5824H7.9729V14.2907C7.9729 13.1532 8.87703 12.249 10.0146 12.249H12.9312C13.1633 12.249 13.3858 12.1568 13.5499 11.9927C13.714 11.8286 13.8062 11.6061 13.8062 11.374V9.91569C13.8062 9.59375 14.0457 9.35955 14.3622 9.34375Z" fill="#FE9200"/>
<path d="M13.9865 1.73643C13.7546 1.74006 13.5336 1.83556 13.3721 2.00198C13.2106 2.16839 13.1218 2.3921 13.1251 2.62397V7.76117C12.2752 8.11143 11.6668 8.94688 11.6668 9.91563V10.499H9.62513C7.54149 10.499 5.83346 12.207 5.83346 14.2906V14.874C5.83346 19.3948 4.71123 22.7638 4.71123 22.7638C4.64817 22.9528 4.65152 23.1577 4.72071 23.3446C4.78991 23.5314 4.9208 23.6891 5.09176 23.7914C5.09176 23.7914 8.25258 25.6656 13.4168 25.6656C15.3955 25.6656 17.1344 25.3779 18.652 25.0481C18.8496 25.0742 19.0501 25.0319 19.2205 24.9285C21.3515 24.4202 22.8037 23.845 22.8037 23.845C23.0134 23.7549 23.1797 23.5864 23.2669 23.3755C23.3542 23.1646 23.3556 22.9279 23.2708 22.7159C23.2708 22.7159 22.1668 19.9943 22.1668 14.874V14.2906C22.1668 12.207 20.4588 10.499 18.3751 10.499H16.3335V9.91563C16.3335 8.94688 15.725 8.11143 14.8751 7.76117V2.62397C14.8768 2.50685 14.855 2.3906 14.8109 2.28208C14.7668 2.17357 14.7014 2.07501 14.6185 1.99224C14.5356 1.90947 14.437 1.84418 14.3284 1.80024C14.2199 1.7563 14.1036 1.7346 13.9865 1.73643ZM13.9728 9.34369C13.9914 9.34429 14.01 9.34429 14.0286 9.34369C14.3445 9.36003 14.5835 9.59409 14.5835 9.91563V11.374C14.5835 11.606 14.6757 11.8286 14.8398 11.9927C15.0039 12.1567 15.2264 12.2489 15.4585 12.249H18.3751C19.5127 12.249 20.4168 13.1531 20.4168 14.2906V14.5823H7.58346V14.2906C7.58346 13.1531 8.48759 12.249 9.62513 12.249H12.5418C12.7738 12.2489 12.9964 12.1567 13.1605 11.9927C13.3246 11.8286 13.4168 11.606 13.4168 11.374V9.91563C13.4168 9.5937 13.6563 9.35949 13.9728 9.34369ZM7.50143 16.3323H20.4954C20.6517 19.7589 21.1235 21.6211 21.3989 22.4698C21.0057 22.6224 20.5761 22.8003 19.3458 23.1181C19.1165 22.4287 18.7636 21.1805 18.6657 18.9197C18.6642 18.8025 18.6393 18.6868 18.5923 18.5794C18.5453 18.4721 18.4773 18.3752 18.3921 18.2947C18.307 18.2141 18.2066 18.1515 18.0968 18.1105C17.987 18.0695 17.8701 18.051 17.753 18.056C17.6359 18.061 17.521 18.0895 17.4152 18.1398C17.3093 18.1901 17.2146 18.2611 17.1368 18.3487C17.0589 18.4363 16.9994 18.5386 16.9618 18.6496C16.9242 18.7606 16.9093 18.878 16.9179 18.9949C17.0136 21.2045 17.3568 22.5788 17.6323 23.4759C16.3607 23.7175 14.9708 23.9156 13.4168 23.9156C12.5379 23.9156 11.8084 23.8183 11.0755 23.7276C11.2861 23.1742 11.5093 22.5044 11.6588 21.4091C11.6747 21.2951 11.668 21.179 11.639 21.0676C11.61 20.9562 11.5593 20.8516 11.4898 20.7598C11.4203 20.668 11.3333 20.5909 11.234 20.5327C11.1346 20.4746 11.0247 20.4367 10.9106 20.4211C10.7966 20.4055 10.6805 20.4125 10.5692 20.4419C10.4579 20.4712 10.3534 20.5222 10.2618 20.592C10.1702 20.6618 10.0933 20.7489 10.0355 20.8485C9.97765 20.948 9.94002 21.058 9.92477 21.1721C9.77038 22.3028 9.54434 23.0003 9.37675 23.3927C9.35502 23.4436 9.36808 23.4062 9.35055 23.4451C7.71827 23.074 6.96387 22.7406 6.56832 22.5325C6.80846 21.7204 7.33013 19.6312 7.50143 16.3323Z" fill="#353C41"/>
</svg>
