<svg width="30" height="30" viewBox="0 0 30 30" fill="none" xmlns="http://www.w3.org/2000/svg">
<path fill-rule="evenodd" clip-rule="evenodd" d="M14.9541 1.99762C18.846 2.34343 21.901 4.82454 24.5007 7.74139C27.3649 10.955 30.6181 14.5213 29.8987 18.7655C29.1481 23.1939 25.1754 26.2339 21.0608 28.0351C17.1477 29.7481 12.743 29.7909 8.88066 27.9662C4.98065 26.1238 2.07884 22.7148 0.973662 18.5455C-0.183335 14.1806 0.0993371 9.28149 3.01351 5.83216C5.85194 2.47249 10.5732 1.60835 14.9541 1.99762Z" fill="#FCE9EA"/>
<path d="M22.4108 6.57645C22.1494 6.58262 21.9011 6.69203 21.7201 6.88076L15.0001 13.6007L8.28017 6.88076C8.18787 6.78588 8.07746 6.71048 7.9555 6.65904C7.83353 6.6076 7.70248 6.58116 7.57011 6.58128C7.3734 6.58152 7.18122 6.6404 7.01813 6.75039C6.85505 6.86039 6.72845 7.0165 6.65452 7.19879C6.58058 7.38108 6.56267 7.58128 6.60307 7.7738C6.64346 7.96632 6.74033 8.14243 6.8813 8.27963L13.6013 14.9996L6.8813 21.7196C6.78636 21.8107 6.71056 21.9199 6.65834 22.0407C6.60613 22.1615 6.57854 22.2916 6.5772 22.4232C6.57586 22.5548 6.6008 22.6853 6.65054 22.8072C6.70029 22.929 6.77386 23.0397 6.86692 23.1328C6.95999 23.2259 7.07069 23.2994 7.19255 23.3492C7.3144 23.3989 7.44496 23.4239 7.57657 23.4225C7.70818 23.4212 7.8382 23.3936 7.95902 23.3414C8.07983 23.2892 8.18901 23.2134 8.28017 23.1184L15.0001 16.3985L21.7201 23.1184C21.8113 23.2134 21.9204 23.2892 22.0413 23.3414C22.1621 23.3936 22.2921 23.4212 22.4237 23.4225C22.5553 23.4239 22.6859 23.3989 22.8077 23.3492C22.9296 23.2994 23.0403 23.2259 23.1334 23.1328C23.2264 23.0397 23.3 22.929 23.3497 22.8072C23.3995 22.6853 23.4244 22.5548 23.4231 22.4232C23.4217 22.2916 23.3941 22.1615 23.3419 22.0407C23.2897 21.9199 23.2139 21.8107 23.119 21.7196L16.399 14.9996L23.119 8.27963C23.2629 8.14159 23.3618 7.96328 23.4026 7.76806C23.4435 7.57285 23.4243 7.36986 23.3478 7.1857C23.2712 7.00155 23.1408 6.84483 22.9736 6.73611C22.8064 6.62739 22.6102 6.57174 22.4108 6.57645Z" fill="#353C41"/>
</svg>
