<svg width="29" height="29" viewBox="0 0 29 29" fill="none" xmlns="http://www.w3.org/2000/svg">
<path fill-rule="evenodd" clip-rule="evenodd" d="M0.0395508 14.2057C0.0395508 6.38148 6.38197 0.0390625 14.2062 0.0390625C22.0305 0.0390625 28.3729 6.38148 28.3729 14.2057C28.3729 22.03 22.0305 28.3724 14.2062 28.3724C6.38197 28.3724 0.0395508 22.03 0.0395508 14.2057ZM15.588 7.43622C15.7955 7.2282 16.068 7.12241 16.3403 7.12241C16.6125 7.12241 16.8846 7.2282 17.0926 7.43622L17.184 7.52766C17.6001 7.94264 17.6001 8.61625 17.184 9.03228L13.0733 13.143C12.3918 13.8246 12.2648 14.4625 13.0733 15.2711L17.184 19.3817C17.6001 19.7967 17.6001 20.4703 17.184 20.8864L17.0926 20.9778C16.6776 21.3939 16.004 21.3939 15.588 20.9778L9.56949 14.9593C9.15345 14.5444 9.15345 13.8707 9.56949 13.4547L15.588 7.43622Z" fill="#353C41"/>
</svg>
