<svg width="42" height="15" viewBox="0 0 42 15" fill="none" xmlns="http://www.w3.org/2000/svg">
<path d="M14.3416 0L11.9948 14.6018H15.6454L17.9922 0H14.3416ZM25.4237 5.97345C24.1199 5.30973 23.3377 4.9115 23.3377 4.24779C23.3377 3.58407 23.9896 3.0531 25.4237 3.0531C26.5971 3.0531 27.5098 3.31858 28.1617 3.58407L28.5528 3.71681L29.0743 0.663717C28.292 0.39823 27.249 0 25.8149 0C22.1643 0 19.6871 1.85841 19.6871 4.64602C19.6871 6.63717 21.5124 7.83186 22.9465 8.49557C24.3807 9.15929 24.9022 9.69027 24.9022 10.2212C24.9022 11.1504 23.7288 11.5487 22.6858 11.5487C21.2516 11.5487 20.4694 11.2832 19.296 10.7522L18.5137 10.6195L17.9922 13.8053C18.9048 14.2035 20.4694 14.6018 22.0339 14.6018C25.8149 14.6018 28.4224 12.7434 28.4224 9.82301C28.4224 8.23009 27.5098 6.90266 25.4237 5.97345ZM38.3312 0.132744H35.4628C34.5502 0.132744 33.8983 0.39823 33.5072 1.32743L28.0313 14.6018H31.8123L32.8553 11.6814H37.1578L37.6793 14.6018H41.0691L38.3312 0.132744ZM34.1591 8.76106C34.2894 8.76106 35.5932 4.11505 35.5932 4.11505L36.7666 8.76106C36.7666 8.76106 34.9413 8.76106 34.1591 8.76106ZM8.99609 0L5.47588 9.95575L5.08475 7.9646C4.43286 5.70796 2.34681 3.31858 0 2.12389L3.25945 14.6018H7.1708L12.9074 0H8.99609Z" fill="#2394BC"/>
</svg>
